<svg id="Слой_1" data-name="Слой 1" xmlns="http://www.w3.org/2000/svg" viewBox="0 0 283 113"><defs><style>.cls-1{fill:#bd1819;}.cls-2{fill:#161616;}.cls-3{isolation:isolate;}</style></defs><path class="cls-1" d="M98.66,74a19.44,19.44,0,0,0-1.57-6.76,24.66,24.66,0,0,0-3.73-5.57,22.11,22.11,0,0,1-4.44-7.84,25,25,0,0,1-.85-7.45A19.46,19.46,0,0,0,83.26,33c-.19-.22-.38-.44-.58-.65-.13,3-.29,5.84-1.55,8.58a30.49,30.49,0,0,1-1.8-3.44,23,23,0,0,1-1.44-9,20.56,20.56,0,0,0-1.67-8.58,23.68,23.68,0,0,0-3.65-5.46A21.29,21.29,0,0,1,67.94,6a1.75,1.75,0,0,0-.13-.28l-.18,0c-.35,1.1-.76,2.18-1,3.29A28,28,0,0,0,66,15.92a19.14,19.14,0,0,1-2,8.7,29.76,29.76,0,0,1-3.49,5,22.53,22.53,0,0,0-3.28,5l-.41.85a25.53,25.53,0,0,1-.91-6.11c-.64.73-1.21,1.47-1.77,2.22a18.94,18.94,0,0,0-3.1,7,28.83,28.83,0,0,0-.53,6.62,19.27,19.27,0,0,1-2,8.7,29.48,29.48,0,0,1-3.73,5.33,19.64,19.64,0,0,0-4.79,11c-.17,1.82-.15,3.67-.24,5.5,0,.69-.11,1.38-.18,2.09h.09c0,.26,0,.52,0,.79,0,15.58,13.3,28.22,29.7,28.22s29.7-12.64,29.7-28.22A26.94,26.94,0,0,0,98.66,74Z"/><path class="cls-2" d="M68.61,101.58A24.35,24.35,0,1,1,93.16,77.65,24.47,24.47,0,0,1,68.61,101.58ZM56,91.32c7.51,7.14,19.77,6.11,25.61-.1-1.28-2.78-2.56-5.61-3.92-8.4a1.65,1.65,0,0,0-1.21-.71q-7.67-.08-15.31,0a1.61,1.61,0,0,0-1.21.71C58.61,85.61,57.33,88.45,56,91.32Zm-3.65-4.63c4.4-9.45,8.71-18.69,13.1-28.09C52,60.74,46,76,52.36,86.69Zm33,0a19,19,0,0,0-.47-19.84,18.58,18.58,0,0,0-12.23-8.33l-.28.3ZM69,64.15l-.38,0c-1.94,4.15-3.87,8.3-5.85,12.56H74.91C72.9,72.44,71,68.29,69,64.15Z"/><g class="cls-3"><path class="cls-1" d="M132.1,72.22h-4.49v24.5c-.1-1.64-.17-2.59-.22-2.85a15.21,15.21,0,0,0-.66-3.24v1.06a43.51,43.51,0,0,1-.66,5.58,43.65,43.65,0,0,0-.67,6.75,25,25,0,0,0,.15,2.79h-1.78A22.09,22.09,0,0,0,125,100.4a22.22,22.22,0,0,0-.73-4.72,24.16,24.16,0,0,1-.72-5.55c0-.89,0-1.84.15-2.84a12.84,12.84,0,0,0-1.77,6.19,11.39,11.39,0,0,1-1.16,5.24A9,9,0,0,1,120,95a37.67,37.67,0,0,1,.43-4.66,35.94,35.94,0,0,0,.44-4.54,6.26,6.26,0,0,0-1.1-4,20.15,20.15,0,0,1,.15,2.34,14.18,14.18,0,0,1-1.25,5.58V72.22h-4.53v-10H132.1Z"/><path class="cls-1" d="M155.19,106.81H152.6a20.69,20.69,0,0,0,1.18-6.3,21.12,21.12,0,0,0-.74-4.72,23.33,23.33,0,0,1-.74-5.43,25.65,25.65,0,0,1,.19-3.07,12,12,0,0,0-1.81,6.19,11.18,11.18,0,0,1-1.12,5.24,8.74,8.74,0,0,1-.72-3.79,35.64,35.64,0,0,1,.43-4.57,34.35,34.35,0,0,0,.44-4.47,6.16,6.16,0,0,0-1.14-4,22.45,22.45,0,0,1,.15,2.51,14,14,0,0,1-1.18,5.35,13.64,13.64,0,0,0-1,6l-.23-.28V88.79H144v8.09a2.31,2.31,0,0,1-.34.84,30.76,30.76,0,0,0-1-5.41,24.7,24.7,0,0,1-.84-5.47v-1a8.77,8.77,0,0,0-1,4.52c0,.78.07,2,.22,3.79s.23,3,.23,3.9a17.11,17.11,0,0,1-.11,2.12,8.14,8.14,0,0,1-1.33-4.35,16.42,16.42,0,0,0-1.07-5.19v1a32.37,32.37,0,0,1-.93,5.63,32.85,32.85,0,0,0-.93,6.81,18.87,18.87,0,0,0,.19,2.73h-2V62.18H144V78.53h2.25V62.18h8.9Z"/><path class="cls-1" d="M172.08,72.22h-4.94v6.31h4V88.79h-4v4h1.25c0,.15-.21,1.47-.49,4a5.93,5.93,0,0,1-1.33,3.45c0-.52-.08-1.11-.08-1.78q0-1.33.27-4c.17-1.78.26-3.08.26-3.9A8.58,8.58,0,0,0,166,85.84v1.22a24.25,24.25,0,0,1-.86,5.42,25.75,25.75,0,0,0-.89,5.24c-.33-.3-.61-1.3-.84-3,0-.19-.2-1.88-.53-5.08-.21,1.26-.42,2.55-.65,3.85a7.84,7.84,0,0,1-.8,2.23,13.57,13.57,0,0,0-1.06-6,13.68,13.68,0,0,1-1.22-5.38,22.12,22.12,0,0,1,.15-2.45,6.15,6.15,0,0,0-1,2.79V62.18h13.85Zm-13.73,26.5c-.08,0-.12,0-.12-.16V87.29c0,.44.19,1.73.5,3.85A32.55,32.55,0,0,1,159,95,9,9,0,0,1,158.35,98.72Zm14.19,8.09h-1.79a16.22,16.22,0,0,0,.19-2.56,29.79,29.79,0,0,0-.8-6.2c-.66-3-1-4.77-1.1-5.3h3.5Z"/><path class="cls-1" d="M196.05,96.6a24,24,0,0,1-.76,6.92c-.61,2-1.69,3.29-3.23,3.74a22.17,22.17,0,0,0,1.25-6.64,22.18,22.18,0,0,0-.72-4.77,23.71,23.71,0,0,1-.72-5.38,25.65,25.65,0,0,1,.19-3.07,11.17,11.17,0,0,0-1.75,4.46c-.08,1.12-.14,2.25-.19,3.4A9.09,9.09,0,0,1,189,99a9.58,9.58,0,0,1-.72-3.91,34.93,34.93,0,0,1,.44-4.6,36.14,36.14,0,0,0,.43-4.49,6,6,0,0,0-1.18-4,19.94,19.94,0,0,1,.2,2.62A13.09,13.09,0,0,1,187,89.74V71.89h-2.28V91.42c0-.34-.11-.9-.23-1.68-.21,1.71-.41,3.4-.61,5.08a7.7,7.7,0,0,1-.76,3.12,27.59,27.59,0,0,0-.9-5.35,25,25,0,0,1-.85-5.53c0-.44,0-.89,0-1.34a9.47,9.47,0,0,0-1.11,4.91c0,.79.08,2,.23,3.77s.23,3,.23,3.88a19.3,19.3,0,0,1-.11,2.12,7.84,7.84,0,0,1-1.35-4.35,18.8,18.8,0,0,0-1-5.3v.94a27.1,27.1,0,0,1-.92,5.25,36.73,36.73,0,0,0-1.06,6.47,24.44,24.44,0,0,1-.69-6.81V71.22q0-9.48,5.44-9.49h9.36q5.67,0,5.67,9.49Zm-10-3.68a25.32,25.32,0,0,0-.11,3,10.1,10.1,0,0,1-1-3Z"/><path class="cls-1" d="M219.26,72.78q0,8.27-3.69,10.21a5.11,5.11,0,0,1,2.58,3.18,24,24,0,0,1-1,4.13,17.08,17.08,0,0,0-.57,5.41,8.62,8.62,0,0,1-.69-2.23c-.15-1.3-.29-2.59-.42-3.85L215,94.76a8,8,0,0,1-.57,3,44.38,44.38,0,0,0-.8-5.91,26.05,26.05,0,0,1-.57-6,10.62,10.62,0,0,0-.76,4.46c0,.82.07,2.13.2,3.93s.21,3.15.21,4c0,.7,0,1.34-.07,1.89l-.12-.11a31.39,31.39,0,0,0-.6-4.52,29.29,29.29,0,0,1-.54-5.35c0-.93,0-1.9.12-2.9a14.7,14.7,0,0,0-1.26,4.79V88.46h-1q.15-1.78.15-2.79a7.22,7.22,0,0,0-.83-3.79,19.64,19.64,0,0,1-.46,6.58H208v.67a19.09,19.09,0,0,0-1,6.58,8.62,8.62,0,0,1-.69-2.23c-.12-1.3-.26-2.59-.41-3.85-.16,1.71-.31,3.42-.46,5.13a7.62,7.62,0,0,1-.57,3,37.34,37.34,0,0,0-.69-5.3,31.84,31.84,0,0,1-.6-5.3V85.84a11.19,11.19,0,0,0-.8,4.68c0,.82.06,2.1.19,3.85s.19,3,.19,3.91c0,.7,0,1.34-.08,1.89A9.42,9.42,0,0,1,202,95.82a21.68,21.68,0,0,0-.77-5.19,26,26,0,0,1-.57,5.92,46.4,46.4,0,0,0-.83,7.47,19.31,19.31,0,0,0,.19,2.79h-.92V62.18h14.42Q219.26,62.18,219.26,72.78Zm-9,5.92V72.22H208V78.7Zm9,19c-.08.22-.22.56-.42,1a12.25,12.25,0,0,1-.5-3.79c0-.85.17-3,.5-6.3a50.31,50.31,0,0,1,.42,6.8Z"/><path class="cls-1" d="M243.42,62.18,236.87,90v16.85h-1.25a30.63,30.63,0,0,0,.22-3.73,69.7,69.7,0,0,0-.78-8.87,69.1,69.1,0,0,1-.78-8.49,25.55,25.55,0,0,1,.23-3.4q-1.78,2.85-1.79,10.88v3.35q0,6-1,7.81-1.11-3.63-1.11-12.22V89.8a36,36,0,0,0-1.44,7.53,43.9,43.9,0,0,1-1.07,7,84.74,84.74,0,0,0-.11-9.6V90l-6.54-27.78h8.67L232.34,73l2.52-10.77Z"/></g><g class="cls-3"><path class="cls-1" d="M141.34,25.5h-9.05V19H130V40h1.68c0,3.85,0,6.06,0,6.61a11.68,11.68,0,0,1-1,4.77q-1-3.56-1-12.1V36.94a38.83,38.83,0,0,0-1.4,7.47,40.1,40.1,0,0,1-1.17,7,67.42,67.42,0,0,0-.34-11.1q-.94,9.15-1.93,10.16c0-2.9-.11-5.81-.19-8.71q-.25-6-1.59-8.25a36.16,36.16,0,0,1,.31,5.35,99,99,0,0,1-.88,13.22c-1-1.59-1.48-4-1.48-7.3V19.53a21.35,21.35,0,0,1,1-7.53,4.48,4.48,0,0,1,4.45-3.13h9.28a4.69,4.69,0,0,1,4.68,3q1,2.35,1,7.65Zm-.23,10.26c.08,1,.12,2.16.12,3.46a94.77,94.77,0,0,1-.8,11.83,8.83,8.83,0,0,1-.46,1,53.21,53.21,0,0,1-1.79-7.5,55.32,55.32,0,0,1-.91-8.12,39.84,39.84,0,0,0-1.56,12.28c0,1.71.06,3.61.19,5.69h-1.25a37.17,37.17,0,0,0,.22-4.13,59,59,0,0,0-.57-7.48c-.58-4.42-.87-6.77-.87-7Z"/><path class="cls-1" d="M164.44,54h-2.59a21.06,21.06,0,0,0,1.18-6.3,21.72,21.72,0,0,0-.74-4.72,22.93,22.93,0,0,1-.75-5.44,28.06,28.06,0,0,1,.19-3.07,12,12,0,0,0-1.8,6.2,11.17,11.17,0,0,1-1.13,5.24,8.77,8.77,0,0,1-.72-3.79,36.21,36.21,0,0,1,.44-4.58A36,36,0,0,0,159,33a6.21,6.21,0,0,0-1.14-4,22.73,22.73,0,0,1,.15,2.51,14.15,14.15,0,0,1-1.18,5.36,13.65,13.65,0,0,0-1,6l-.23-.28V35.93h-2.24V44a2.59,2.59,0,0,1-.34.84,31.74,31.74,0,0,0-1-5.41,24.7,24.7,0,0,1-.84-5.47V33a8.69,8.69,0,0,0-1,4.52c0,.78.08,2,.23,3.8s.23,3.05.23,3.9a19.3,19.3,0,0,1-.11,2.12A8.09,8.09,0,0,1,149.15,43a16.71,16.71,0,0,0-1.07-5.19v1a31.87,31.87,0,0,1-.94,5.63,32.85,32.85,0,0,0-.93,6.81A18.87,18.87,0,0,0,146.4,54h-2V9.32h8.9V25.67h2.24V9.32h8.91Z"/><path class="cls-1" d="M188.56,54h-2.4c.1-1.75.15-3.4.15-5a39.52,39.52,0,0,0-1.6-12.39,48.45,48.45,0,0,1-1,8.7,39.3,39.3,0,0,1-2,7.48,97.6,97.6,0,0,1-1-13.5,31.26,31.26,0,0,1,.42-5.8c-.94,1.48-1.51,4.22-1.71,8.2q-.12,4.35-.19,8.65l-.11-.17-.35-5.8h-.91c-.15-1-.34-2.38-.57-4.13-.15,1-.3,2.38-.46,4.13h-.53L176.27,47c-.2-1.59-.38-3.18-.55-4.74a31.41,31.41,0,0,0-1.2-5.35v2.34q0,8.59-1.07,12.22-1.06-1.84-1.06-7.81V40.34q0-8-1.75-10.88a31.84,31.84,0,0,1,.19,3.4,72,72,0,0,1-.76,8.48,71.38,71.38,0,0,0-.77,8.87c0,1.27.07,2.51.19,3.74h-2.81l4-44.63H184.6ZM178.51,34.42l-.91-15.17-.88,15.17Z"/><path class="cls-1" d="M210.74,43.74a24,24,0,0,1-.77,6.92c-.6,2.05-1.68,3.29-3.23,3.74A21.91,21.91,0,0,0,208,47.76a22.32,22.32,0,0,0-.73-4.77,23.71,23.71,0,0,1-.72-5.38,25.65,25.65,0,0,1,.19-3.07A11.32,11.32,0,0,0,205,39c-.08,1.12-.14,2.25-.19,3.4a9,9,0,0,1-1.1,3.68,9.49,9.49,0,0,1-.73-3.9,36.78,36.78,0,0,1,.44-4.6,36.84,36.84,0,0,0,.44-4.49,6,6,0,0,0-1.18-4,19.8,19.8,0,0,1,.19,2.62,13.09,13.09,0,0,1-1.22,5.19V19h-2.28V38.55c0-.33-.1-.89-.23-1.67-.2,1.71-.4,3.4-.61,5.08a7.76,7.76,0,0,1-.76,3.12,26.73,26.73,0,0,0-.89-5.36A25,25,0,0,1,196,34.2c0-.44,0-.89,0-1.34a9.47,9.47,0,0,0-1.1,4.91c0,.78.07,2,.23,3.77s.22,3,.22,3.88a17.21,17.21,0,0,1-.11,2.12,8,8,0,0,1-1.35-4.36,18.25,18.25,0,0,0-1-5.3v.95a26.84,26.84,0,0,1-.91,5.25A36.77,36.77,0,0,0,191,50.55a24.91,24.91,0,0,1-.68-6.81V18.36q0-9.48,5.44-9.49h9.36q5.67,0,5.67,9.49Zm-10-3.68a23.22,23.22,0,0,0-.11,3,9.66,9.66,0,0,1-1-3Z"/><path class="cls-1" d="M234.17,22.49h-9V19h-2.29v2.12a3.73,3.73,0,0,0,1.7,3l7.11,5.3A6.83,6.83,0,0,1,233.87,34a11.86,11.86,0,0,0-.46,3.57c0,.78.08,2,.23,3.71s.23,3,.23,3.82a16.64,16.64,0,0,1-.15,2.34,8.48,8.48,0,0,1-1.24-4.4,16.76,16.76,0,0,0-1.09-5.25v1.06a33.94,33.94,0,0,1-.91,5.64,34.28,34.28,0,0,0-.91,7,19.31,19.31,0,0,0,.19,2.79,2.83,2.83,0,0,1-1.14.17h-1a24.59,24.59,0,0,0,1.14-6.7,23.49,23.49,0,0,0-.65-4.74,26.08,26.08,0,0,1-.64-5.41c0-1,.05-2,.15-3.07A13.22,13.22,0,0,0,226,40.62a12.49,12.49,0,0,1-.95,5.3,9.84,9.84,0,0,1-.68-3.8c0-.63,0-1.35.11-2.17h.69a8.7,8.7,0,0,0-.35-3.18,28.54,28.54,0,0,0,.35-3.85,6.62,6.62,0,0,0-1-4,22.12,22.12,0,0,1,.15,2.45,15.46,15.46,0,0,1-.49,3.91h-.12l-6.24-4.19c-2.41-1.59-3.61-4.65-3.61-9.15V17.19a10.82,10.82,0,0,1,1.48-6.11,4.77,4.77,0,0,1,4.19-2.21h9.17a4.61,4.61,0,0,1,4.12,2.21,11.09,11.09,0,0,1,1.43,6.11ZM215.49,37.77c0,.3,0,.62,0,.95a25.51,25.51,0,0,1-.61,4.52c-.48,2.42-.79,4.2-.91,5.36a21.4,21.4,0,0,1-.23-2.68V37.77Zm2.13,9.65a8.66,8.66,0,0,1-1.18-4.4,18.36,18.36,0,0,0-.95-5.25h1.79q0,.84.27,3.69c.12,1.56.19,2.82.19,3.79A18.31,18.31,0,0,1,217.62,47.42Zm3.2-9.65c-.18,2.2-.31,3.7-.38,4.52a6.41,6.41,0,0,1-.65,2.62,28.91,28.91,0,0,0-.49-3.62c-.38-2-.6-3.22-.65-3.52Zm2,0a16.75,16.75,0,0,0-.57,5.19,10.42,10.42,0,0,1-.72-2.12c-.08-.33-.2-1.36-.38-3.07Z"/></g></svg>