<svg id="Слой_1" data-name="Слой 1" xmlns="http://www.w3.org/2000/svg" viewBox="0 0 283 113"><defs><style>.cls-1{fill:#5ab034;}</style></defs><path class="cls-1" d="M220.84,38.92c-.13-.77-.94-1.35-1.84-.27s-.55,0-1.43.45-1.16.17-1.93-.41c-.41-.31-.49-2.06-1.15-1.13-.93,1.31-.67-.63-1.09-.8a1.63,1.63,0,0,0-1.88.68c-.36.4-1.62.22-2.15-.72s.4-1.21.67-.76,1.26-.05.76-.72,1.79-.94,2.64-1.26,0-.8-.71-.76-1.12.14-1.44-.72-.67-.62-.85-.44-.44.85-1.43.09.36-1.17.8-.76.68-1.12,1.44-1.08a25.55,25.55,0,0,0,2.6.41c.76,0,1.21.49.31.63a.61.61,0,0,0-.27,1.16c.41.22,1.07-.94,1.7-.49s1.3-.18,2.38.36,1.07.13,1.57-.09,1.16-.45,1.12-1-1.17,0-1.71-1c-.34-.66-1.12-.36-1.92-.23s-1.21.95-1.52.32,2-1.44,2.15-2-.45.18-.68-.58-.71-.54-1.43-.49-1.07-.63-1.61-.68-.94.95-1.88.9-.63-.85-1.21-1.43.13-1.44.67-.32.72.59,1.21.27,1-.8,1.84,0,.71.13,1.25-.14.68-.85.32-.85-2.11-.27-1.17-.72c.69-.33.54-.51.07-.91s-.68-.15-.61-.53c0-.16-.52-.78-.93-.7s-1.38.36-1.26-.82c.09-.9-.33-.12-.78-.18s-.85.92-1.1.05c-.3-1-1.47.29-1.53.24s-.22.76-.77.69-1.41,1-1.27.29-.31,0-.46,0c-.81.09-1.84.63-.32,1.66s.05.94-.85,1.16-.45.95-.09,1.35-.27,1.43-.72.45-.72-.4-1.3.05-.36-.59-.09-.59.36.05.76-1.16-2-2.64-2.06-3.45-.58-1.48-1.07-1.08-.85.23-1.39-.4-.72.36-1,.27a2,2,0,0,0-1.7.45c-1.88,1.4.49,1.12.85,1.52.81.91-.23,1.26-.72.67s-.63-.13-.94-.09a1.52,1.52,0,0,1-1.08-.53c-.31-.32-.85-.81-1.3-.18s-.94.31-1.79-.54-1-.22-1.12.31-1.25.45-1.61.54-1.21,1.39-2-.27.72-1.7,1.7-1.48.23-1.3,1.62-1.21.45.36,1.74.81.68-.85,1.66-.76.45-.72,1.75-1.48c.77-.45-1.12-1.12-2.1-.9s-1.08-.22-1.66-.53a1.47,1.47,0,0,0-1.8.09c-1.25,1.25-1.21,0-1.21-.54s-1.92-1.66-2.86-1.79-2.6,1.65-3.1,1.07-1.07-.13-2.28,0-.63.58,0,1.08-.36.54-.85.45-.94.58.36.89.22.72-.27.72a3,3,0,0,0-1.92,1.35c-.72.89-1.21.67-2,.49s0-1.79.45-1.7,1.75-.72,1.43-1.57-.31-.63.68-1.34,0-1.31-.45-1.48-1.25.8-1.7.26a1.57,1.57,0,0,0-1.43-.53c-.54,0-.48.91-1.17.27a2.05,2.05,0,0,0-.63-.4c-.23-.1-.65-.46-.77-.21-.26.56-1-1.36-1.06,0,0,.39-.49.14-.67-.09s-.72.27-1,.2c-.52-.14-.83.39-1.09.3s-1.51-1.19-2-.14.81.36.68,1,.62,1.12.22,1.57a2.53,2.53,0,0,1-2.91,0c-1-.76-1.48.67-1.66,1.43s1.43.58,1.66,1,1.88-.31,3,.18-.94.45-1,.85.94-.09,1.21.54.72,0,1.43.58,1.3.14,1.93-.18a1,1,0,0,1,1.35.9c-.09.45-.59.32-1,.76s-1-.76-1.61.22,1.21.05,1.47.63.85.49,1,.72-.94.94-1.57,1.25a2.92,2.92,0,0,1-2.2.49c-1.07-.17.54-1.56-.8-1.7-.41,0-1.39-.36-1.3-.94s-1.84-2.55-2.38-3,.14,1.75-.62,1.7-1.75-1.57-3.1-2.51c-.63-.44-1.3-.14-1.87-.34-.31-.11-.84.61-.93.27-.33-1.37-.73.38-1,.2s-.52.54-.94.23-.38.56-.45,1.25c-.13,1.35-.72.54-2.11.76s-1.38,1.75-1.3,2.29-.22,1-1,.67,0-1-.67-1.26-2.42,1.89-2.42,2.38,1.35-.27,2.11.85c.45.66,1.84-.14,2.33.36s1.93-.58,2.33-1.08a3.15,3.15,0,0,1,1.93-.67c.62-.09.71,1,.71,1.39s1.17.09.77,1.17c-.17.45-.68.36-2.56.49s.41.72.32,1.16-1.75.27-2.2.81,1.48,1.7,2.15,2,2.42-1.26,2.83-.81a9.63,9.63,0,0,0,1.34,1.75c.72.58,1,.72,0,1.75s-2.71-.27-2.71-.27c-1.08-.23-1.66-.81-2.29.13-.38.58-.17,1.44-.72,1.84s-1-.76-1.79-.67c-1.51.16-1.44-1.24-2.15-1.48-.45-.15-1.94,1.34-1.88-.37.07-2.08-1.1,0-1.48-.3-.84-.71-1.45.94-1.85-.2-.15-.45-.9.19-1.2.38-.72.45,0,1.79-.76,1.84s-.54.44-1.07.94,0,1.07-.32,1.3a.86.86,0,0,0-.09,1c.41.27.49-1.34,1-.27s-1.21,1.35-1.48,1-.63-1.57-.9-.41c-.21.93-1.38,1.26-1.3,1.7.18.88,1.3.14,2.06-.13s.72,1.12.72,2,1,.63,1.3.85a2.24,2.24,0,0,0,1.17.59c.49,0,1-.85,0-1s0-.81-1.07-.72-.45-.94-.18-.63,1.26.09,2.06.23,1,1.3,1.7,1.25c.36,0,.81-.09.86.41s-.41,1.25-.14,1.34.27-.8.94-1,.5,1,.63,1.66-.67.09-.76,1,.49.59,1,.23c1.34-1,.94.62,1.65.71,1.35.17,1-.85,1.84-1a3.35,3.35,0,0,0,1.66-.8,1.45,1.45,0,0,1,2,.27c.76.71,1,.85,1.61.58.78-.36.63.63.32,1s-2.16.27-3.14.14-1.71.76-1.21.85,1.21.54.62.81-.44.8-1,.76-1.21-1.35-1.89.18,1.17,2.51,2.6,2,1.88-.05,2.06.49,1.88,1,1.88,1c.81,1.75-.73.34-1.21.21s-1,.94-2,.8-1.34.34-1.08.54.81.74,0,1.07-.4,1.28-.8,1.68-.2,1.08.54,1.08,2.55-.13,2.82.34,2.15,0,2.15,0c1.82,0-.13,1.07.07,1.61s3.83-.14,4.57.34c.59.37.15,1.14.2,1.57a7.06,7.06,0,0,1,.92-.15,1.38,1.38,0,0,0,.16-1.49c-.54-1,.34-.54.14-1.42s1.81-1.41,2.75-1.27,1.62-.21,1.48.8,1,.2,1.55.41.53-.74-.07-1.15.54-1,.87-1.21-.8-.6,1.15-1.34,3.43.2,4.84,1.21.8,3.76.4,5.44a12.65,12.65,0,0,1-1.68,3.63,3.59,3.59,0,0,1-1.52,1.54,11,11,0,0,1,.58,1.32c2.18-.15,4.51-.24,7-.24a70.73,70.73,0,0,1,7.62.44,8.07,8.07,0,0,1,.33-.94l-.47-.06c-.63-.45-.72-.63-.8-1s-1-.92-1.66-1.82a3.6,3.6,0,0,1,0-3.49c.54-1.21,1-3.1,2.11-3.59s.85-1.12,1.17-1.39,1-1,1.43-.13-.58,0-1.34.67.62.5.85,1.12,1.07.63,1.48.54.71.13.45.53-.5.63-.36,1.12.94.36,1.38-.09.27-.53.72-.13.36-.45,1-.63.36-.41.58-.76.85-.32,1.21,0,.09,1.08.32.5.76-.1.76-.1c.58.72.72-.35,1.48-.22,1.33.24,1.21-.13,1.88-.4s.72-.45,1.12.27.36.45,1.62.49,2.19-1.43,2.59-2,.86-.49.5-1.66-1.21.32-1.57-.85S204.32,56,204,55.09s1.08-.36,1.48-.58.81.94,1.39.9,1.35.53,1.75.09-.45-.68-.85-1.26.58-.58,1-.22.58.18,1.38.22,1.08,1,1.39.67-.62-.58.32-1.21.89-.08,1.7,0,.9-1.21,1.21-1.84.18-.9-.4-1.16-.76.26-1-.59-.76-1-1.35-.76-1.88-.13-1.84-.76-1.11-.85-1.83-.94-1.44-.14-1.57-.77-.45-.76-1.17-.76-.94.23-1.48-.49-1.3-.4-1.88.09-.27,1-.94,1.21-.85-.89-.22-1.38.94-.32.58-.9,0-.41.31-1,.94-.18,1,.49,1.12.36,1.61.32,1.17-.32,1.26.27.67.4,1.61,0,1.93.77,2.29.85.22-.58.76-1.12-.4-.22-.63-.89.45-.76,1.35-.14.49,1.17,1,1.39,1.12.94,2.07,0,.94-.18,1.88-.76,1.88,0,2.28-.58.45-.5,1.7,0,.81-.36.77-2.06.72-1,.72-1.57S221,39.68,220.84,38.92ZM151.69,44.7c-.23.58-.58.85-.94.53s-.59-.22-.95-.4.5-.53.41-.76a.31.31,0,0,1,.13-.36c.45-.13.86.27,1.22.14S151.91,44.11,151.69,44.7ZM154,41.38c-.5.32-2.24.76-2.29-.4,0-.38.81-.54,1.57-.4S154.47,41.07,154,41.38Zm3.09,4.39c-.27.14-.27-.53-.27-.53C157,45.19,157.33,45.64,157.07,45.77Zm11.69-9.27c.36-.14,1.08-.14.85.22s-.67,1.17-1,.76S168.76,36.5,168.76,36.5Zm-.67,3.58c.27-.18.85-.63.9-.31a1.41,1.41,0,0,1-.23,1c-.22.35-.76.44-.94.13S168.09,40.08,168.09,40.08Zm-.45.7s-.33,1.24-.85.95S167.15,40.72,167.64,40.78Zm-3.58,8.94c0-.77-1,.49-.68-.81.09-.31.63-.09,1-.67s.62-.49,1.07-.18,1.12.76.94,1.12.58,1.57.32,1.84-1.44,0-1.62-.4S164.06,50.48,164.06,49.72Zm.09,1.52c0,.41-.81.32-.94,0C163.21,51.29,164.15,50.84,164.15,51.24Zm-.22-7.66c.13-.18.89.13,1.07.09s.09.85-.22,1-.95.31-.95,0S163.74,43.8,163.93,43.58ZM164.82,33c.29-.43,1.16-.22,1.7-.17a.53.53,0,0,1,.27.94c-.32.27-.09,1.43-.81,1.08S164.1,34.12,164.82,33Zm.32,5c.4,0,.53-.76,1-.67s.63-1.3,1.21-.72-.9.85-.94,1.79-1.17.72-1.35.36-.45-.58-.76-.13-1.12.58-.9,0a3,3,0,0,0,.23-.8c.09-.27-.36-.76.13-.85S164.73,38.07,165.14,38Zm-5.25-7.79c.12-.3,1.26.09,1.43-.18s.59-.22.68.36.49.63.85.31.94-.41,1.12.13.45.63,0,1.08.54,1.11-.22,1.3-.94-.77-1.62-.81-1.7-.27-1.7-.76S159.62,30.9,159.89,30.23ZM162.53,39c0,.27.14.76-.53.68s-1.21-.27-1.17-.68.5-.53.9-.53.89-.72,1.12-.41S162.53,38.69,162.53,39Zm0,5.74c-.22.09-1.38.26-1.47-.23,0,0,1.21-1.12,1.47-1.07C163,43.49,162.76,44.61,162.53,44.7Zm-4.79-18.42c.13-.26,1.16.63.85,1S157.52,26.73,157.74,26.28ZM158.9,33c-.27-.63-.71-1.17-.27-1.57a1.19,1.19,0,0,1,1.17.22c.09.23.67,1.35.45,1.61A.87.87,0,0,1,158.9,33Zm-.53,14.34a.86.86,0,0,1-.09-.62.67.67,0,0,1,.89.8C159,47.88,158.54,47.66,158.37,47.34Zm1.16,8.52c-.63.8-1.16.67-.72-.14C159,55.33,160.16,55.05,159.53,55.86Zm.09-1.75c-.63.8-1.16.67-.72-.13C159.12,53.58,160.25,53.3,159.62,54.11Zm0-8.25c-.32-.09-.54-.4-.4-.67a.37.37,0,0,1,.67,0C160.11,45.51,160,46,159.67,45.86Zm.31-1.39c.05-.22-.4-.8-.14-1s1.35.45.95.77S159.94,44.7,160,44.47Zm1.34,10.09c.05.63-1,.67-1.12.49a1.19,1.19,0,0,1,.18-1.35c.45-.44,1.89-.62,1.79-.31S161.28,53.93,161.32,54.56Zm1.08-8.39c-.22-.53-.18.5-.54.32s-.4-.13-.36-.45.27-.4.86-.45,1.39.9,1.21,1.08A.92.92,0,0,1,162.4,46.17Zm5.07,9c-.5.09-1.29-.28-.54-.54,1.16-.4,0-1.3-.45-1.43s-1.21-.13-1.48-.71-1.07,0-1.12.26-.31.81-.81.72-.62.18-.44-.31c.07-.21.76-.09.8-.45s.23-.81.59-.81.85-.62,1.38-.49,1.21,1.21,1.48,1.53S168.5,54,169,54.52s.81.18.81.58S168,55.05,167.47,55.14Zm2.15-2.33c-.72-.18-1.21-.45-1.3-1.12s-.9-1.57-.72-1.84.4-.36.49-.54c.2-.39.63-.85,1-.22s.89.94.94,1.43S170.33,53,169.62,52.81Zm44.17-.56c.25.13.13.56-.07.75a.49.49,0,0,1-.42.14C213.08,52.63,213.53,52.12,213.79,52.25Zm-6.26-3.11c.3-.7.63-.68.76-.32s.76,1.48.22,1.53-.31.94-.85.53-.8-.36-.89-.89S207.22,49.85,207.53,49.14Zm-2.64.89a.63.63,0,0,1,.94,0,.69.69,0,0,0,.72.4c.31,0,.31.41.13.77s.27.62-.31.85-.45.8-.9-.05,0-1.12-.4-1.48S204.57,50.39,204.89,50Zm-2,2.88c.49,0,1.54-.13,1.4.45s-1,.45-1,.45C202.92,53.58,202.45,52.94,202.93,52.91Zm4.85-17.49c.29-.4.49-.08.49-.08a.28.28,0,0,1-.07.26C208,35.8,207.49,35.83,207.78,35.42ZM203,37.74a.33.33,0,0,1-.07.27c-.23.19-.71.23-.42-.18S203,37.74,203,37.74Zm-.64-7.34c.29-.41.49-.08.49-.08s0,.18-.07.26S202.07,30.81,202.36,30.4Zm-1.51-1.16c.33-.21.76-.95.58-.18s1,.18.54,1-.81.85-.81.71.59-.76-.13-.94S200,29.82,200.85,29.24Zm-.48,7.24c.29-.41.48-.09.48-.09a.3.3,0,0,1-.07.27C200.56,36.85,200.08,36.88,200.37,36.48ZM199,28.7c.17-.32,1.13-.05,1,.27s-.13,1.16-.58.58S198.66,29.37,199,28.7Zm-3.41,5.09c.28-.4.48-.08.48-.08s0,.18-.07.26S195.31,34.2,195.6,33.79ZM194.85,29c0-.17.58-.45.53,0s-.27.49-.67.36S194.79,29.25,194.85,29Zm.53,4c-.18.23-1.12.19-1.34.5s-1.21.31-1.26.09-.22-.4-.09-.58,1.61.13,1.88-.23S195.56,32.82,195.38,33Zm-1.56-9.76c.58-.18.76.26.89.49s-1.07,1.08-1.3.53A.7.7,0,0,1,193.82,23.28Zm.17,6.36c.27-.22.81,0,.19.27s.31.63.62.85.54.58.18.58-.71.41-1.16.49-1.12-.44-1.26-1.47S193.79,29.81,194,29.64Zm-2.33-4.75c-.13-.49.5-.76.72-.49s.81,1.12.41,1.3-1.26,1.07-1.66.67S191.8,25.38,191.66,24.89Zm0,4.28c.37.14.19.61-.1.82a.89.89,0,0,1-.62.15A.68.68,0,0,1,191.61,29.17Zm-3.35,2.17c.4.36-.58,1.53-1,1C187.27,32.37,187.86,31,188.26,31.34Zm.31,10.53c0,.54-.45.54-.76.32s-.63-.81-1.39-.72-2.24.36-1-1c.33-.38.85-.67,1.21-.4s.67,1.3,1,1S188.57,41.34,188.57,41.87Zm-.15-8.21c.35-.62.59-.13.59-.13a.58.58,0,0,1-.08.4C188.66,34.22,188.08,34.28,188.42,33.66Zm-2.18-.52c.27-.18,1.66-.36,1.57.09s-1,1.16-1.34,1S186,33.31,186.24,33.14ZM186,35.38c.44-.23.58,1.16.18,1.21a3.85,3.85,0,0,0-1.66.72c-.14.22-.72.17-.72-.05,0-1.07.63-.54.94-.54S185.57,35.6,186,35.38Zm-1.3,5.15c-.09.31-.09.76-.68.72s-1.74.4-.62-.81C183.68,40.16,184.81,40.21,184.72,40.53ZM183,28.25c.26-.06,0-1.57.27-1.48s.9.72,1.48.81.76.36.27.71-.67.41-.72.86-.58.53-.68.17-.35-.67-.62-.31S182.07,28.48,183,28.25Zm-.85,8.69c.27,0,1.66.09,1.48.85s-.58.9-.94.9-.5-.8-.81-1A.41.41,0,0,1,182.12,36.94Zm-.18,2.51c-.23.45-.58,1.13-.85,1.13s-.36-.49-.77-.72-.58,0-.53-.58c0-.23.26-.5,1-.41S182.16,39,181.94,39.45ZM180.5,28.39c.36-.5.14-.9.77-.76s.44,1.11.4,1.47-.67.32-.89.59-.59.26-.68-.09A1.48,1.48,0,0,1,180.5,28.39Zm-.71,8.6c.72.54.85-.36,1.16,0a.69.69,0,0,1-.26,1.08c-.41.17-.81-.14-1.3-.14s-.5-.09-.45-.36S179.07,36.45,179.79,37Zm-.85-7.66a2.44,2.44,0,0,1-.57.67s.17.11.25.63c.13.85-.18,1.34-.31,1.21s-.85-.54-.81-1.26.81-1.16.14-1.3-.76.32-.85-.36c-.06-.41,0-.58.94-.53S179.52,28.48,178.94,29.33Zm-4.49-6.95c.59.14,1.71.36,1.57,1s-.58.8-.8.36-.05-.77-.85-.77-.94.18-.94-.18S173.87,22.24,174.45,22.38Zm-1.65,1.79c.45-.45.36.41,1.16.45s2.11,0,2.06.54c-.09,1.16,1.76.9,1.71,1.48-.1,1-1.21,1.16-1.35,1.43s-1,.09-.94,1-.72-.15-.85-.53c-.27-.76.81-1.17.63-1.57s-.9.72-1.3.27-.9-.09-.54-1,.14-.76-.31-.94S172.62,24.35,172.8,24.17ZM172,41.56c.09-.9.36-.22.85,0s1.48.54.09.85C172.45,42.51,171.86,42.46,172,41.56Zm3.49,5.6c.14.63,0,.9-.45.81s-.53.49-1.3.58-1.41-1.1-1.41-1.46c.27-.45,1.41-.47,1.91-.78S175.3,46.53,175.44,47.16Zm-1.16-5.78c.09-.81,1.83-.67,2.06-.31s.22.76-.18.62-.63.14-.94.23S174.23,41.76,174.28,41.38Zm-2.69,7.49c.34-.42,1,0,1,0,.19.33.31,1-.08.87S171.25,49.29,171.59,48.87Zm-.77-.09c-.5-.21-.85-.9.09-.77s.45.68.45.68A.81.81,0,0,1,170.82,48.78Zm4.35,6c-.36,0-1-.72-1.43-.67s-.72.8-1.39.63a1.25,1.25,0,0,1-1-1.21c.05-.5-.4-.81.05-1.17s1.07.94,1.57.49a1.74,1.74,0,0,1,1.43-.36c.5,0,2.24.27,2.15,1A1.7,1.7,0,0,1,175.17,54.78Zm1.66-19.22c0,.62-.18,1-.54,1s-1.16.42-1.48.44,0,.18-.72-.31-.31-.18.14-.85.72-.22,1.75-.67S176.83,34.93,176.83,35.56Zm-.67-4.35c-.49.09-.63-.76,0-.81s.94,1,.9,1.17C176.93,31.93,176.65,31.12,176.16,31.21Zm1.08,5.86c-.35-.15-.22-.52-.07-.79s.46-.07.46-.07.49.59.35.76A.59.59,0,0,1,177.24,37.07Zm.44,10c-.22-.62.5-1.3.58-1.47s.72-1,1.26-.59-.27.85-.32,1.21.5-.13.81,1.13-.88.54-1.21.89C178.13,49,177.91,47.7,177.68,47.07Zm4.62,6.77c-.63.45-1.35.85-1.7.41a2.85,2.85,0,0,0-1.21-.9c-.45-.18-.32-1.43-.14-1.57a1.86,1.86,0,0,1,1.12-.18c.41,0,1.62.09,2,.9S182.93,53.39,182.3,53.84Zm-.23-5.42c-.13-.54-.26-.9,0-1.26.12-.16.81-.31,1-.09s.8.27.85.67-.76.41-.94.59S182.21,49,182.07,48.42Zm1,1.21c.4-.37.05-1.08.9-.49s.58,1.3.23,1.34S182.43,50.26,183.1,49.63Zm3.46,7c-.86,1.35-1.66.67-1.84.49s-.81-1.43-.09-1.92c.44-.31.49-1.21,1.21-.63S187.41,55.32,186.56,56.66Zm1.83-2.15c-.45,0-1.16-1-.94-1.07.41,0,.85-.31,1.17,0S188.84,54.56,188.39,54.51Zm0-3.42c-.7-.21-1.89.22-1.16-.64.55-.64.74-1.59,1.31-.78C188.82,50,189.62,51.43,188.42,51.09Zm1.72-18.76a1.44,1.44,0,0,1-1.21.31c-.31,0-.4.72-.72,0-.14-.3,1.17-.76,1.62-.76s.8-.77,1.07-.36a1.43,1.43,0,0,1-.18,1.66C190,33.87,190.59,32,190.14,32.33Zm2.71,23.16c0,.42,0,.8-.29.54s-.22-1.42.17-1.19S192.89,55.08,192.85,55.49Zm-.2-3c-.36-.22-.94-.13-1.07.23s-.68.8-1.12.31-.18-1.61.63-1.12c.41.25,1.88-.81,2.06-.54S193,52.68,192.65,52.45Zm1.35,4s-.22.18-.38.09c-.36-.2-.61-.9.06-.76A.41.41,0,0,1,194,56.44Zm-.45-5.38a6.23,6.23,0,0,0-1.7-.63c-.63,0-1.08.41-1.21-.17-.07-.32.62-.72.94-.86s.94-.49,1.07-.85.58-.49.72.23S195.16,50,195,50.52,193.77,51.11,193.55,51.06ZM195,56.77c-.34.24-1.07.17-.66-.38a.41.41,0,0,1,.74,0S195.16,56.67,195,56.77Zm-.36-4.47c-.69-.53,0-.64,0-.64a.92.92,0,0,1,.5.2C195.49,52.23,195.35,52.83,194.65,52.3Zm1.18-15.09c-.31.23-.31-.31-1.25.23s-1-.18-.81-.5c.35-.61.58-.8,1.12-.8s1.57-.45,1.75.4,1.11,2,.67,2.11C196.24,39,196.15,37,195.83,37.21Zm1.79,9.28c-.17.22-.31-.58-.85-.54s-1.12-.22-.8-.8c0,0,.94-.32,1.3.22S197.8,46.27,197.62,46.49Zm0-9.08a.55.55,0,0,1-.57-.51.53.53,0,0,1,.57-.5.54.54,0,0,1,.57.51A.55.55,0,0,1,197.67,37.41Zm.72.74c-.5-.17,0-1.12.22-1.7s.27-1.16.72-.58a1.26,1.26,0,0,1-.05,1.57C199,37.79,199.4,38.52,198.39,38.15Zm1.25,7c-.58.62-.45.94-.22,1.34s-1.35-.76-.58-1.79C199.05,44.41,200.22,44.52,199.64,45.15Zm1.08-1.35c-.5.18-.67.45-.85.23,0,0,.72-1,1-.94S201.21,43.62,200.72,43.8ZM203.23,40c-.81-.32-.36,1.25-1.39.67s-1.08-.85-1.12-1.39-1.62-.58-.09-1.34c.4-.2,1.34-.27,1.3.18s-1.26.75.09.85-.76.63,1.88.44C204.26,39.43,204,40.35,203.23,40Zm7.12-.72c-.27.31-1.34.72-1.52.22s-.68.77-1.17.49-1.84-.8-1.92-.31-.63.94-.85.67-1.12-1.25-.76-1.52.49-1-.18-.81-.54-1.21,0-1.48c.34-.17.49-.35.8.14s.77-.09.77-.45.31-.85.62-.85a2.48,2.48,0,0,1,1.62.94c.36.59.54,1.57,1.07,1.71S210.62,39,210.35,39.32Z"/><path class="cls-1" d="M75.8,17v5.17H88.88v9.92H75.8v6H90.66V48.58h-28V6.5H90.66V17Z"/><path class="cls-1" d="M96,22.69a14.89,14.89,0,0,1,6.06-6A18.67,18.67,0,0,1,111,14.64a16.79,16.79,0,0,1,11,3.69,16.54,16.54,0,0,1,5.68,10.22h-14c-.51-1.74-1.52-2.62-3-2.62a2.86,2.86,0,0,0-2.53,1.49,8.51,8.51,0,0,0-.92,4.4,8.47,8.47,0,0,0,.92,4.39,2.84,2.84,0,0,0,2.53,1.49q2.27,0,3-2.61h14A16.6,16.6,0,0,1,122,45.31,16.83,16.83,0,0,1,111,49a18.55,18.55,0,0,1-8.89-2.08,14.82,14.82,0,0,1-6.06-6,18.42,18.42,0,0,1-2.17-9.12A18.43,18.43,0,0,1,96,22.69Z"/><path class="cls-1" d="M138.68,46.91a15.37,15.37,0,0,1-6.33-6,17.75,17.75,0,0,1-2.29-9.12,17.76,17.76,0,0,1,2.29-9.13,15.43,15.43,0,0,1,6.33-6,20.92,20.92,0,0,1,18.19,0,15.43,15.43,0,0,1,6.33,6,17.75,17.75,0,0,1,2.28,9.13,17.74,17.74,0,0,1-2.28,9.12,15.37,15.37,0,0,1-6.33,6,20.92,20.92,0,0,1-18.19,0Zm12.18-10.78a6.43,6.43,0,0,0,1.25-4.31,6.43,6.43,0,0,0-1.25-4.31,4,4,0,0,0-6.18,0,6.48,6.48,0,0,0-1.24,4.31,6.59,6.59,0,0,0,1.21,4.31,4,4,0,0,0,6.21,0Z"/><path class="cls-1" d="M64,73.87a18.24,18.24,0,0,1,7.22-7.57,21.68,21.68,0,0,1,11-2.71,22.57,22.57,0,0,1,9.78,2,18.06,18.06,0,0,1,7,5.8,21,21,0,0,1,3.6,8.73H88.7A7.57,7.57,0,0,0,86,76.93a7.13,7.13,0,0,0-4-1.15,6.29,6.29,0,0,0-5.26,2.49A10.69,10.69,0,0,0,74.79,85a10.66,10.66,0,0,0,1.94,6.71A6.27,6.27,0,0,0,82,94.2,7.14,7.14,0,0,0,86,93a7.45,7.45,0,0,0,2.7-3.24h13.91A21.15,21.15,0,0,1,99,98.54a18.12,18.12,0,0,1-7,5.79,22.43,22.43,0,0,1-9.78,2,21.78,21.78,0,0,1-11-2.7A18.26,18.26,0,0,1,64,96.1,23.72,23.72,0,0,1,61.42,85,23.76,23.76,0,0,1,64,73.87Z"/><path class="cls-1" d="M108.49,68.05a5.92,5.92,0,0,1-2.08-4.64,6.07,6.07,0,0,1,2.08-4.72A8,8,0,0,1,114,56.82a7.86,7.86,0,0,1,5.47,1.87,6.1,6.1,0,0,1,2.08,4.72,6,6,0,0,1-2.08,4.64A7.94,7.94,0,0,1,114,69.89,8,8,0,0,1,108.49,68.05Zm12.06,4.52v33.51H107.36V72.57Z"/><path class="cls-1" d="M126.53,80.14a13.81,13.81,0,0,1,5-5.94,12.66,12.66,0,0,1,7.07-2,11.21,11.21,0,0,1,5.62,1.34,9.13,9.13,0,0,1,3.59,3.65v-15H161v44h-13.2v-4.57a9.13,9.13,0,0,1-3.59,3.65,11.21,11.21,0,0,1-5.62,1.34,12.66,12.66,0,0,1-7.07-2,13.81,13.81,0,0,1-5-5.94,21.57,21.57,0,0,1-1.82-9.18A21.59,21.59,0,0,1,126.53,80.14Zm19.94,5a4.9,4.9,0,0,0-7,0,7.06,7.06,0,0,0,0,8.33,4.9,4.9,0,0,0,7,0,7.06,7.06,0,0,0,0-8.33Z"/><path class="cls-1" d="M199.18,91.64H178c.2,2.9,1.41,4.34,3.63,4.34a3.21,3.21,0,0,0,3.09-2h14a14.39,14.39,0,0,1-3,6.39,16.08,16.08,0,0,1-5.76,4.46,17.75,17.75,0,0,1-7.64,1.63,18.48,18.48,0,0,1-8.88-2.08,14.85,14.85,0,0,1-6.07-6,20.35,20.35,0,0,1,0-18.25,14.85,14.85,0,0,1,6.07-6,18.48,18.48,0,0,1,8.88-2.08,18.77,18.77,0,0,1,8.89,2,14.85,14.85,0,0,1,6.06,5.85,17.9,17.9,0,0,1,2.17,9A18.24,18.24,0,0,1,199.18,91.64ZM186,85.88a3.08,3.08,0,0,0-1.07-2.53,4.18,4.18,0,0,0-2.68-.86,3.73,3.73,0,0,0-4.1,3.39Z"/></svg>