<svg id="Слой_1" data-name="Слой 1" xmlns="http://www.w3.org/2000/svg" viewBox="0 0 283 113"><defs><style>.cls-1{fill:#81b328;}.cls-2{fill:#e68924;}.cls-3{fill:#344a1e;}.cls-4{fill:#ae5017;}</style></defs><path class="cls-1" d="M119.57,100.16c-24.9-.1-34.9-.3-38.2-.6-1.9-.1-3.8,0-5.8-.2-2.3-.3-4.3-.7-6.3.4a4.82,4.82,0,0,0-1.2.8l-.2.2c-1,.8-3.5-1.9-6.6-1.7h-.6a1.76,1.76,0,0,0-.6.1c-1.5.2-5.9.8-10.8,1.6-.4.1-.8.1-1.1.2a2.78,2.78,0,0,0-1.6-1.9l-.9-.3a10.18,10.18,0,0,0-4.9,0,11.85,11.85,0,0,0-4.8,2.3c-.3.2-.5.4-.7.5a5.72,5.72,0,0,0-.8-.7,6,6,0,0,0-2.7-.9,3.38,3.38,0,0,0,.8-1.9,3.08,3.08,0,0,0-.5-1.9,4.81,4.81,0,0,0-1.2-1,3.86,3.86,0,0,0-5.2,2.2c0,.2-.1.4-.1.6.9.1.6-2.2,2-1h0c.3.5.6.9.9,1.4a.1.1,0,0,0,.1.1c.2.2.3.4.5.6s.3.4.5.6c-.2,0-.5-.1-.8-.1h-.9a.37.37,0,0,0-.3.1,5.07,5.07,0,0,0-1.8.8,1.31,1.31,0,0,1,0,.9.35.35,0,0,1-.1.2,2.8,2.8,0,0,1-1.1.2,5.23,5.23,0,0,1-2.4-.8c-.2-.1-.3-.2-.4-.2a1.05,1.05,0,0,0-.7-.9,1.09,1.09,0,0,0-.5-.1c-.1-.1-.3-.1-.5-.2a.37.37,0,0,1-.3-.1.37.37,0,0,0-.3-.2.52.52,0,0,0-.4.2.56.56,0,0,0-.6-.2h0a.75.75,0,0,0-.1-.8,1.54,1.54,0,0,0-.7-.7,2,2,0,0,0-1.1-.3,2.61,2.61,0,0,0-1,.7,2.77,2.77,0,0,0-.5.9h.7l.2-.2a.31.31,0,0,0,.1.2c.5,1.1.9,2.1.9,2.1-.2-.1-.3-.2-.5-.2a3.45,3.45,0,0,0-1.3-.3l-.3.3c.2.4.4.7.6,1.1l.3.6a18.71,18.71,0,0,0,3.4,8.6c1.4,1.9,3.7,4.2,9.1,6.5,9.1,3.8,18.4,3.9,24.2,3.4,6.7-.5,13.6-1,20.6-1.4,6.4-.3,12.8-.6,18.9-.8h26.4c3.6-.1,9.9-.4,13.5-.5,2.1-.1,7.7-.3,9.8-.4a16.79,16.79,0,0,0-3.1-12C134.77,100.46,127.07,98.16,119.57,100.16Z"/><path class="cls-1" d="M222.77,100.16c-24.9-.1-34.9-.3-38.2-.6-1.9-.1-3.8,0-5.8-.2-2.3-.3-4.3-.7-6.3.4a4.82,4.82,0,0,0-1.2.8l-.2.2c-1,.8-3.5-1.9-6.6-1.7h-.6a1.76,1.76,0,0,0-.6.1c-1.5.2-5.9.8-10.8,1.6-.4.1-.8.1-1.1.2a2.78,2.78,0,0,0-1.6-1.9l-.9-.3a10.18,10.18,0,0,0-4.9,0,11.85,11.85,0,0,0-4.8,2.3c-.3.2-.5.4-.7.5a5.72,5.72,0,0,0-.8-.7,6,6,0,0,0-2.7-.9,3.38,3.38,0,0,0,.8-1.9,3.08,3.08,0,0,0-.5-1.9,4.81,4.81,0,0,0-1.2-1,3.86,3.86,0,0,0-5.2,2.2c0,.2-.1.4-.1.6.9.1.6-2.2,2-1h0c.3.5.6.9.9,1.4a.1.1,0,0,0,.1.1c.2.2.3.4.5.6s.3.4.5.6c-.2,0-.5-.1-.8-.1h-.9a.37.37,0,0,0-.3.1,5.07,5.07,0,0,0-1.8.8,1.31,1.31,0,0,1,0,.9.35.35,0,0,1-.1.2,2.8,2.8,0,0,1-1.1.2,5.23,5.23,0,0,1-2.4-.8c-.2-.1-.3-.2-.4-.2a1.05,1.05,0,0,0-.7-.9,1.09,1.09,0,0,0-.5-.1c-.1-.1-.3-.1-.5-.2a.37.37,0,0,1-.3-.1.37.37,0,0,0-.3-.2.52.52,0,0,0-.4.2.56.56,0,0,0-.6-.2h0a.75.75,0,0,0-.1-.8,1.54,1.54,0,0,0-.7-.7,2,2,0,0,0-1.1-.3,2.61,2.61,0,0,0-1,.7,2.77,2.77,0,0,0-.5.9h.7l.2-.2a.31.31,0,0,0,.1.2c.5,1.1.9,2.1.9,2.1-.2-.1-.3-.2-.5-.2a3.45,3.45,0,0,0-1.3-.3l-.3.3c.2.4.4.7.6,1.1l.3.6c2.5,2.9,4.4,6.1,3.4,8.6-1.8,4.6-12.2,4.1-12.2,5.5s10.7,2.3,12.7,2.4c6.4.5,9.9.4,19.4.5,5.6.1,10.3.1,16.3.4,8.6.4,10.4.8,16.6,1a194,194,0,0,0,20.1-.1l26.3-2.1c3.6-.1,9.9-.4,13.5-.5,2.1-.1,7.7-.3,9.8-.4a16.79,16.79,0,0,0-3.1-12C238,100.46,230.27,98.16,222.77,100.16Z"/><path class="cls-1" d="M251.47,100.16c-24.9-.1-34.9-.3-38.2-.6-1.9-.1-3.8,0-5.8-.2-2.3-.3-4.3-.7-6.3.4a4.82,4.82,0,0,0-1.2.8l-.2.2c-1,.8-3.5-1.9-6.6-1.7h-.6a1.76,1.76,0,0,0-.6.1c-1.5.2-5.9.8-10.8,1.6-.4.1-.8.1-1.1.2a2.78,2.78,0,0,0-1.6-1.9l-.9-.3a10.18,10.18,0,0,0-4.9,0,11.85,11.85,0,0,0-4.8,2.3c-.3.2-.5.4-.7.5a5.72,5.72,0,0,0-.8-.7,6,6,0,0,0-2.7-.9,3.38,3.38,0,0,0,.8-1.9,3.08,3.08,0,0,0-.5-1.9,4.81,4.81,0,0,0-1.2-1,3.86,3.86,0,0,0-5.2,2.2c0,.2-.1.4-.1.6.9.1.6-2.2,2-1h0c.3.5.6.9.9,1.4a.1.1,0,0,0,.1.1c.2.2.3.4.5.6s.3.4.5.6c-.2,0-.5-.1-.8-.1h-.9a.37.37,0,0,0-.3.1,5.07,5.07,0,0,0-1.8.8,1.31,1.31,0,0,1,0,.9.35.35,0,0,1-.1.2,2.8,2.8,0,0,1-1.1.2,5.23,5.23,0,0,1-2.4-.8c-.2-.1-.3-.2-.4-.2a1.05,1.05,0,0,0-.7-.9,1.09,1.09,0,0,0-.5-.1c-.1-.1-.3-.1-.5-.2a.37.37,0,0,1-.3-.1.37.37,0,0,0-.3-.2.52.52,0,0,0-.4.2.56.56,0,0,0-.6-.2h0a.75.75,0,0,0-.1-.8,1.54,1.54,0,0,0-.7-.7,2,2,0,0,0-1.1-.3,2.61,2.61,0,0,0-1,.7,2.77,2.77,0,0,0-.5.9h.7l.2-.2a.31.31,0,0,0,.1.2c.5,1.1.9,2.1.9,2.1-.2-.1-.3-.2-.5-.2a3.45,3.45,0,0,0-1.3-.3l-.3.3c.2.4.4.7.6,1.1l.3.6a18.71,18.71,0,0,0,3.4,8.6c1.4,1.9,3.7,4.2,9.1,6.5,9.1,3.8,18.4,3.9,24.2,3.4,6.7-.5,13.6-1,20.6-1.4,6.4-.3,12.8-.6,18.9-.8h26.4c3.6-.1,9.9-.4,13.5-.5,2.1-.1,7.7-.3,9.8-.4a16.79,16.79,0,0,0-3.1-12C266.67,100.46,259,98.16,251.47,100.16Z"/><path class="cls-1" d="M29.37,99.56a.91.91,0,0,0-.8-.1c-.3,0-.5.2-.6.2h0A8.17,8.17,0,0,1,29.37,99.56Z"/><path class="cls-1" d="M28,48.46a17.7,17.7,0,0,0-2.3.1c-.6-1.6-1.3-3.2-1.9-4.8.2-.2.4-.3.6-.5a15.57,15.57,0,0,1,2.2,2.6A8.3,8.3,0,0,1,28,48.46Z"/><rect class="cls-1" x="27.67" y="46.96" width="4.1" height="1.6"/><path class="cls-1" d="M26.37,45.26a3,3,0,0,0,1.2,1.6l.6.3c.2-4.3.3-8.6.5-12.9-.2-.1-.4-.1-.6-.2C27.57,37.66,27,41.46,26.37,45.26Z"/><path class="cls-1" d="M43.57,16.76c.4.2.8.4,1.3.6.1-.1.1-.2.2-.3-.7-.7-1.4-1.5-2.3-2.5-.4.9-.6,1.6-.9,2.2.6.4,1,.6,1.8,1.1-1,.2-1.6.4-2.2.5a12.75,12.75,0,0,1-.1,1.9h2a9.29,9.29,0,0,0-.5,1c.7.3,1.4.7,2.2,1l1.7-1.7a8.74,8.74,0,0,1,1,.8h1.5a6,6,0,0,1,.8-.8c.7.5,1.3,1,2.1,1.5.3-.1.6-.2,1-.3-.1.4-.1.7-.2,1.2.4.1.8.2,1.3.3a3.75,3.75,0,0,0-.1,1c.4.4.8.7,1.2,1.1-.1.1-.1.2-.2.3-.5-.1-.9-.3-1.4-.4-.7.9-1.3,1.8-2.1,2.9a3.46,3.46,0,0,0,1.2.3c1.7.1,3.5.1,5.2.3.6.1,1.4.5,1.5,1a41.15,41.15,0,0,1,1.3,4.7c-2.6,3-5.5,5.1-9.8,4.4a3.55,3.55,0,0,0-.4-.9,12.49,12.49,0,0,0,.8-1.2c-.8-.5-1.5-.9-2.3-1.3v-.4H52c-.8-.9-1.4-1.7-2.1-2.6.1-.3.3-.7.5-1.3.6,1.1,1.1,1.9,1.6,2.7.2,0,.3-.1.5-.1,0-1,.1-1.9.2-3.2.4.7.6,1.2.9,1.7.1,0,.3-.1.4-.1a15.52,15.52,0,0,0-.4-2.1c-.8-.1-1.4-.2-2-.3-1.2.7-2.8,1-2.4,3.2.2.1.5.5,1,.9-.6.1-1,.2-1.6.3-.2.6-.3,1.3-.5,2a16.19,16.19,0,0,1,1.7.6.37.37,0,0,1,.1.3c.2,2.8.5,3.1,3.3,2.6a7.57,7.57,0,0,1,1.5-.1c1.3,1.7-.3,2.5-1.1,3.5a16.65,16.65,0,0,0,1.3,1.2c-.3.9-.6,1.9-1,2.9a1.05,1.05,0,0,1-.9.5c-2.3,0-4.7.2-7.1-1.4,0-.7,0-1.7.1-2.7.2-2.3-.6-3.2-2.9-3.4-.3.4-.7.8-1.1,1.3h-.5a8.79,8.79,0,0,0-1.3-.7c.4-1.2.7-2.3,1.2-3.7.6-.4,1.6-.9,2.7-1.5a2.21,2.21,0,0,0-.6-2.6c-.6-.7-1.3-1.4-1.9-2.1-3.5-.2-7.2,4.3-8.7,10.7.2.1.4.4.7.6-.3.6-.5,1.2-.8,1.8-.6,1.1-1.2,2.1-1.8,3.2h-.5a3.4,3.4,0,0,1-.2-1.4,45.56,45.56,0,0,1,1.3-5.3,41.36,41.36,0,0,1,3.1-5.9,13.19,13.19,0,0,1,5.9-5.3,1.86,1.86,0,0,0-1.3-2.1,1.75,1.75,0,0,0-2,.6,4.31,4.31,0,0,0-1.4,3.2,1.88,1.88,0,0,1-.2.8c-.8,1.1-1.6,2.1-2.6,3.4.8-3.3,1.6-6.4,2.3-9.5,0-.1-.1-.2-.3-.6-2,3.5-2,7.3-3.1,10.7s-1.9,7-3.1,10.5v-3.2c0-4.6.3-9.2,2-13.6a7.92,7.92,0,0,1,3-4c.4-.2.5-.7.6-1.2-1.9.3-2.7,1.7-3.5,3.1s-1.2,3-1.9,4.6c-.5-4.1,2.5-6.3,4.6-9.1.8.2,1.6.4,2.5.6l.3-.3c-.8-.9-1.6-1.7-2.6-2.8,1.5-2,1.7-4.4,1.7-7a15.3,15.3,0,0,0-1.3-1.3c-.1,1.3-.1,2.2-.2,3.2h-.3c-.3-1.2-.5-2.3-.8-3.6,1.7-.2,3.3-.4,4.9-.7,1.4-1.7,3-3.2,5.7-2.9.1.7.2,1.3.3,2,.1.1.2.1.4.2.7-.8,1.3-1.6,2-2.4.1.1.2.1.3.2a5.38,5.38,0,0,0-.9,1.2,6.47,6.47,0,0,0-.4,1.3l.3.3c1-.6,1.9-1.2,2.9-1.8.1.1.1.2.2.3-.8.6-1.5,1.3-2.3,2,0,.1.1.3.1.4,1-.2,2.1-.5,3.3-.8-.8.5-1.5,1-2.2,1.4,0,.2.1.3.1.5,1.2,0,2.5.1,3.8.1,1.1,1.3,1.2,2.2.2,3.6s-1.8,2.5-2.8,3.7a3,3,0,0,1-1.1.7,15.11,15.11,0,0,0-.9-1.8c-.9.9-1.7,1.6-2.5,2.4l-.3-.3c.5-.5.9-1,1.4-1.5,0-.1-.1-.3-.1-.4l-3,.3a.37.37,0,0,0-.1-.3c.7-.2,1.5-.4,2.5-.6a6.22,6.22,0,0,0-1.2-2Zm-6.4,7.8c-.4.9-.8,1.6-1.1,2.3.2.1.3.3.5.4.7-.5,1.4-.9,2.3-1.5A17.67,17.67,0,0,1,37.17,24.56Z"/><path class="cls-2" d="M31.47,49.06v-.6h-.6Z"/><path class="cls-2" d="M28.37,48.46H26v.1a23,23,0,0,0-2.8.4,26.14,26.14,0,0,0-2.7.6,15,15,0,0,0-3.8,1.8,51,51,0,0,0-4,3.2,2.71,2.71,0,0,0-1,3c.3,1.5.6,3,1,4.7-.3.3-.6.8-1,1.3,1,1.7.8,3.4.8,5.1,0,2.3.2,4.6,2.2,6.3a10.93,10.93,0,0,1,1.9,2.6,13,13,0,0,0-1.3.3,4,4,0,0,0,0,4.1c.9,1.7,1.4,3.5,2.2,5.3-.1,0-.2.1-.3.1a13.58,13.58,0,0,0,1.2,1.2,3.6,3.6,0,0,0-1.1,1.5c-.2.6-.4,1.5.6,4.7.2.7.5,1.6.9,2.8a21.16,21.16,0,0,1,2.1,1.1c.1-.1.1-.2.2-.3-.5-.4-1-.9-1.6-1.3-.4-1.6-.8-3.2-1.2-5,.5-.3,1-.6,1.7-1.1a18.55,18.55,0,0,1,.1-2.2,4.45,4.45,0,0,1,3.4,0,.75.75,0,0,0,.1.5,9,9,0,0,0-1.6.3,8.43,8.43,0,0,0-1.4.6c1.9,1.6,3.6,3,5.2,4.4l-.1.1a.35.35,0,0,1,.2.1c1.5-.9,3.1-.2,4.6-.3a47.76,47.76,0,0,0,5.3-.6,3.08,3.08,0,0,1,1.3.3c-1.5,1.5-3.3,1-5.2,1,.6,1.1,1.2,2.1,1.8,3.2l.3.6c-.2.3-.5.5-.9,1,.4.3.8.8,1.3.9.7.2,1.5.5,1.9-.9h-2.1a13.07,13.07,0,0,0,1.2-1.1c.4.3.7.5,1,.7a2.56,2.56,0,0,0,1.4-1.3,2,2,0,0,0,.3-1.1c.3-1.6.8-3.2,1.1-4.8a1.39,1.39,0,0,0,0-.9c-1.1-2.9-.3-5.7.1-8.5.3-1.9,1.1-3.7.6-5.6a14.36,14.36,0,0,0-.8-2.5c.5-1.2,1.1-2.7,1.7-4.4a8.76,8.76,0,0,0,.8-3.9,6.83,6.83,0,0,0-.6-2,3,3,0,0,1-2.5-.3c.1-.1.2-.2.3-.2,1,0,1.6-.6,2-.6,1.3-.2,2.1-2.3,2.3-3.5.5-2.7-1.6-5.1-2.4-6-2.8-3.1-6.9-4.1-10.4-4.9a13,13,0,0,1-1.3-.3c.4-.2.9-.4,1.3-.6A3.44,3.44,0,0,1,28.37,48.46Z"/><path class="cls-1" d="M15.07,100.86a3,3,0,0,0,.3.4v.1h.8c-.2-.1-.5-.1-.7-.2S15.37,101.06,15.07,100.86Z"/><path class="cls-1" d="M14.67,99.56l.3.3a10.63,10.63,0,0,1,1.1-.9h-.7A4.35,4.35,0,0,0,14.67,99.56Z"/><path class="cls-3" d="M30.17,98.86h0C30.07,98.86,30,98.76,30.17,98.86Z"/><path class="cls-3" d="M38.87,25.86l-1.7-1.2c-.4.9-.8,1.6-1.1,2.3.2.1.3.3.5.4C37.27,26.86,38,26.46,38.87,25.86Z"/><path class="cls-4" d="M19.27,79.06c.6.4,1.1.7,1.9,1.2-.9.4-1.6.6-2.2.9a5.5,5.5,0,0,0-.9-.7,2.17,2.17,0,0,0-1.4,2.3c0,.1.2.2.3.3.3-.2.6-.3.9-.5-.1.3-.1.6-.2.6.8,1.4,1.4,2.7,2.2,4l3.2.3c.1-1.3.1-1.5-.9-2h0l.1.1c.1-.3.1-.5.2-.8-.2-.1-.4-.3-.6-.4h0v-.9h0c-.2-.3-.5-.6-.7-.9.1-.4.1-.8.2-1.3,2.2-.6,4.2,1.3,6.4.3C27,80.06,20.17,78.16,19.27,79.06Z"/><path class="cls-4" d="M14.67,58.56h0c-.1.5-.1,1-.2,1.5l3.6,1.5c.4-.5.8-.9,1.3-1.5a9,9,0,0,0-.9-.5,4.23,4.23,0,0,1,.5-.7l-.3-.3c-.6.3-1.1.7-1.7,1a4.44,4.44,0,0,1,.8-1.1,9.23,9.23,0,0,0,.9-1.3c-.8.1-1.2.2-1.6.2.5-.5.9-1,1.4-1.6a1.58,1.58,0,0,0-2.2.4,16.68,16.68,0,0,1-1.6,2.4l3.3-4.8c-1.5-.2-2,.8-2.8,1.3.2-.3.3-.6.6-1.1a4.48,4.48,0,0,0-3.2,3.9c.3.4.7.8,1.1,1.4A8.65,8.65,0,0,0,14.67,58.56Z"/><path class="cls-4" d="M37.07,90c-1.1.1-2.1.2-3.4.3,1,1.5,2.6.7,3.9,1.3a11.24,11.24,0,0,1,1.1-1.5,13,13,0,0,1-1.5-.3A.31.31,0,0,1,37.07,90Z"/><path class="cls-4" d="M37.67,76.76l-4.9.8C33.67,78.86,36.67,78.26,37.67,76.76Z"/><path class="cls-4" d="M45.37,103.86a4.44,4.44,0,0,0-2,.5l-4.3-4.5h0v.1h0l-.1-.1v-.1h0v-.6h0c.1-.3.1-.6.2-.7.5-2.2.7-3.4,1.4-6.3a.37.37,0,0,1,.1-.3,20.38,20.38,0,0,1-.3-3.2c0-2.5.6-3,.9-5.7a24.09,24.09,0,0,0,0-6,9,9,0,0,1,.8-5.6,7.58,7.58,0,0,0,1.1-4.4,4.53,4.53,0,0,0-1.2-2.3,1.76,1.76,0,0,0,.9-.8,7.5,7.5,0,0,0-.5-9.4,14.9,14.9,0,0,0-7.9-4.7c-.8-.2-1.5-.4-2.4-.6,0-.1.1-.2.1-.3h-.1a.68.68,0,0,0-.6-.4h0a1.27,1.27,0,0,1-.6-.1,20.9,20.9,0,0,1-2.5-.1v-.1h-2.8c-.3,0-.6-.1-.9-.1a5.42,5.42,0,0,0-1.5.2,2.14,2.14,0,0,0-.6.1c-1.1.2-1.6.3-1.7.3a21.46,21.46,0,0,0-5.9,2.6c-2,1.3-3.2,2-3.9,3.7a7.49,7.49,0,0,0-.5,5.3,7.74,7.74,0,0,0,.7,1.6c-.1.3-.1.5-.2.8h0v.1c0,.1-.1.2-.2.3a6.37,6.37,0,0,1-.2.7v.1c0,.1.1.2.1.3v.1a8,8,0,0,1,.7,2h0V67h0v.2h0a13.9,13.9,0,0,1-.3,2.7c.3.7.5,1.4.8,2.1.6,1.6,1.2,3.2,1.9,4.9a1.39,1.39,0,0,1,0,.9,5.7,5.7,0,0,0,.4,4.6,12.66,12.66,0,0,1,1.3,3.2c.3,1.1.5,2.2.8,3.3a10.16,10.16,0,0,0,1.7,8.9h.3c.1,0,.2.1.3.1-.3-.7-.6-1.7-1-2.8-.2-.6-1-3-.6-4.4,0-.1.1-.2.1-.3a3.6,3.6,0,0,1,1.1-1.5,13.47,13.47,0,0,0-1.2-1.2c.1,0,.2-.1.3-.1a49.25,49.25,0,0,0-2.2-5.3,3.8,3.8,0,0,1,0-4.1c.3-.1.6-.1,1.3-.3a10.93,10.93,0,0,0-1.9-2.6c-2-1.7-2.2-4-2.2-6.3a25.28,25.28,0,0,0-.1-2.8h0a2,2,0,0,0,0-.8v-.3a7.84,7.84,0,0,0-.5-1.4c0-.1-.1-.1-.1-.2a.1.1,0,0,1,.1-.1h.1c0-.2.1-.4.3-.4h-.1c.2-.3.5-.5.6-.7-.3-1.7-.6-3.2-.9-4.7a2.87,2.87,0,0,1,1-3c2.2-1.8,3.2-2.7,4-3.2a15,15,0,0,1,3.8-1.8,13.1,13.1,0,0,1,2.7-.6c.6-.1,1.2-.2,1.6-.3a39.1,39.1,0,0,1,6.3.9c4,.9,7.4,1.7,9.8,4.6.5.6,2.6,2.9,2.1,5.8-.4,2-1.2,4.1-3.8,4.2-.1,0-.2.1-.3.2a2.65,2.65,0,0,0,2.5.3,6,6,0,0,1,.6,2,9.28,9.28,0,0,1-.8,3.9c-.6,1.7-1.2,3.2-1.7,4.4.3.8.5,1.6.8,2.5.5,1.9-.3,3.8-.6,5.6-.5,2.8-1.2,5.7-.1,8.5a2.72,2.72,0,0,1,0,.9c-.4,1.6-.8,3.2-1.1,4.8-.1.4-.2.8-.3,1.1a2.56,2.56,0,0,1-1.4,1.3,6.07,6.07,0,0,1-1-.7c-.4.4-.8.7-1.2,1.1h2.1a2.93,2.93,0,0,1-.4.8l-.6.3a2.92,2.92,0,0,1-.9-.2,6,6,0,0,1-1.3-.9c.4-.5.7-.7.9-1l-.3-.6c-.6-1.1-1.2-2.1-1.8-3.2,1.8,0,3.7.5,5.2-1a1.59,1.59,0,0,0-1.3-.3,47.76,47.76,0,0,1-5.3.6c-1.6,0-3.1-.7-4.6.3a.35.35,0,0,0-.2-.1l.1-.1c-1.7-1.4-3.3-2.8-5.2-4.4.5-.2.9-.4,1.4-.6l1.6-.3a.75.75,0,0,0-.1-.5,5,5,0,0,0-3.4,0,14.12,14.12,0,0,1-.1,2.2c-.7.4-1.2.8-1.7,1.1.4,1.8.8,3.4,1.2,5,.6.5,1.1.9,1.6,1.3-.1.1-.1.2-.2.3a13.9,13.9,0,0,0-2.1-1.1v-.1h-.1a.37.37,0,0,1-.3-.1h-.1v.1a3.92,3.92,0,0,0-1.3-.3v.3c.6.5,1,.9,1.4,1.2,0,.1-.1.1-.1.2-.2.4-.4.7-.7,1.3.8-.3,1.3-.5,1.8-.7a2.54,2.54,0,0,1,.2.7c.4,0,.8-.1,1.2-.1a15.38,15.38,0,0,0,1.2,1.3c.1,0,.1,0,.2.1,1.3.5,2.4,1.8,4.1.5v-1.4l5-.6c0-.2-.1-.3-.1-.5l-1.2.3c-.2-.2-.3-.4-.5-.6s-.3-.4-.5-.6l-.1-.1c-.3-.4-.6-.9-.9-1.4h0c-1.4-1.2-1.1,1.1-2,1,0-.8,0-.8,2.9-2.8a7.5,7.5,0,0,1,2.3.7c1.1.6,1.1,1.6,1,2.6l-.3,1.8c1,.3,1.9.7,2.7,1a4.88,4.88,0,0,1,.7.3,4.05,4.05,0,0,0-.5.9,7.66,7.66,0,0,0-2,.3,3.33,3.33,0,0,0-1.4.7c-.2.2-.3.4-.4.5a9.17,9.17,0,0,1,2.5-.8,10.28,10.28,0,0,1,1.7-.1,11.22,11.22,0,0,0,.5-1.3,2.22,2.22,0,0,1,1.2-.6,2.9,2.9,0,0,1,2.2.4,7.1,7.1,0,0,0,1.2,1.3,15.68,15.68,0,0,0,2.8,2.1c1.1-.4,2.3-.8,3.4-1.1C45.87,104,45.67,103.86,45.37,103.86Z"/><path class="cls-3" d="M55.87,39.66c1.9-1.6,3.7-3.1,5.6-4.6-.4-1.7-.7-3.3-1.2-4.9-.6-2-1-2.1-3.2-2.2a36.47,36.47,0,0,1-4.2-.5,5.7,5.7,0,0,0,1.1-1.1,8.74,8.74,0,0,1,1,.8c2.2-2.8,2-3.7.7-5.1a13.64,13.64,0,0,0-1.7.4v-2.1c-.8.3-1.4.6-2.1.9-.5-.4-1-.8-1.7-1.4.9-1.2,1.6-2.2,2.4-3.2s.4-3.9-.5-4.5c-.3,0-.6-.1-1.1-.1v-2c-.7.1-1.3.1-2.2.2a11,11,0,0,1,1.4-1.1A12,12,0,0,0,49,8.06l-1.6.8a10.14,10.14,0,0,1,.9-1.3,16.7,16.7,0,0,1-2-.6c-.5.5-.8.9-1.2,1.3a5.29,5.29,0,0,0-5.3.3c-1.3.9-2.5,2.1-4.2,2.1-1.2,0-2.3.1-3.5.2-.1,1-.3,1.8-.4,2.6h.1c.1-.4.3-.7.4-1.1h.4c.2,1.1.4,2.2.5,3.1-.9.8-1.6,1.3-2.4,2l1.1,1.1c-.5.3-1,.6-1.6,1,.2.7.3,1.3.5,1.8.6,0,1-.1,1.4-.1a7.37,7.37,0,0,1,.4,1.4c-.9,1.5-1.8,2.9-2.6,4.4a13,13,0,0,0-1.3,3c-.8,3.6-1.4,7.2-2,10.9-.1.8-.2,1.6-.3,2.1v.2a2.8,2.8,0,0,0-.1.6c-.3.2-1.4-1.3-2.3-1a1.08,1.08,0,0,0-.5.4l.9,2.4c.3.9.6,1.7.9,2.5H26c-.3-.7-.5-1.5-.8-2.2s-.5-1.3-.8-2c-.1-.1-.2-.3-.1-.3s.3,0,.5.1a14.16,14.16,0,0,1,1.8,2.2q.75,1.2,1.2,2.1h.7l-.4-1.1c.1.1.2.1.3.2s.3.2.5.3a27.15,27.15,0,0,0,2.8-.1,1.48,1.48,0,0,1-.1.7c0,.1-.1.1-.1.2s-.1.2,0,.3a.49.49,0,0,0,.3.1c.1,0,.2.1.4.1a.35.35,0,0,1,.2.1c.1-.3.2-.7.3-1.1,0-.1.1-.2.1-.3-.2-.4-.4-.7-.7-1.4a36.11,36.11,0,0,1,2.3-3.6c.9-1.2,1.8-2.3,2.8-3.5l-.3-.3h-.1c-.9.7-1.7,1.4-2.6,2.2-.1-.1-.1-.2-.2-.3.7-.5,3.7-7.8,6.8-9.3.9.9,2.5,1.1,2.5,2.7a1,1,0,0,0-.3.1h-.1l-.2.1c-.1.1-.2.1-.4.2a7.93,7.93,0,0,0-.9.4c-.1.1-.3.2-.5.4a1.38,1.38,0,0,1-.3.4.31.31,0,0,0-.2.1h-.1s-.2.3-.3.3c-1.1.8-2.1,1.6-2.3,3.1a7.25,7.25,0,0,0,4.8,2.8,15,15,0,0,1,1.1-1.3c.5.2.9.4,1.5.6,0,.9-.1,1.8-.1,2.7,0,1.1,0,2.1,1.1,2.7a10.09,10.09,0,0,0,7.6.9,2.16,2.16,0,0,0,1.2-1.1c.4-.9.6-1.9.9-2.8-.2-.4-.4-.8-.6-1.3C56.07,42,56.17,40.76,55.87,39.66Zm-27.8,5.8a2.34,2.34,0,0,1-.2,1.3h0c-.4-.6-.7-1.2-1.1-1.7.5-3.6,1-7.3,1.5-11,.2.1.3.1.3.2C28.37,37.36,27.87,43.76,28.07,45.46Zm22.2-33.4a.75.75,0,0,0-.5.1v-.3h.6C50.27,12,50.27,12,50.27,12.06ZM53.47,43a16.65,16.65,0,0,0,1.3,1.2c-.3.9-.6,1.9-1,2.9a1.05,1.05,0,0,1-.9.5c-2.3,0-4.7.2-7.1-1.4,0-.7,0-1.7.1-2.7.2-2.3-.6-3.2-2.9-3.4-.3.4-.7.8-1.1,1.3h-.5a8.79,8.79,0,0,0-1.3-.7c.4-1.2.7-2.3,1.2-3.7.6-.4,1.6-.9,2.7-1.5a2.21,2.21,0,0,0-.6-2.6c-.6-.7-1.3-1.4-1.9-2.1-3.5-.2-7.2,4.3-8.7,10.7.2.1.4.4.7.6-.3.6-.5,1.2-.8,1.8-.6,1.1-1.2,2.1-1.8,3.2h-.5a3.4,3.4,0,0,1-.2-1.4,45.56,45.56,0,0,1,1.3-5.3,41.36,41.36,0,0,1,3.1-5.9,13.19,13.19,0,0,1,5.9-5.3,1.86,1.86,0,0,0-1.3-2.1,1.75,1.75,0,0,0-2,.6,4.31,4.31,0,0,0-1.4,3.2,1.88,1.88,0,0,1-.2.8c-.8,1.1-1.6,2.1-2.6,3.4.8-3.3,1.6-6.4,2.3-9.5,0-.1-.1-.2-.3-.6-2,3.5-2,7.3-3.1,10.7s-1.9,7-3.1,10.5V43c0-4.6.3-9.2,2-13.6a7.92,7.92,0,0,1,3-4c.4-.2.5-.7.6-1.2-1.9.3-2.7,1.7-3.5,3.1a48.93,48.93,0,0,0-1.9,4.6c-.5-4.1,2.5-6.3,4.6-9.1.8.2,1.6.4,2.5.6l.3-.3c-.8-.9-1.6-1.7-2.6-2.8,1.5-2,1.7-4.4,1.7-7a15.3,15.3,0,0,0-1.3-1.3c-.1,1.3-.1,2.2-.2,3.2h-.3c-.3-1.2-.5-2.3-.8-3.6,1.7-.2,3.3-.4,4.9-.7,1.4-1.7,3-3.2,5.7-2.9.1.7.2,1.3.3,2l.4.2c.7-.8,1.3-1.6,2-2.4.1.1.2.1.3.2a5.38,5.38,0,0,0-.9,1.2,6.47,6.47,0,0,0-.4,1.3l.3.3c1-.6,1.9-1.2,2.9-1.8.1.1.1.2.2.3-.8.6-1.5,1.3-2.3,2,0,.1.1.3.1.4,1-.2,2.1-.5,3.3-.8-.8.5-1.5,1-2.2,1.4,0,.2.1.3.1.5,1.2,0,2.5.1,3.8.1,1.1,1.3,1.2,2.2.2,3.6s-1.8,2.5-2.8,3.7a3,3,0,0,1-1.1.7,15.11,15.11,0,0,0-.9-1.8c-.9.9-1.7,1.6-2.5,2.4l-.3-.3,1.4-1.5c0-.1-.1-.3-.1-.4l-3,.3a.37.37,0,0,0-.1-.3c.7-.2,1.5-.4,2.5-.6-.6-.7-1-1.2-1.4-1.7l1.2.6c.1-.1.1-.2.2-.3-.7-.7-1.4-1.5-2.3-2.5-.4.9-.6,1.6-.9,2.2.6.4,1,.6,1.8,1.1-1,.2-1.6.4-2.2.5a12.75,12.75,0,0,1-.1,1.9h2a9.29,9.29,0,0,0-.5,1c.7.3,1.4.7,2.2,1l1.7-1.7a8.74,8.74,0,0,1,1,.8h1.5a6,6,0,0,1,.8-.8c.7.5,1.3,1,2.1,1.5.3-.1.6-.2,1-.3-.1.4-.1.7-.2,1.2.4.1.8.2,1.3.3a3.75,3.75,0,0,0-.1,1c.4.4.8.7,1.2,1.1l-.2.3c-.5-.1-.9-.3-1.4-.4-.7.9-1.3,1.8-2.1,2.9a3.46,3.46,0,0,0,1.2.3c1.7.1,3.5.1,5.2.3.6.1,1.4.5,1.5,1a41.15,41.15,0,0,1,1.3,4.7c-2.6,3-5.5,5.1-9.8,4.4a3.55,3.55,0,0,0-.4-.9,12.49,12.49,0,0,0,.8-1.2c-.8-.5-1.5-.9-2.3-1.3v-.4h2.8c-.8-.9-1.4-1.7-2.1-2.6.1-.3.3-.7.5-1.3.6,1.1,1.1,1.9,1.6,2.7l.5-.1c0-1,.1-1.9.2-3.2.4.7.6,1.2.9,1.7.1,0,.3-.1.4-.1a15.52,15.52,0,0,0-.4-2.1c-.8-.1-1.4-.2-2-.3-1.2.7-2.8,1-2.4,3.2.2.1.5.5,1,.9-.6.1-1,.2-1.6.3-.2.6-.3,1.3-.5,2a16.19,16.19,0,0,1,1.7.6.37.37,0,0,1,.1.3c.2,2.8.5,3.1,3.3,2.6a7.57,7.57,0,0,1,1.5-.1C56,41.16,54.37,42,53.47,43Zm-14.8-15.5c.4.3.7.6,1.3,1.1-1.2.7-2.2,1.4-3.2,2A2.76,2.76,0,0,1,38.67,27.46Zm4.8-10.7c-.1-.1-.3-.1-.4-.2l.1-.1Q43.47,16.61,43.47,16.76Z"/><path class="cls-4" d="M15.17,63.36c-.5-.1-.8-.1-1.3-.2l-.3.6c-.2-.2-.4-.3-.6-.5,0,.1,0,.2-.1.2s-.1.1-.2.1h0l-.1.1a1.76,1.76,0,0,1,.4.5c.1.1.2.2.2.3v.8a.37.37,0,0,1-.1.3,20.62,20.62,0,0,1,.2,2.1,44.68,44.68,0,0,0,.9,4.5,4,4,0,0,0,.9,1.7,10,10,0,0,0,1.4,1.5L20,77c.3-.9.6-1.7.8-2.4-.3-.5-.6-.9-.9-1.4a14.63,14.63,0,0,1-1.3.9c.3-.8.5-1.4.9-2.4a7.91,7.91,0,0,1-1.3.5c.2-.4.3-.9.5-1.3-.2-.1-.3-.3-.5-.4-.3.4-.6.7-.9,1.1.2-.6.5-1.2.8-1.9a4.91,4.91,0,0,1-1.1.1c.3-.4.6-.8,1-1.4h-.9c.3-.5.5-.9.9-1.7-.7.2-1,.3-1.3.4a14.63,14.63,0,0,0,.9-1.3,7,7,0,0,1-.9-.6c.1-.4.2-.7.3-1.2H16C16.37,63.86,15.17,63.06,15.17,63.36Z"/><path class="cls-4" d="M25,56.86c0,.1.1.3.1.4-.3.1-.6.3-.9.4s-.7.4-1,.6-.7.6-1,.9-.7.7-1,1.1l-.6.9-.3.6a8.65,8.65,0,0,0-.7,1.7c-.1.4-.1.8-.2,1.2v.7c0,.4.1.9.1,1.3v.1c-.1,0-.2.1-.3.1,0-.2-.1-.3-.1-.5s-.1-.6-.1-1v-.5a4.25,4.25,0,0,1,.2-1.1c.1-.5.2-1,.3-1.4,0-.1.1-.2.1-.3.2-.4.4-.9.6-1.3a9.22,9.22,0,0,0,.5-.8c.2-.3.4-.5.6-.8s.3-.3.4-.4a20.28,20.28,0,0,1,1.8-1.3,3.13,3.13,0,0,1,1-.5A1.34,1.34,0,0,1,25,56.86Z"/><path class="cls-4" d="M23.17,72.76l.3.3a9.74,9.74,0,0,0,1.1.5c.3.1.8.3,1.2.4a2,2,0,0,0,.8.1.76.76,0,0,0,.1.4,9.23,9.23,0,0,1-4.9-2.5,10,10,0,0,1-2.5-4.9c.1,0,.2-.1.4-.1l.3.9a.76.76,0,0,0,.2.4l.3.9a6.72,6.72,0,0,0,.6,1.2c.1.2.2.3.3.5a6.47,6.47,0,0,0,.8.9l.6.6a.78.78,0,0,0,.4.4Z"/><path class="cls-4" d="M33.17,73.66c0-.1-.1-.2-.1-.3a9.19,9.19,0,0,0,4.6-8.2.76.76,0,0,1,.4.1,6.55,6.55,0,0,1,0,1.4,2.2,2.2,0,0,1-.1.8,13.36,13.36,0,0,1-.7,1.8,9.8,9.8,0,0,1-1.3,2.2,5.81,5.81,0,0,1-1.8,1.7c-.2.2-.5.3-.7.5A.19.19,0,0,0,33.17,73.66Z"/><path class="cls-4" d="M31.87,64.06c-.4-.2-.9-.3-1.3-.5v-.3a10.93,10.93,0,0,0,1.7.5,1.7,1.7,0,0,1,.1.7c0,.2.1.3.1.5a1.73,1.73,0,0,1,.1,1,2,2,0,0,0,.3,1.1.6.6,0,0,1,.1.4.37.37,0,0,1-.1.3c-.1.2-.2.5-.3.7s-.3.7-.5,1c-.1.1-.1.3-.2.4s-.2.3-.4.4c-.1-.2-.1-.4-.2-.5.1-.2.2-.3.3-.5l.6-1.2c.1-.2.1-.3.2-.5v-.3c-.1-.4-.3-.8-.4-1.1v-1.4C31.87,64.66,31.87,64.36,31.87,64.06Z"/><path class="cls-4" d="M26.67,72a13.44,13.44,0,0,0-1.4-1.1.37.37,0,0,1-.1-.3c-.2-.5-.3-.9-.5-1.4v-.1a.76.76,0,0,0,.4-.2c0,.1.1.2.1.3l.3.9a1.39,1.39,0,0,0,.7.8,4.23,4.23,0,0,1,.7.5.52.52,0,0,1,.2.4c0,.5.1.9.1,1.4s.1.9.1,1.3v.1c-.1,0-.3-.1-.4-.1A7.07,7.07,0,0,0,26.67,72Z"/><path class="cls-4" d="M25.87,62.86a1.38,1.38,0,0,1,.9,0v.4a2,2,0,0,0-.7.1c-.1.5-.1.9-.2,1.4,0,.1,0,.2.1.2.3.4.7.8,1,1.2.1.1.1.2.2.3.1.3.2.5.3.8a4.33,4.33,0,0,1,.5.1c.1-.3.2-.5.3-.8.1,0,.2.1.3.1a.37.37,0,0,1-.1.3l-.3.6c0,.1-.1.1-.2.1a1.27,1.27,0,0,1-.6-.1c-.3-.1-.3-.3-.4-.5a11.91,11.91,0,0,0-.9-1.5,5.58,5.58,0,0,1-.5-.8c-.1-.2,0-.4,0-.7A2.66,2.66,0,0,1,25.87,62.86Z"/><path class="cls-4" d="M28.47,61.76V62h-.7a3.7,3.7,0,0,0-.5,1.1c.1.4.3.8.4,1.2,0,.1.1.1.2.2.3.3.6.5.7.9,0,.2.1.4.1.6.2.1.5.2.7.3.1-.1.2-.1.3-.2v.3c-.3.3-.5.3-.7.2a.76.76,0,0,0-.4-.2.55.55,0,0,1-.4-.6,1.9,1.9,0,0,0-.7-1.1,2.19,2.19,0,0,1-.3-.5l-.3-.9c0-.1-.1-.3-.1-.4a.37.37,0,0,1,.1-.3,4.88,4.88,0,0,1,.3-.7.52.52,0,0,1,.4-.2A3.44,3.44,0,0,0,28.47,61.76Z"/><path class="cls-4" d="M25.37,57.06c0-.1-.1-.3-.1-.4a10.64,10.64,0,0,1,6.6.1c0,.1.1.3.1.4a.37.37,0,0,1-.3-.1,3.81,3.81,0,0,0-1-.3,5.85,5.85,0,0,0-1.3-.2h-1.2c-.4,0-.9.1-1.3.1a1.42,1.42,0,0,0-.6.2C26,57,25.67,57,25.37,57.06Z"/><path class="cls-4" d="M22.27,68.16c-.3.4-.6.7-.8,1h-.1a4.33,4.33,0,0,1,.1-.5.76.76,0,0,1,.2-.4,2.19,2.19,0,0,1,.5-.3c.2-.1.3-.1.5-.2s.2-.1.3-.2.2-.3.3-.4.3-.2.4-.3c.3-.2.7-.4,1-.6a4.88,4.88,0,0,0,.7.3c.1.1.1.2.2.3a9.29,9.29,0,0,1,.5,1c.1.1.1.3.2.5-.3,0-.4-.1-.4-.3a3.13,3.13,0,0,1-.5-1c-.1-.1-.2-.2-.2-.3a.37.37,0,0,0-.3.1l-.9.3c-.1.1-.3.2-.3.4a.66.66,0,0,1-.5.4A3,3,0,0,0,22.27,68.16Z"/><path class="cls-4" d="M25.17,67.66c.1,0,.2.1.1.2s-.1.3-.2.4c.2.1.3-.2.6-.2a.22.22,0,0,0,.2.2.71.71,0,0,1-.6.3,4.33,4.33,0,0,0-.5.1.59.59,0,0,1-.7-.1c-.2.1-.5.1-.7.2a2.92,2.92,0,0,0-.9.2c-.1,0-.1.1-.2.1s-.2.3-.4.4-.2.3-.1.5.1.3.2.5c-.1,0-.1,0-.2.1a1.38,1.38,0,0,1-.3-.4c-.1-.1-.1-.5-.1-.6s.1-.3.3-.3.2-.2.2-.3l.2-.2a3.71,3.71,0,0,1,1.5-.4l.6-.9c.1-.1.1-.1.3-.1-.1.3-.2.5-.3.8h.4C24.87,68.26,25,67.86,25.17,67.66Z"/><path class="cls-4" d="M30.17,61.36c-.3-.1-.5-.1-.8-.2-.2.3-.3.5-.5.8a.37.37,0,0,0,.1.3l-.2.2c-.1-.3-.3-.5-.1-.8a.76.76,0,0,0,.2-.5.52.52,0,0,1,.7-.3,1.42,1.42,0,0,1,.6.2c.1,0,.1.1.2.2a7.54,7.54,0,0,1,.6,1.3,2.54,2.54,0,0,1,.2.7v.1c-.2,0-.3-.1-.4-.1A4.67,4.67,0,0,0,30.17,61.36Z"/><path class="cls-4" d="M31.27,62c-.1-.1-.1-.2-.2-.3a2.7,2.7,0,0,1,1.1-.5c.1,0,.2.1.3.1h0a7,7,0,0,1,.8,1,3.18,3.18,0,0,1,.3.9c.1.4-.2.7-.4,1s-.3.3-.5.5a.1.1,0,0,0-.1.1v-.5a4.62,4.62,0,0,1,.7-.7,2.1,2.1,0,0,0-.4-1.1,2.34,2.34,0,0,0-.7-.7.19.19,0,0,0-.3,0A1.42,1.42,0,0,0,31.27,62Z"/><path class="cls-4" d="M30.87,58.76c.1.1.2.3.3.4a1.39,1.39,0,0,0,1.1,1,1.4,1.4,0,0,1,.9.3,1,1,0,0,1,.5.4.92.92,0,0,1-.1,1.1l-.3.3c-.1-.1-.1-.2-.2-.3l.3-.3c.1-.1.2-.2.1-.4-.2,0-.2.1-.3.2s-.1.2-.2.4c-.1-.1-.2-.2-.2-.3.2-.2.2-.5.6-.6-.1-.1-.1-.1-.2-.1a2.84,2.84,0,0,0-1.3-.4c-.4,0-.6-.2-.8-.6a3.18,3.18,0,0,1-.3-.9c0-.1.1-.1.1-.2Z"/><path class="cls-4" d="M27.77,74.66c0-.1-.1-.2-.1-.3h.2c.3,0,.6.1.9.1h1.3c.1,0,.2-.1.4-.1.6-.2,1.2-.3,1.8-.5,0,.1.1.2.1.3a7.94,7.94,0,0,1-2.2.6A9.25,9.25,0,0,1,27.77,74.66Z"/><path class="cls-4" d="M28.87,68.66h-.2a.37.37,0,0,1,.1-.3c.2-.3.3-.6.5-.9s.4-.5.6-.8a3.27,3.27,0,0,1,0-1.4h.4c0,.5-.1.9-.1,1.3.4.3.6.5.5.7a.35.35,0,0,1-.2-.1c-.2-.2-.3-.2-.5,0a9,9,0,0,1-.9,1C29,68.46,29,68.56,28.87,68.66Z"/><path class="cls-4" d="M29,62.46c.1.1.1.2.1.4a2,2,0,0,0,.1,1.3,1.33,1.33,0,0,0,1.1.8h.4c.1,0,.1,0,.2.1-.3.3-.7.2-1,.2a3.13,3.13,0,0,1-1.1-.8,1.14,1.14,0,0,1-.3-.8,2.28,2.28,0,0,1,.3-1.1C28.87,62.56,28.87,62.56,29,62.46Z"/><path class="cls-4" d="M32.87,73.76c-.2.1-.3.1-.4.2,0-.1-.1-.3-.1-.4a4.1,4.1,0,0,1-.1-1.1.37.37,0,0,0-.1-.3c-.1-.3-.3-.7-.4-1a4.33,4.33,0,0,1-.1-.5c.1-.1.1-.2.3-.3v.1a2.84,2.84,0,0,1,.4,1.3c0,.1.1.3.1.4.1.3.1.7.2,1A4.17,4.17,0,0,0,32.87,73.76Z"/><path class="cls-4" d="M33.77,62.46h-.2c0-.1-.1-.1-.1-.2a2.65,2.65,0,0,0,.5-.6.37.37,0,0,0,.1-.3,1.69,1.69,0,0,0-.3-1,2.51,2.51,0,0,0-.7-.4,1.27,1.27,0,0,0-.6-.1,2.07,2.07,0,0,1-1-.6.31.31,0,0,0-.1-.2h0a.76.76,0,0,0,.4.2,1.33,1.33,0,0,0,.8.3c.2,0,.4.1.7.1.1,0,.2.1.3.1a2,2,0,0,1,.8,1,.88.88,0,0,1-.1.7A1.54,1.54,0,0,1,33.77,62.46Z"/><path class="cls-4" d="M30.37,64.26c-.1.1-.2,0-.3-.1l-.8-.8a.35.35,0,0,1-.1-.2,2.2,2.2,0,0,0-.1-.8c.1,0,.1-.1.2-.1a.55.55,0,0,1,.3.5v.6a2.65,2.65,0,0,0,.6.5h0v-.6c-.1-.1-.3-.2-.4-.4a.37.37,0,0,1-.1-.3,2,2,0,0,1,.7.6c.1.1,0,.2.1.3A2,2,0,0,1,30.37,64.26Z"/><path class="cls-4" d="M35,65.36c.1.3-.2.5-.2.8,0-.1.1-.1.1-.2l.1.1c0,.4.3.5.5.8s.1.4.2.6v.1c-.2,0-.6-.5-.8-1l-.1.1h-.2A.92.92,0,0,1,35,65.36Z"/><path class="cls-4" d="M33.77,57.46l.2.2a5.27,5.27,0,0,0,.3,1.2c.2.4.3.9.5,1.3a2.77,2.77,0,0,1,.1.9h-.3v-.3a1.79,1.79,0,0,0-.4-1.4,3.55,3.55,0,0,0-.4-.9c0-.1-.1-.2-.1-.3l-.2-.2c0-.1-.1-.2-.1-.4.1,0,.1.1.2.1S33.67,57.56,33.77,57.46Z"/><path class="cls-4" d="M25.47,64.56a.37.37,0,0,0,.1.3c-.2.1-.4.1-.6.2-.1.3-.3.6-.4.9a.55.55,0,0,1-.5.3v-.4c.1-.3.2-.5.3-.8s.3-.4.6-.5A.45.45,0,0,0,25.47,64.56Z"/><path class="cls-4" d="M35.47,59c.3.4.5.7.8,1.1a1.21,1.21,0,0,1-.5.5v-.3c-.2.2-.2.4-.3.5l-.2.2a1.5,1.5,0,0,1,.4-1.1c-.1-.2-.3-.4-.4-.6S35.37,59.06,35.47,59Z"/><path class="cls-4" d="M29.07,57.76c0-.1-.1-.2-.1-.3.2,0,.3,0,.4.1,0-.2-.2-.4,0-.5.1.1.2.2.3.2a4.35,4.35,0,0,1,.6.7c0,.1.1.2,0,.3-.2-.3-.3-.6-.7-.8.1.1.1.2.2.4h0a.37.37,0,0,1-.3-.1c0,.1.1.1.2.2h-.3c-.3,0-.7-.1-1-.1,0-.1,0-.1-.1-.2C28.57,57.66,28.77,57.76,29.07,57.76Z"/><path class="cls-4" d="M36.67,57.76c.3.1.3.3.3.9.1,0,.2-.1.3-.1s.2-.1.3-.1v.1c-.1.2-.3.4-.5.7h.4c-.3.3-.9.7-1.2.6.1-.3.4-.3.6-.5v-.2c0-.1.1-.1.1-.2h0c-.1.1-.2.1-.3.2h-.1A1.72,1.72,0,0,0,36.67,57.76Z"/><path class="cls-4" d="M38.07,62.06c-.1.2-.3.1-.5.3v.1h0c-.2,0-.4-.1-.6-.1v-.1c.1,0,.1,0,.2-.1h-.4v-.1c-.1,0-.2.1-.3.1h-.3a4.33,4.33,0,0,1-.5-.1,4.51,4.51,0,0,1,1.1-.3v.1H37v-.2a1.09,1.09,0,0,0,.5-.1l.1.1h0V62A.75.75,0,0,0,38.07,62.06Z"/><path class="cls-4" d="M37.27,65.86h-.7c0,.1.1.3.1.4h-.4a2.18,2.18,0,0,0-.4-.5.92.92,0,0,1-.2-1c0-.1.1-.2.1-.4a.37.37,0,0,1,.1.3,1.59,1.59,0,0,0,.4,1.2c0-.1-.1-.2-.2-.3a.35.35,0,0,0,.2-.1,3,3,0,0,1,1,.4Z"/><path class="cls-4" d="M35.67,64.26l-.2.2c-.3.1-.4,0-.5-.2a1.06,1.06,0,0,1-.1-.8c.1-.2-.1-.3-.2-.4s-.2-.1-.4-.1-.2.1-.3.1-.1,0-.2.1c0-.1-.1-.2-.1-.3.3-.1.5-.1.8-.2s.4,0,.5.3a1.27,1.27,0,0,1,.1.6v.3c0,.3.1.3.4.3a.31.31,0,0,1,.2.1Z"/><path class="cls-4" d="M34.37,60.76a.91.91,0,0,1-.3-.7.86.86,0,0,0-.3-.6,2.11,2.11,0,0,1-.4-1c0-.1.1-.3.1-.4h.1c0,.1.1.2.1.4a5.39,5.39,0,0,0,.3,1,2.28,2.28,0,0,1,.3,1.1A.31.31,0,0,1,34.37,60.76Z"/><path class="cls-4" d="M37.27,62.76c-.1,0-.3-.1-.4-.1v.2a1.72,1.72,0,0,1-1.4-.8h.4c.2.2.3.5.6.5v-.2c.4.1.8.1,1.3.2a.1.1,0,0,1-.1.1c0,.1.1.2.1.3-.2,0-.3.1-.4.1A.49.49,0,0,0,37.27,62.76Z"/><path class="cls-4" d="M34.37,64.46l.1.1c-.1.1-.2.1-.2.2l.2.2c-.1.2-.1.5-.2.8-.1.1-.2.3-.4.3.1-.3.1-.6.2-.8h-.2c0-.3.3-.4.4-.6-.1,0-.1-.1-.2-.1a1.27,1.27,0,0,1,.6-.4h0C34.47,64.16,34.47,64.26,34.37,64.46Z"/><path class="cls-4" d="M32.27,54.16h.1c0,.3-.1.5-.1.8h-.1v-.4H32c0-.2.1-.5.1-.7H32a.37.37,0,0,0-.1-.3c-.1,0-.1.1-.2.1,0-.4-.1-.7-.1-1.1.2,0,.2.2.2.3v.3c.2-.1.2-.3.4-.2-.1.2-.1.4-.2.6.2,0,.3-.1.4-.1a1.48,1.48,0,0,1-.1.7Z"/><path class="cls-4" d="M37.37,64.36c0-.2.1-.2.3-.1.2-.2.5-.1.7,0-.1.1-.3.1-.4.2s.1.3.1.4a2.35,2.35,0,0,1-.8-.2V65a1.18,1.18,0,0,1-.9-.9h.2c.1.2.2.5.4.6v-.3c.3,0,.4.3.6.2C37.47,64.46,37.47,64.36,37.37,64.36Z"/><path class="cls-4" d="M37.27,63.86h-.9c.2-.2.4-.3.6-.5v-.1a.1.1,0,0,1,.1.1v.2c.3,0,.6-.2.9-.1a.22.22,0,1,0,.2.4v.2A1.64,1.64,0,0,1,37.27,63.86Z"/><path class="cls-4" d="M29.07,60.16h-.3c0-.2.2-.1.3-.2s.2-.1.3-.2l-.3-.3v-.1c.2,0,.5-.1.7-.1,0-.1-.1-.2-.1-.4a2.92,2.92,0,0,1,.9.2c-.1.1-.2.2-.3.2a.37.37,0,0,1-.3-.1v.2c-.2.1-.4.1-.6.2.1,0,.2.1.3.1s0,.1-.1.2a.91.91,0,0,0-.5.3Z"/><path class="cls-4" d="M34,57.46c0-.5.4-.8.7-1.2a.1.1,0,0,1,.1.1c-.1.1-.1.3-.2.4h0c.1-.1.3-.1.4-.2s.4-.3.6-.4h.2a1,1,0,0,1-.4.5,9.29,9.29,0,0,1-1,.5l-.1-.1C34.27,57.26,34.17,57.36,34,57.46Z"/><path class="cls-4" d="M31,57.66h-.2l.3.6v.1c.1.1.4.1.4.4a.1.1,0,0,0-.1.1,4.35,4.35,0,0,0-.7-.4c0-.1-.1-.2-.1-.3s.1-.1.2-.1-.1-.3-.1-.4-.1-.3,0-.4.2.1.3.1v-.3C31,57.26,30.87,57.46,31,57.66Z"/><path class="cls-4" d="M34.47,61.46c.5.2,1,0,1.5.1-.4.4-.8.2-1.2.3a2.09,2.09,0,0,1-.4.6H34A9.25,9.25,0,0,0,34.47,61.46Z"/><path class="cls-4" d="M33.47,54.36c-.1,0-.1.1-.3.2-.1-.3-.4-.5-.5-.9h.2a2.19,2.19,0,0,0,.3.5c.2,0,.2-.3.4-.4a.37.37,0,0,1,.1.3v.4c0,.1,0,.1-.1.2l-.6.9a.84.84,0,0,1,.2-.7c.3-.1.3-.3.3-.5Z"/><path class="cls-4" d="M37.67,59.86a.78.78,0,0,1,.4-.4l.6-.3h-.4a1.43,1.43,0,0,0,.3-1.1c.1,0,.1,0,.2.1,0,.3-.1.5-.1.8.1.1.3-.1.4.1A2.25,2.25,0,0,1,37.67,59.86Z"/><path class="cls-4" d="M34.07,58c.1.1.3.2.5.4a.52.52,0,0,0,.2-.4l.2.2a1.38,1.38,0,0,0,.3-.4c.1.2,0,.4-.2.6h-.2v.5a.52.52,0,0,1-.2.4v-.4a1.59,1.59,0,0,1-.6-.9Z"/><path class="cls-4" d="M30.27,54.66c.1.3.3.4.6.5.1.1.1.3.2.4-.2.1-.4-.1-.5-.2l-.3-.3c-.1-.1-.2-.3-.3-.4.1-.1.2-.2.3-.2v-.6h0a.75.75,0,0,1,.1.5c0,.2.1.3.1.5C30.47,54.86,30.37,54.66,30.27,54.66Z"/><path class="cls-4" d="M34.67,54.36c.2.1,0,.3.1.4a1.09,1.09,0,0,0,.1.5c.2-.1.3-.2.5-.3v.1c-.1.3-.2.5-.3.8a.92.92,0,0,1-.6.4v-.2a2.65,2.65,0,0,0,.5-.6h0c-.1,0-.2.1-.3.1C34.67,55.16,34.47,54.76,34.67,54.36Z"/><path class="cls-4" d="M34,54.26c.1-.1.1,0,.2.1s.2.3.2.5h0v.3h-.1v.3h-.2a.37.37,0,0,1-.1.3,1.38,1.38,0,0,1,.3.4.31.31,0,0,1-.1.2c-.2-.3-.4-.5-.5-.7s0-.1,0-.2a.35.35,0,0,0,.2.1c.1-.2,0-.3,0-.5h0l.2.2A1.55,1.55,0,0,0,34,54.26Z"/><path class="cls-4" d="M36.17,57.86a.1.1,0,0,1-.1.1c-.1.2-.3.3-.4.5a1.21,1.21,0,0,1-.5.5c-.1.1-.3.2-.4.3,0-.2.2-.3.3-.4l.3-.3c.1-.1.1-.1.1-.3-.1,0-.1.1-.2.1v-.1a2,2,0,0,0,.1-.8.27.27,0,0,1,.3-.3c-.1.2-.1.5-.2.7C35.77,58.06,35.87,57.86,36.17,57.86Z"/><path class="cls-4" d="M32.07,55.16c-.2-.1-.3-.3-.5-.4s-.1-.2-.2-.3-.2-.3-.2-.5v-.2c.1,0,.1,0,.2.1,0-.3-.1-.6.1-.9.1.4.1.8.2,1.3a.35.35,0,0,1-.2-.1c0,.1.1.2.2.3a.72.72,0,0,1,.4.7Z"/><path class="cls-4" d="M35.07,57.16h-.2V57c.2-.2.4-.1.7-.2,0,.3-.2.5-.5.7v.1c-.4.3-.8.1-1.2.1l.2-.2h.1c.2.2.4,0,.6-.1s.3-.1.3-.2Z"/><path class="cls-4" d="M37.67,58.56c.1,0,.1.1.2.1.2-.2,0-.5.2-.8.1.1.2.3.3.4h.1c.1.1,0,.3-.2.4h-.2a.35.35,0,0,1-.1.2h-.2c-.1.3,0,.6-.3.8a4.25,4.25,0,0,1,.2-1.1Z"/><path class="cls-4" d="M35.47,65.86c-.1-.1-.3-.2-.4-.3v-.2c.4.1.7.4.7.6-.1,0-.2.1-.3.1l.3.3.3.3c-.3.1-.4-.1-.6,0,0-.1-.1-.1-.1-.2h.2l-.3-.3V66C35.37,66,35.37,66,35.47,65.86Z"/><path class="cls-4" d="M36.17,59.76a1.19,1.19,0,0,1,.2-1.6.1.1,0,0,0,.1.1l.3-.3c.2.3-.1.5-.1.8h-.2a1.06,1.06,0,0,0-.1.8Z"/><path class="cls-4" d="M32.67,58.56c0-.1.1-.1.1-.2.3.2.2.8,0,1.1-.1-.1-.1-.1-.1-.3a.76.76,0,0,1,.1-.4c-.1,0-.1.1-.2.1s-.1-.2-.1-.3c-.1.1-.1.2-.2.2-.2-.3-.4-.5-.6-.8.2-.1.2.1.3.1l.3.3c0-.1.1-.1.1-.2C32.67,58.16,32.57,58.46,32.67,58.56Z"/><path class="cls-4" d="M32.47,56a.76.76,0,0,0-.1-.4.35.35,0,0,1-.2.1.68.68,0,0,0-.6-.4c0-.1-.1-.2,0-.3.2.2.4.3.6.5l.3-.3h0v.4h.2a1.64,1.64,0,0,1-.1,1,.1.1,0,0,0-.1-.1c0-.2.1-.4.1-.6Z"/><path class="cls-4" d="M36.47,65.26c0-.1.1-.1.1-.2s-.3-.1-.5-.2l.2-.2c-.1,0-.2-.1-.3-.1s-.1-.2-.1-.3a6.89,6.89,0,0,1,.8.3v.2a.35.35,0,0,0-.2.1V65c.2,0,.4.1.6.1,0,.2-.2.2-.3.3l.3.3A2.09,2.09,0,0,1,36.47,65.26Z"/><path class="cls-4" d="M33,56.06l.2.2c0-.1.1-.3.1-.4s0-.3.2-.3v.8h-.1c0,.1-.1.2-.1.3s.3.5.4.7h0c-.1,0-.1,0-.2-.1a1.37,1.37,0,0,1-.5-.8v-.4Z"/><path class="cls-4" d="M36.87,60.16c.1.1.2.1.3.2.2-.1.1-.4.2-.6.1,0,.3.2.3.5h.2c-.1.1-.2.1-.3.2a.37.37,0,0,1-.1-.3c-.1.2-.1.3-.2.5a.37.37,0,0,0-.3-.1c-.1.2-.1.3-.2.5s-.2.1-.3.2A4.87,4.87,0,0,1,36.87,60.16Z"/><path class="cls-4" d="M31.87,56.16c-.1-.1-.3-.3-.2-.5.1,0,.1.1.2.1s-.1-.2-.1-.3a.46.46,0,0,1,.4.5H32c.1.1.3.1.4.2h0c-.1,0-.1.1-.2.1.1,0,.3.1.4.1s.1.2.2.3c-.4,0-.7-.3-1-.4v-.1C31.67,56.26,31.77,56.26,31.87,56.16Z"/><path class="cls-4" d="M30.87,57c.2,0,.2,0,.5.6l.2-.2c.3.3.2,1.3-.1,1.4-.1-.3.1-.5,0-.8a.35.35,0,0,0-.2.1l-.2-.2h0C31,57.46,31,57.26,30.87,57Z"/><path class="cls-4" d="M30.27,53.66h.1l.3.6c.3-.2.3-.2.4-.2v.6c.1,0,.2.1.4.1v.1l-.3.3v.3l-.2-.2c0-.1.1-.2.1-.3-.3,0-.2-.3-.2-.4h0c0,.1,0,.1-.1.2h-.1A2.82,2.82,0,0,0,30.27,53.66Z"/><path class="cls-4" d="M29.57,58.76c-.1-.1-.1-.1-.2-.1s-.5.1-.7-.1l.2-.2c-.1-.1-.3-.1-.4-.2v-.1a2,2,0,0,1,.7.1v.3c.1,0,.1,0,.3-.1s.1.1.2.1.3-.1.5-.2v.2A1.63,1.63,0,0,1,29.57,58.76Z"/><path class="cls-4" d="M36.47,61.36c.1-.1.3-.1.4-.2s.3-.1.5-.1h0a.1.1,0,0,1-.1-.1c.1-.3.7-.7.8-.6-.1.2-.3.3-.4.5a.37.37,0,0,1,.3.1c0,.1,0,.1-.1.2a3,3,0,0,1-1.4.2Z"/><path class="cls-4" d="M34.57,62.36c0-.1.1-.1.1-.2.3.2.6.3.6.7a2.92,2.92,0,0,0,.2.9c0,.1.1.1.1.2s.2-.1.3.1a.46.46,0,0,1-.7-.3v-.5c0-.4-.1-.6-.5-.7C34.67,62.46,34.67,62.36,34.57,62.36Z"/><path class="cls-4" d="M36.47,60.86l-1.2.3v-.1a.35.35,0,0,0,.2-.1c.2,0,.4-.1.6-.1s.1-.1.2-.1v-.1h-.2l-.1-.1.5-.5h0c0,.1-.1.1-.1.2s.2.3.3.4C36.57,60.76,36.47,60.76,36.47,60.86Z"/><path class="cls-4" d="M34.67,65.06v-.3c.1,0,.1,0,.2-.1s-.1-.3-.1-.4h0c0-.1,0-.1.1-.2l.1.1.3.6c0,.1,0,.1.1.3-.1,0-.2-.1-.3-.1v.2h0c-.1.1-.2.1-.3.2h-.2C34.47,65.16,34.47,65.16,34.67,65.06Z"/><path class="cls-4" d="M32.17,57.76c.1,0,.2-.1.3-.1s-.1-.1-.1-.2a.37.37,0,0,1,.3.1c.1.1.1.2.2.3a.1.1,0,0,1-.1.1c.1.1.2.1.3.2,0-.1,0-.2.1-.2s.2.1.2.2v.2c-.3.2-.6.1-1-.3,0-.2-.1-.2-.2-.3Z"/><path class="cls-4" d="M35.67,62.86c0-.1-.1-.1-.1-.2.4,0,1,.1,1.1.3-.1.1-.2.1-.4.2.1.1.2.2.3.2-.1.2-.2.3-.3.2l-.3-.3v-.1c.1,0,.1-.1.2-.1C36,63,35.87,63,35.67,62.86Z"/><path class="cls-4" d="M32.57,59.66a.55.55,0,0,1-.5-.2l-.6-.6c.1-.1.2-.1.4-.2v-.3l.2.2V59c-.1,0-.1.1-.2.1a1.61,1.61,0,0,0,.7.4Z"/><path class="cls-4" d="M32.27,57c.1,0,.2.1.3.1v-.2c.1-.1.3,0,.4,0a.81.81,0,0,1,.4.8c-.1-.1-.1-.1-.2-.1-.1-.3-.1-.3-.4-.4,0,.1.1.2.1.3s-.1,0-.2-.1-.2-.1-.3-.1S32.27,57.16,32.27,57Z"/><path class="cls-4" d="M26.57,68.36v-.2h0c.2,0,.4-.1.4-.3s.1-.2.2-.3c.1.1.2.1.3.2C27.17,68.26,27,68.46,26.57,68.36Z"/><path class="cls-4" d="M30.57,59.36h.2a1.8,1.8,0,0,1-.6.9c-.1.1-.2.1-.4.1v-.3a.6.6,0,0,0-.4.1v-.1c.2-.1.5-.2.7-.3V60C30.37,59.86,30.37,59.56,30.57,59.36Z"/><path class="cls-4" d="M34.47,61.26c0-.1,0-.1.1-.2H35a3.08,3.08,0,0,0,1,.1h.2c0,.1,0,.2-.1.2A2.92,2.92,0,0,1,34.47,61.26Z"/><path class="cls-4" d="M32.47,54.76h.3c-.1-.2-.2-.3-.2-.5s.1-.1.2.1a.1.1,0,0,1,.1-.1c.1,0,.1.2.1.4s.1.2.1.4c-.1,0-.1.1-.2.1s.1.3.1.4h-.1C32.67,55.26,32.67,55.06,32.47,54.76Z"/><path class="cls-4" d="M35.77,63.86a3.54,3.54,0,0,1-.3-1.1c.3.2.3.6.4.9,0-.1,0-.1.1-.2s.1.1.2.1v.3Z"/><path class="cls-4" d="M34,56.06a2.54,2.54,0,0,1-.2,1.2h0c-.1-.1-.1-.2-.2-.4.1-.2.1-.3.2-.5-.1,0-.1,0-.2.1v-.2C33.67,56.16,33.87,56.16,34,56.06Z"/><path class="cls-2" d="M78.27,97H78a.93.93,0,0,1-.9-.7c-.2-1.2-.7-4.7-1.5-10.4a208.67,208.67,0,0,1-2.4-29.2,37.68,37.68,0,0,1,.4-6.3c.1-1,.4-1.6.8-1.6.2,0,.3.2.3.7l-.1,1.6-.1,1.8q0,3.15.3,8.4c.2,3.6.4,6.7.7,9.5.4,4.5,1.3,11.7,2.6,21.5.3,2.4.5,3.8.5,4.1S78.47,97,78.27,97Zm23.8,10.9a1.22,1.22,0,0,1-.9-.4c-.4-.2-.8-1.1-1.3-2.6a24.55,24.55,0,0,1-1-4.7,7.52,7.52,0,0,0-.3-1.5c-.1-.3-.3-.4-.7-.4a5.07,5.07,0,0,0-.9.2,3.12,3.12,0,0,0-1.3.6,8.17,8.17,0,0,0,.1,1.4,17.46,17.46,0,0,0,.7,3.3l.1.3c0,.3-.2.4-.5.4a1.87,1.87,0,0,1-1-.5,3.78,3.78,0,0,0-1.9-.7,3.05,3.05,0,0,1-1.9-.8.75.75,0,0,0-.7-.4c-.3,0-1,.5-2.3,1.6a11.53,11.53,0,0,0-2.5,2.6.84.84,0,0,1-.7.7q-1.2,0-1.2-.6c0-.6.8-1.6,2.5-3.1a22.17,22.17,0,0,0,1.7-1.8,1.46,1.46,0,0,0,.5-.8c0-.1-.1-.2-.3-.5a2.39,2.39,0,0,0-1.3-.7,9.41,9.41,0,0,1-2.2-1.2c-1.7-1.1-2.9-3.3-3.6-6.5-.2-.9-.4-2.4-.7-4.5-.7-4.7-1.1-8.6-1.3-11.5-.3-4.1-.7-6.5-1.2-7.1-.3-.3-.4-.5-.4-.7s-.2-.5-.6-1a5.58,5.58,0,0,1-1-3.5,4.24,4.24,0,0,1,.7-2.9,9,9,0,0,1,1.7-1.3l.2-4.3c.3-9.4.9-18.1,1.7-26.2.2-1.9.3-3.3.3-4.1a6.45,6.45,0,0,0-.3-2,5.15,5.15,0,0,0-1-2,6.71,6.71,0,0,1-1.7-5,7.48,7.48,0,0,1,.2-2.3,26.62,26.62,0,0,1,2.6-.9,16,16,0,0,0,2.9-1.1,3.1,3.1,0,0,1,1.6-.4,18.86,18.86,0,0,0,3.2-.4,71.65,71.65,0,0,1,9.3-1.2c3.9-.3,7.1-.5,9.9-.5a18.48,18.48,0,0,1,4.3.3,3.51,3.51,0,0,1,.8.5c.2.3.6.7,1,1.3a11.75,11.75,0,0,1,1.7,3,12.29,12.29,0,0,0,.9,2.2c.3.5.5.8.6.8a.35.35,0,0,0,.1-.2,11.93,11.93,0,0,0,.1-1.5l.1-7.3-1.5.1a84.43,84.43,0,0,0-10.8-.4c-3.6,0-6.6.1-8.9.3s-4,.3-5,.3-1.3-.1-1.3-.4,1.5-.9,4.4-1.3a71.6,71.6,0,0,1,10.2-.9c.9,0,1.8-.1,2.7-.1,2.2,0,4.3.1,6.3.2a17.72,17.72,0,0,1,4,.6c.3,0,.5-.5.6-1.6s.3-1.6.5-1.6.5.6.5,1.8v1.6c2.1.7,3.3,1.1,3.8,1.3a.93.93,0,0,1,.7.9c0,.4-.1.7-.3.7l-.3-.1a19,19,0,0,0-2.7-.7,5.38,5.38,0,0,0-1.1-.1,12.58,12.58,0,0,0-.1,1.6c-.3,4.3-.5,8.1-.5,11.3l.5,2.4a10.87,10.87,0,0,1,.1,1.8c0,.1-.3.2-.7.3s-2,.1-4.7.1a111.49,111.49,0,0,0-16.6,1.4,82.64,82.64,0,0,0-1.1,8.2c-1,10-1.6,16-1.6,18.1,0,.2,0,.3.1.4a23.42,23.42,0,0,0,2.9-.6l.2-3.9c.2-4.3.7-10.5,1.4-18.5l.1-.7c0-.4-.1-.7-.2-.7s-.3.4-.6,1.2l-.1.4a4.65,4.65,0,0,1-.3.9c-.1.2-.1.4-.2.5l-.1.1c-.1,0-.1-.1-.1-.2a12.83,12.83,0,0,1,.6-2.5c.4-1.3.6-2,.8-2.1s.4.1.7.4.4.9.4,2c0,4-.3,9.2-.8,15.4-.3,3.6-.5,6-.5,7.4l3.5-.6a33.18,33.18,0,0,1,4.3-.5,9.54,9.54,0,0,0,3.3-.5,1.32,1.32,0,0,0,.7-1c.1-.5.3-.8.6-.8s.4.2.7.7v.1a1.38,1.38,0,0,0,.3.4.75.75,0,0,0,.5.1,27.51,27.51,0,0,0,2.9-.3,2.22,2.22,0,0,1,.9-.1c.3,0,.4.1.4.2v.3c0,.3-.7.7-2.2,1l-2.2.6c0,.5.1,1.5.2,3,.4,4.4.6,6.9.7,7.6s.2,1.1.4,1.2a.54.54,0,0,1,.3.4.52.52,0,0,1-.2.4.76.76,0,0,1-.4.2c-.2,0-.3,0-.4.1s-.1.2-.1.4a3.44,3.44,0,0,0,.1.9,3.75,3.75,0,0,1,.1,1,.78.78,0,0,1-.3.7c-.2.1-2.1.5-5.8,1.2-3,.6-5.8,1.1-8.2,1.7a24.64,24.64,0,0,0-4.5,1.3c-.2.1-.3.5-.3,1.4s.1,2.7.2,5.1.3,5,.6,7.7c.5,6.3,1,9.6,1.3,10.1a18,18,0,0,0,2.7-.3l-.2-1.2a86.17,86.17,0,0,1-1-12.2c0-1.8,0-3.2.1-4.2a4.6,4.6,0,0,1,.3-2c.1-.3.3-.5.5-.5s.4.4.6,1.2.2,2.8.4,5.9c.1,1.4.2,3.2.5,5.2a68.64,68.64,0,0,0,1,8.1,8.11,8.11,0,0,0,1.1.3q.75.15.9.6c0,.3-.2.5-.7.5l-1.5-.2c.9,5.3,1.6,8.2,2,8.7a.54.54,0,0,1,.3.4Q102.67,107.86,102.07,107.86Zm8.2-48.1a1.21,1.21,0,0,0,.1-.5v-1.8c0-2.4-.1-3.7-.3-4a.68.68,0,0,0-.6-.4l-.7.1c-.7.1-1.1.2-1.3.2s-.3.1-.3.2a2.34,2.34,0,0,0,.7,1.3,5.12,5.12,0,0,1,1,2.1,9.17,9.17,0,0,0,.9,2.3C110,59.66,110.17,59.76,110.27,59.76Z"/><path class="cls-2" d="M138.67,114a1.19,1.19,0,0,1-.9-.5,1.76,1.76,0,0,0-.4-.5c-.2-.1-.3-.2-.4-.2a.71.71,0,0,1-.6-.6.37.37,0,0,1,.1-.3c.1-.1.1-.3.1-.8s-.1-1.4-.2-2.6a20.85,20.85,0,0,0-.4-2.6c-.2-.5-.4-.9-.7-1a1.74,1.74,0,0,0-1.1-.6.67.67,0,0,1-.7-.4,30.63,30.63,0,0,1-.9-4.3c-.4-2.6-.9-5.5-1.3-8.8-.3-1.8-.5-2.8-.9-3-1.1-1.4-2.6-9.9-4.5-25.8a247.35,247.35,0,0,1-1.2-24.9,165.9,165.9,0,0,1,1.2-21.5c-.5.2-.9.4-1.4.6a10.91,10.91,0,0,0-1.1.6c-.3.2-.6.3-.7.5s-.3.2-.5.2c-.4,0-.6-.1-.6-.4s.9-1,2.6-2a8.92,8.92,0,0,0,2.2-1.6c.1-.3.2-.4.5-.4.1,0,.2,0,.2.1s.2.1.3.1a7.32,7.32,0,0,0,2.5-.7c.7-.3,1.7-.6,3-1l5.6-1.6a30.14,30.14,0,0,0,3.5-1.1.35.35,0,0,0,.1-.2,5,5,0,0,0-.4-1.6,9,9,0,0,1-.4-1.6.37.37,0,0,1,.1-.3c.2,0,.4.2.6.7a13.78,13.78,0,0,1,.6,1.6,4.65,4.65,0,0,0,.3.9c.1.2.4.3.8.3a13.83,13.83,0,0,0,2.8-.4c1.4-.3,2.8-.5,4.3-.7a28.66,28.66,0,0,1,3.6-.3,6.25,6.25,0,0,1,1.8.2.76.76,0,0,1,.2.5,2.87,2.87,0,0,1-.2,1.2c-.1.2-.5.3-1.1.3,0-.1.1-.2.2-.5a.65.65,0,0,0,.2-.5l-.1-.1a47.6,47.6,0,0,0-6.3.8,30,30,0,0,0-5.3,1.2,15.7,15.7,0,0,0,.7,2.3l.1.5a3.53,3.53,0,0,0,.5,1.2.75.75,0,0,0,.7.4,6.43,6.43,0,0,0,2.4-.7l2-.5a11.27,11.27,0,0,1,2.4-.5c.6,0,.9.2.9.7l-.1.7q0,1.8,2.1,7.8c1.4,3.9,3.2,8.4,5.3,13.3,2.8,6.8,5.6,12.8,8.3,18.1a10,10,0,0,0,1.4,2.4.35.35,0,0,0,.1-.2,105.8,105.8,0,0,1-.6-11.7c-.1-5.1-.2-9.9-.2-14.5,0-6.2-.1-9.4-.2-9.4h-.7c-.3,0-.7.1-1.1.1a3.44,3.44,0,0,1-.9.1c-.8,0-1.2-.2-1.2-.5s.6-.4,1.7-.7a7.17,7.17,0,0,0,2.5-1c.2-.2.2-.5.2-.9s.1-.6.3-.6a.31.31,0,0,1,.2.1c.1,0,.2.1.3.1a.35.35,0,0,1,.2.1.44.44,0,0,1,.1.3v.3c0,.2.1.3.2.3a28.06,28.06,0,0,0,3.1-.9,7.53,7.53,0,0,0,2-.9c0-.1.1-.3.4-.7.1-.3.4-.4.8-.5a9.1,9.1,0,0,1,2.1-.2,41.88,41.88,0,0,0,6.7-1,51.07,51.07,0,0,1,10.5-1.5c3,0,5,.8,6.1,2.3a3.23,3.23,0,0,1,.6,1.8,2.11,2.11,0,0,1-.5,1.3c-.2.3-.4.4-.5.4a.35.35,0,0,1-.1-.2,5.07,5.07,0,0,1,.2-.9,1.83,1.83,0,0,0,.2-.9,1.33,1.33,0,0,0-.3-.7c-.9-.9-2.8-1.4-5.6-1.4a33.74,33.74,0,0,0-6.6.7c-2.1.4-3.4.7-3.8.7-.1,0-.1.1-.1.3s.4.4,1.1.5a6.26,6.26,0,0,1,2.2.7,5.23,5.23,0,0,0,1.5.7,2,2,0,0,1,.8.4,1,1,0,0,0,.8.3,1.38,1.38,0,0,1,.9.5.55.55,0,0,1,.3.5,3.63,3.63,0,0,1-.3,1.1,112.22,112.22,0,0,0-1.8,11.5c-.8,6.2-1.5,12.6-2.1,19-.3,4.5-.5,11.7-.5,21.9s.2,17.2.5,21.1l.5,4.3a1.6,1.6,0,0,0,.2,1c.1.1.3.1.6.1a4.48,4.48,0,0,0,1.1-.1c.4,0,.8-.1,1.1-.1a.85.85,0,0,0,.6-.2c.1-.1.1-.3.1-.6,0-.7-.1-2.1-.3-3.9-.3-3.4-.6-6.7-.8-10.1-.2-3.9-.3-10.3-.3-19,0-3.8,0-7.3.1-10.6s.1-5.8.2-7.5.3-3.8.5-5.9.3-3.9.5-5.4.3-2.3.3-2.4a.1.1,0,0,1,.1-.1c.1,0,.2.1.4.2s.2.6.2,1.5-.1,2.7-.2,5.2q-.3,7.05-.3,17.4,0,21.75,1.2,41.4l.8.1c.9,0,1.4.6,1.6,1.7l.1.5c0,.4-.2.6-.7.6a.76.76,0,0,1-.5-.2,1.38,1.38,0,0,0-.4-.3.6.6,0,0,0-.4-.1c-.1,0-.2.2-.2.5a16.61,16.61,0,0,0,.5,2.8,3.44,3.44,0,0,1,.1.9c0,.4-.2.7-.5.7s-.5-.2-.8-.7a4.78,4.78,0,0,1-.5-1.9,9.11,9.11,0,0,0-.3-1.6.79.79,0,0,0-.8-.5,23.42,23.42,0,0,0-2.9.6l.2,1.4a6.37,6.37,0,0,0,.5,2.1,2.42,2.42,0,0,1,.4,1.3q0,1.2-.9,1.2a1.42,1.42,0,0,1-.6-.2,1.45,1.45,0,0,0-.7-.2,6.53,6.53,0,0,0-1.1.2,3.4,3.4,0,0,1-1.4.2.9.9,0,0,1-.5-.1,31.93,31.93,0,0,0-6.5-1.1,7.08,7.08,0,0,1-1.4-.1c-.5-.1-.8-.1-1.1-.2a2,2,0,0,0-.7-.1,1.93,1.93,0,0,0-1,.3,5.2,5.2,0,0,1-.5.3.35.35,0,0,0,.2.1.37.37,0,0,1,.3.1c.1.1.1.1.1.2s-.4.4-1.2.7a18.2,18.2,0,0,1-4.4,1.2.71.71,0,0,1-.6-.3c-.1-.2-.2-.3-.2-.5,0-.5.8-1.3,2.5-2.2l.5-.3c1.3-.8,1.9-1.3,1.9-1.5s-.1-.2-.2-.3c-.6-.6-1.1-3.1-1.6-7.7l-.5-3.5-1.9-2a70.11,70.11,0,0,1-7.7-10.3c-2-3.4-4.2-7.1-6.5-11.3s-4-7.4-5-9.6l-.1-.1c-.4-1.1-.7-1.6-.9-1.6s-.1.2-.1.6c0,1,.2,3.7.7,7.9,0,.1.1.2.1.3.5,4.7,1,9,1.6,12.8s1.5,8.2,2.6,13.1l1.3,6,.9.3c.7.3,1,.7,1,1s-.2.5-.7.7-.7.3-.7.6a2,2,0,0,1,.2.9,5,5,0,0,0,.2,1.2,4.14,4.14,0,0,1,.1,1c0,.5-.2.8-.5.9a1.08,1.08,0,0,1-.7.2c-.6,0-1-.8-1.4-2.5-.2-.6-.4-1.1-.6-1.6s-.3-.7-.4-.7c-.4,0-3.3,2.2-8.6,6.5A38.5,38.5,0,0,1,139,112a5.35,5.35,0,0,0-1.2.7.54.54,0,0,0-.3.4.1.1,0,0,0,.1.1.35.35,0,0,1,.1.2c0,.1.1.1.2.1a.76.76,0,0,0,.4-.2c.2-.2.3-.2.3-.2a.58.58,0,0,1,.1.4C139.37,113.76,139.07,114,138.67,114Zm-8.2-29.6v-.2c0-.7-.1-2.2-.3-4.3-1-10.8-1.5-21.5-1.5-32.3q0-11,.9-21.9c.3-3.5.5-5.7.8-6.3a4.25,4.25,0,0,1,2-1.3,8.94,8.94,0,0,1,2.7-.7,19.71,19.71,0,0,0,3.4-.5l1.8-.3a10.9,10.9,0,0,1,1.7-.1,5.28,5.28,0,0,0,1.3-.1,3.39,3.39,0,0,0,.8-.3.55.55,0,0,0,.3-.5,9.82,9.82,0,0,0-.6-2.4,8.65,8.65,0,0,0-.7-1.9c-.2-.3-.3-.5-.6-.5h-.1c-3.8.9-7.2,1.8-10.1,2.7s-4.6,1.6-5,2q-.6.9-.9,7.2c-.2,4.2-.3,8.9-.3,13.8a274.46,274.46,0,0,0,2.4,33.9C129.47,79.66,130.17,84.36,130.47,84.36Zm7.8,26.6a5.82,5.82,0,0,0,1.6-1,50.66,50.66,0,0,0,5-4c1.1-1,1.7-1.5,1.7-1.8,0-.1-.2-.1-.5-.1a15.26,15.26,0,0,0-1.8.1l-2.4.3q-.75.15-2.4.6a15.58,15.58,0,0,1-2.2.6l.4,4.3C138,110.56,138.07,111,138.27,111Zm12.8-10.1,1.8-1c1-.7,1.6-1.1,1.6-1.4v-.1a23.93,23.93,0,0,1-.7-2.9c-.9-3.8-1.5-7-2-9.6a214,214,0,0,1-2.9-27.7,37.35,37.35,0,0,0-.5-6.1,10.06,10.06,0,0,0-.9-2.2c-.4-1.3-.7-1.9-.9-1.9s-.3.5-.3,1.6l.3,8c.4,11.5,1.4,22.5,2.8,32.9C150.27,97.36,150.87,100.86,151.07,100.86Zm21.2-45.8c.1-.3.2-1.6.4-3.9s.5-5.8.9-10.4c1.1-11.4,1.9-18.7,2.6-21.9v-.4c0-.1,0-.1-.1-.2H176a30.72,30.72,0,0,0-4.5,1.3c0,10,0,17.1.1,21.1C171.87,50.06,172.07,54.86,172.27,55.06Z"/><path class="cls-2" d="M236.27,114.16c-.2,0-.3,0-.3-.1a1.43,1.43,0,0,1,.7-.3,6.89,6.89,0,0,0,.8-.3q.3-.15.3-.3c0-.3-.6-1-1.7-2s-1.9-1.6-2.2-1.6-.6-.3-.9-.8-.5-.8-.7-.8-.5.2-.9.7-.7.7-1.1.7a1.38,1.38,0,0,1-1.1-.6,2.81,2.81,0,0,0-1.9-.8,6.37,6.37,0,0,1-3.2-1.6,29.57,29.57,0,0,0-3.9-2.4,10.11,10.11,0,0,1-5.9-6.5q-1.65-4.8-2.1-17.1a98.43,98.43,0,0,0-.8-10.4,246.84,246.84,0,0,1-2-32.6q0-8.1.6-18.9l-1.4.7q-1.2.6-1.2.9a.46.46,0,0,1-.5.4q-.6,0-.6-.3t1.8-1.5a8.55,8.55,0,0,0,1.4-.9,1.22,1.22,0,0,0,.3-.9,2,2,0,0,1,.1-.8,1.24,1.24,0,0,1,.2-.3c.2,0,.3.2.3.7s.1.7.2.7l1.2-.4a72.51,72.51,0,0,1,10.3-2.8,49.56,49.56,0,0,1,8.1-.6c2,0,3.6.1,4.6.2a31.7,31.7,0,0,1,9.3,2.8,47.65,47.65,0,0,1,5.2,2.7c.5.4,1.7,1.1,3.4,2.2a18.47,18.47,0,0,1,2.8,2.2c2.7,2.5,4.4,4.3,5,5.4a4.28,4.28,0,0,1,.6,2.2l-.1,1.2c0,3.4-3.5,8.5-10.5,15.4-2.9,2.9-4.3,4.5-4.3,4.8a.22.22,0,0,0,.2.2,3.55,3.55,0,0,0,1,.2,3,3,0,0,0,1.8-.9c.7-.6,1.7-1.6,3.2-3.1a48.58,48.58,0,0,0,9.2-12L263,34v-6.8a12.09,12.09,0,0,0-2.7-6.2,8.5,8.5,0,0,0-3.2-2.3,10.59,10.59,0,0,0-4.2-.9,8.6,8.6,0,0,0-1.6.1,5.38,5.38,0,0,1-1.1.1c-.1,0-.2,0-.2-.1,0-.3,1.1-.5,3.3-.5a18.58,18.58,0,0,1,2.6.1,5.78,5.78,0,0,1,1.7.6,11,11,0,0,1,4.6,4.9,16.56,16.56,0,0,1,1.7,7.5c0,4.6-1.9,9.1-5.6,13.7C256.77,46,254,49,250,53l1.8.6a14.89,14.89,0,0,1,6.7,3.9,10.3,10.3,0,0,1,2.7,3.8,13.24,13.24,0,0,1,.9,4.8,17,17,0,0,0,.3,2.8,12.67,12.67,0,0,0,.8,2.3,20.53,20.53,0,0,1,.8,1.9,7.72,7.72,0,0,1,.2,1.5c0,2.7-1,5.6-3,8.8a15.22,15.22,0,0,0-2,4.3c-.7,2.6-1.3,3.9-1.6,3.9a.44.44,0,0,1-.1-.3,8,8,0,0,1,.7-3.1l.1-.5a.91.91,0,0,0-.5.3,20.85,20.85,0,0,0-1.5,3.5c-3.2,9.6-8.3,16.5-15.3,20.6C239,113.46,237.37,114.16,236.27,114.16Zm-24.4-49c.2,0,.3-2.3.5-6.9.2-5.5.4-10.2.8-14.3l1-11a35.07,35.07,0,0,0,.3-3.7,3.29,3.29,0,0,0-.4-1.7,3.82,3.82,0,0,1-.4-1.3,3.55,3.55,0,0,1,.2-1,4.4,4.4,0,0,0,.2-1,5.39,5.39,0,0,0-.5-1.6,4.93,4.93,0,0,1-.5-1.8,1.88,1.88,0,0,1,1.3-1.8,22.15,22.15,0,0,1,3.4-1c7.6-2.1,12.7-3.1,15.4-3.1a4.56,4.56,0,0,0,2.2-.3c0-.2-.9-.3-2.7-.5-.7,0-1.4-.1-2.1-.1a48.79,48.79,0,0,0-8.9.9,46.57,46.57,0,0,0-8.6,2.3l-2.3.9-.3,3.3c-.1,1.7-.2,4.2-.2,7.5,0,9.3.3,18.8.8,28.4C211.47,62.16,211.67,64.76,211.87,65.16Zm16,25.3c.3-.2.6-.4,1-.7a3.46,3.46,0,0,0,1.1-1c.3-.4.4-2.9.5-7.5.2-7.6.7-11.5,1.6-11.5a.37.37,0,0,1,.3.1c.1.1.2.1.2.2a.22.22,0,0,1-.2.2c-.5.4-.8,2.1-1,5.1-.2,3.5-.3,6.7-.3,9.4q0,2.4.3,2.4t2.7-2.1c2.4-2.1,4.6-4.2,6.8-6.4s3.8-3.9,4.8-5.1a47.31,47.31,0,0,0,2.8-3.9,7.92,7.92,0,0,0,1.3-2.5c0-.3-1.4-.5-4.1-.5-2.1,0-4.3.1-6.8.3a29.65,29.65,0,0,0-5.7.8,3.58,3.58,0,0,0-1.1.4,2.77,2.77,0,0,0-.8.5c-.2.2-.3.3-.5.3s-.5-.3-.9-.9c-.6-.7-1-1-1.3-1s-.4.1-.5.4-.1,1.5-.2,3.8Zm2.3-48.5c.2,0,.5-.3.9-.8a5.37,5.37,0,0,0,1-2.5A26.5,26.5,0,0,1,233,35l.5-2a23.85,23.85,0,0,0,.9-4.1v-.1a.35.35,0,0,0-.2-.1,6.53,6.53,0,0,0-1.1.2,2.26,2.26,0,0,0-1.1.5c-.2.2-.5,1.8-.9,4.7-.5,4.1-.7,6.6-.7,7.6V42Zm2.7-2.7q.3,0,1.2-.9a50.91,50.91,0,0,0,3.9-4c1.5-1.7,2.9-3.4,4.1-4.9a8.9,8.9,0,0,0,1.8-2.8.1.1,0,0,0-.1-.1,39.31,39.31,0,0,0-4.3.8,14.89,14.89,0,0,0-3.9,1.1,33,33,0,0,0-1.6,5.2,48.93,48.93,0,0,0-1.3,5.4C232.77,39.26,232.87,39.26,232.87,39.26Zm5.7,73.6a7.63,7.63,0,0,0,2.1-1c5.5-3.1,9.9-8.5,13.4-16.4a20.88,20.88,0,0,0,1.4-3.9c0-.1,0-.2-.1-.2-.3,0-1,.6-2.1,1.7-1,.9-2.6,2.4-5,4.5-6,5.4-9.8,8.8-11.6,10.1-.8.7-1.2,1.2-1.2,1.4a8.63,8.63,0,0,0,1.5,2A7.84,7.84,0,0,0,238.57,112.86Zm8.2-58.4a.91.91,0,0,0,.8-.4c.2-.2.4-.4.4-.6s-.5-.4-1.5-.4-1.4.2-1.4.5c0,.1.2.3.7.5A1.85,1.85,0,0,0,246.77,54.46Zm14.6,13.2c.1,0,.1-.2.1-.7q0-9.9-9.6-12.9l-2.1-.7a5.5,5.5,0,0,0-.9.7,4.35,4.35,0,0,0-.7.6l-.3.3s.6.5,1.8,1.3c1.4,1,2.8,2.1,4.1,3.2,3.3,3,5.5,5.3,6.5,6.9C260.87,67.26,261.27,67.66,261.37,67.66Z"/></svg>