<?xml version="1.0" encoding="utf-8"?>
<!-- Generator: Adobe Illustrator 26.0.1, SVG Export Plug-In . SVG Version: 6.00 Build 0)  -->
<svg version="1.1" id="Слой_1" xmlns="http://www.w3.org/2000/svg" xmlns:xlink="http://www.w3.org/1999/xlink" x="0px" y="0px"
	 viewBox="0 0 283 113" style="enable-background:new 0 0 283 113;" xml:space="preserve">
<style type="text/css">
	.st0{fill:#008CD2;}
	.st1{fill:none;stroke:#FFFFFF;stroke-width:3;stroke-linecap:round;stroke-miterlimit:10;}
	.st2{fill:#FFFFFF;}
</style>
<g>
	<g>
		<g>
			<path class="st0" d="M166.4,106.4c-26.1-27-52.2-54-78.3-81c33.6-6.3,67.1-12.6,100.7-18.9C181.3,39.8,173.9,73.2,166.4,106.4z"
				/>
			<polygon class="st1" points="188.8,6.6 177.6,56.5 166.4,106.4 127.2,65.9 88.1,25.4 138.4,16 			"/>
			<polyline class="st1" points="166.4,106.4 127.2,65.9 88.1,25.4 			"/>
		</g>
	</g>
	<g>
		<g>
			<path class="st2" d="M62.1,33.5v28.4c0,0.3-0.1,0.6-0.3,0.8c-0.2,0.2-0.5,0.3-0.8,0.3c-0.3,0-0.6-0.1-0.8-0.3
				c-0.2-0.2-0.3-0.5-0.3-0.8V33.5c0-0.3,0.1-0.6,0.3-0.8c0.2-0.2,0.5-0.3,0.8-0.3c0.3,0,0.6,0.1,0.8,0.3
				C62,32.9,62.1,33.2,62.1,33.5z M64.3,45.5v-12c0-0.3,0.1-0.6,0.3-0.8c0.2-0.2,0.5-0.3,0.8-0.3c0.3,0,0.6,0.1,0.8,0.3
				c0.2,0.2,0.3,0.5,0.3,0.8v10.9h10.9V33.5c0-0.3,0.1-0.6,0.3-0.8c0.2-0.2,0.5-0.3,0.8-0.3c0.3,0,0.6,0.1,0.8,0.3
				c0.2,0.2,0.3,0.5,0.3,0.8v12c0,0.3-0.1,0.6-0.3,0.8c-0.2,0.2-0.5,0.3-0.8,0.3H65.3c-0.3,0-0.6-0.1-0.8-0.3
				C64.4,46,64.3,45.8,64.3,45.5z M64.3,49.8c0-0.3,0.1-0.6,0.3-0.8c0.2-0.2,0.5-0.3,0.8-0.3h13.1c0.3,0,0.6,0.1,0.8,0.3
				c0.2,0.2,0.3,0.5,0.3,0.8v12c0,0.3-0.1,0.6-0.3,0.8c-0.2,0.2-0.5,0.3-0.8,0.3c-0.3,0-0.6-0.1-0.8-0.3c-0.2-0.2-0.3-0.5-0.3-0.8
				V50.9H66.4v10.9c0,0.3-0.1,0.6-0.3,0.8c-0.2,0.2-0.5,0.3-0.8,0.3c-0.3,0-0.6-0.1-0.8-0.3c-0.2-0.2-0.3-0.5-0.3-0.8V49.8z
				 M81.7,61.8V33.5c0-0.3,0.1-0.6,0.3-0.8c0.2-0.2,0.5-0.3,0.8-0.3c0.3,0,0.6,0.1,0.8,0.3c0.2,0.2,0.3,0.5,0.3,0.8v28.4
				c0,0.3-0.1,0.6-0.3,0.8c-0.2,0.2-0.5,0.3-0.8,0.3c-0.3,0-0.6-0.1-0.8-0.3C81.8,62.4,81.7,62.1,81.7,61.8z"/>
			<path class="st2" d="M90.5,36.1v24.6h9.8c0.3,0,0.6,0.1,0.8,0.3c0.2,0.2,0.3,0.5,0.3,0.8s-0.1,0.6-0.3,0.8
				c-0.2,0.2-0.5,0.3-0.8,0.3H89.4c-0.3,0-0.6-0.1-0.8-0.3c-0.2-0.2-0.3-0.5-0.3-0.8V33.5c0-0.3,0.1-0.6,0.3-0.8
				c0.2-0.2,0.5-0.3,0.8-0.3c0.3,0,0.6,0.1,0.8,0.3l28.4,28.4c0.2,0.2,0.3,0.5,0.3,0.8s-0.1,0.6-0.3,0.8c-0.2,0.2-0.5,0.3-0.8,0.3
				c-0.3,0-0.6-0.1-0.8-0.3L90.5,36.1z M93.7,58.6c-0.3,0-0.6-0.1-0.8-0.3c-0.2-0.2-0.3-0.5-0.3-0.8V44.4c0-0.3,0.1-0.6,0.3-0.8
				c0.2-0.2,0.5-0.3,0.8-0.3c0.3,0,0.6,0.1,0.8,0.3L112,61.1c0.2,0.2,0.3,0.5,0.3,0.8s-0.1,0.6-0.3,0.8s-0.5,0.3-0.8,0.3
				c-0.3,0-0.6-0.1-0.8-0.3L94.8,47v9.4h5.5c0.3,0,0.6,0.1,0.8,0.3c0.2,0.2,0.3,0.5,0.3,0.8c0,0.3-0.1,0.6-0.3,0.8
				c-0.2,0.2-0.5,0.3-0.8,0.3H93.7z"/>
			<path class="st2" d="M115.7,47.7c0-4.2,1.5-7.8,4.5-10.8c3-3,6.6-4.5,10.8-4.5c4.2,0,7.8,1.5,10.8,4.4l2,2
				c0.2,0.2,0.3,0.5,0.3,0.8c0,0.3-0.1,0.6-0.3,0.8s-0.5,0.3-0.8,0.3s-0.6-0.1-0.8-0.3l-2-1.9c-2.5-2.6-5.6-3.8-9.3-3.8
				s-6.7,1.3-9.3,3.8c-2.6,2.6-3.8,5.6-3.8,9.3s1.3,6.7,3.8,9.3c2.6,2.6,5.6,3.8,9.3,3.8s6.7-1.3,9.3-3.8l2-1.9
				c0.2-0.2,0.5-0.3,0.8-0.3s0.6,0.1,0.8,0.3s0.3,0.5,0.3,0.8s-0.1,0.6-0.3,0.8l-2,2c-3,3-6.6,4.4-10.8,4.4c-4.2,0-7.8-1.5-10.8-4.5
				C117.2,55.5,115.7,51.9,115.7,47.7z M120.1,47.7c0-3,1.1-5.6,3.2-7.7c2.1-2.1,4.7-3.2,7.7-3.2c3,0,5.6,1,7.7,3.1l2.2,2.2
				c0.2,0.2,0.3,0.5,0.3,0.8c0,0.3-0.1,0.6-0.3,0.8s-0.5,0.3-0.8,0.3s-0.6-0.1-0.8-0.3l-2.2-2.1c-1.7-1.7-3.8-2.6-6.2-2.6
				s-4.5,0.9-6.2,2.6c-1.7,1.7-2.6,3.8-2.6,6.2c0,2.4,0.9,4.5,2.6,6.2c1.7,1.7,3.8,2.6,6.2,2.6s4.5-0.9,6.2-2.6l2.2-2.1
				c0.2-0.2,0.5-0.3,0.8-0.3s0.6,0.1,0.8,0.3s0.3,0.5,0.3,0.8s-0.1,0.6-0.3,0.8l-2.2,2.2c-2.2,2.1-4.7,3.1-7.7,3.1
				c-3,0-5.6-1.1-7.7-3.2C121.2,53.2,120.1,50.7,120.1,47.7z"/>
			<path class="st2" d="M150.1,61.8c0,0.3-0.1,0.6-0.3,0.8c-0.2,0.2-0.5,0.3-0.8,0.3c-0.3,0-0.6-0.1-0.8-0.3
				c-0.2-0.2-0.3-0.5-0.3-0.8V33.5c0-0.3,0.1-0.6,0.3-0.8c0.2-0.2,0.5-0.3,0.8-0.3c0.3,0,0.6,0.1,0.8,0.3c0.2,0.2,0.3,0.5,0.3,0.8
				V61.8z M154.5,41.7l9.1-9.1c0.2-0.2,0.5-0.3,0.8-0.3c0.3,0,0.6,0.1,0.8,0.3c0.2,0.2,0.3,0.5,0.3,0.8s-0.1,0.6-0.3,0.8l-10.9,10.9
				c-0.2,0.2-0.5,0.3-0.8,0.3c-0.3,0-0.6-0.1-0.8-0.3c-0.2-0.2-0.3-0.5-0.3-0.8V33.5c0-0.3,0.1-0.6,0.3-0.8c0.2-0.2,0.5-0.3,0.8-0.3
				c0.3,0,0.6,0.1,0.8,0.3c0.2,0.2,0.3,0.5,0.3,0.8V41.7z M154.5,53.6v8.3c0,0.3-0.1,0.6-0.3,0.8c-0.2,0.2-0.5,0.3-0.8,0.3
				c-0.3,0-0.6-0.1-0.8-0.3c-0.2-0.2-0.3-0.5-0.3-0.8V50.9c0-0.3,0.1-0.6,0.3-0.8c0.2-0.2,0.5-0.3,0.8-0.3c0.3,0,0.6,0.1,0.8,0.3
				l10.9,10.9c0.2,0.2,0.3,0.5,0.3,0.8s-0.1,0.6-0.3,0.8c-0.2,0.2-0.5,0.3-0.8,0.3c-0.3,0-0.6-0.1-0.8-0.3L154.5,53.6z M170.1,32.7
				c0.2-0.2,0.5-0.3,0.8-0.3c0.3,0,0.6,0.1,0.8,0.3c0.2,0.2,0.3,0.5,0.3,0.8s-0.1,0.6-0.3,0.8l-13.4,13.4l13.4,13.4
				c0.2,0.2,0.3,0.5,0.3,0.8s-0.1,0.6-0.3,0.8s-0.5,0.3-0.8,0.3c-0.3,0-0.6-0.1-0.8-0.3l-14.1-14.1c0,0-0.1-0.1-0.1-0.1
				c-0.2-0.2-0.3-0.5-0.3-0.8s0.1-0.6,0.3-0.8L170.1,32.7z"/>
			<path class="st2" d="M177.2,60.7h16.4c0.3,0,0.6,0.1,0.8,0.3c0.2,0.2,0.3,0.5,0.3,0.8s-0.1,0.6-0.3,0.8c-0.2,0.2-0.5,0.3-0.8,0.3
				h-17.5c-0.3,0-0.6-0.1-0.8-0.3c-0.2-0.2-0.3-0.5-0.3-0.8V33.5c0-0.3,0.1-0.6,0.3-0.8c0.2-0.2,0.5-0.3,0.8-0.3h17.5
				c0.3,0,0.6,0.1,0.8,0.3c0.2,0.2,0.3,0.5,0.3,0.8s-0.1,0.6-0.3,0.8c-0.2,0.2-0.5,0.3-0.8,0.3h-16.4V60.7z M180.5,36.7h13.1
				c0.3,0,0.6,0.1,0.8,0.3c0.2,0.2,0.3,0.5,0.3,0.8s-0.1,0.6-0.3,0.8c-0.2,0.2-0.5,0.3-0.8,0.3h-12v5.5h12c0.3,0,0.6,0.1,0.8,0.3
				c0.2,0.2,0.3,0.5,0.3,0.8s-0.1,0.6-0.3,0.8c-0.2,0.2-0.5,0.3-0.8,0.3h-13.1c-0.3,0-0.6-0.1-0.8-0.3c-0.2-0.2-0.3-0.5-0.3-0.8
				v-7.6c0-0.3,0.1-0.6,0.3-0.8C180,36.8,180.2,36.7,180.5,36.7z M180.5,48.7h13.1c0.3,0,0.6,0.1,0.8,0.3c0.2,0.2,0.3,0.5,0.3,0.8
				s-0.1,0.6-0.3,0.8c-0.2,0.2-0.5,0.3-0.8,0.3h-12v5.5h12c0.3,0,0.6,0.1,0.8,0.3c0.2,0.2,0.3,0.5,0.3,0.8c0,0.3-0.1,0.6-0.3,0.8
				c-0.2,0.2-0.5,0.3-0.8,0.3h-13.1c-0.3,0-0.6-0.1-0.8-0.3c-0.2-0.2-0.3-0.5-0.3-0.8v-7.6c0-0.3,0.1-0.6,0.3-0.8
				C180,48.8,180.2,48.7,180.5,48.7z"/>
			<path class="st2" d="M213.7,54.1l6.9,7c0.2,0.2,0.3,0.5,0.3,0.8s-0.1,0.6-0.3,0.8c-0.2,0.2-0.5,0.3-0.8,0.3
				c-0.3,0-0.6-0.1-0.8-0.3l-8.7-8.8c-0.2-0.2-0.3-0.5-0.3-0.8s0.1-0.6,0.3-0.8c0.2-0.2,0.5-0.3,0.8-0.3h1.1c2.4,0,4.5-0.9,6.2-2.6
				c1.7-1.7,2.6-3.8,2.6-6.2c0-2.4-0.9-4.5-2.6-6.2c-1.7-1.7-3.8-2.6-6.2-2.6h-10.9v27.3c0,0.3-0.1,0.6-0.3,0.8
				c-0.2,0.2-0.5,0.3-0.8,0.3c-0.3,0-0.6-0.1-0.8-0.3c-0.2-0.2-0.3-0.5-0.3-0.8V33.5c0-0.3,0.1-0.6,0.3-0.8c0.2-0.2,0.5-0.3,0.8-0.3
				h12c3,0,5.6,1.1,7.7,3.2c2.1,2.1,3.2,4.7,3.2,7.7s-1.1,5.6-3.2,7.7C218.1,52.8,216.1,53.8,213.7,54.1z M203.5,37.8
				c0-0.3,0.1-0.6,0.3-0.8c0.2-0.2,0.5-0.3,0.8-0.3h7.6c1.8,0,3.4,0.6,4.6,1.9c1.3,1.3,1.9,2.8,1.9,4.6c0,1.8-0.6,3.3-1.9,4.6
				c-1.3,1.3-2.8,1.9-4.6,1.9h-7.6c-0.3,0-0.6-0.1-0.8-0.3c-0.2-0.2-0.3-0.5-0.3-0.8V37.8z M205.6,55.7v6.1c0,0.3-0.1,0.6-0.3,0.8
				s-0.5,0.3-0.8,0.3c-0.3,0-0.6-0.1-0.8-0.3c-0.2-0.2-0.3-0.5-0.3-0.8v-8.7c0-0.3,0.1-0.6,0.3-0.8c0.2-0.2,0.5-0.3,0.8-0.3
				c0.3,0,0.6,0.1,0.8,0.3l8.7,8.8c0.2,0.2,0.3,0.5,0.3,0.8s-0.1,0.6-0.3,0.8s-0.5,0.3-0.8,0.3c-0.3,0-0.6-0.1-0.8-0.3L205.6,55.7z
				 M205.6,38.9v8.7h6.6c1.2,0,2.2-0.4,3.1-1.3c0.9-0.9,1.3-1.9,1.3-3.1c0-1.2-0.4-2.2-1.3-3.1c-0.9-0.9-1.9-1.3-3.1-1.3H205.6z"/>
		</g>
	</g>
	<g>
		<path class="st2" d="M78.7,91.4h-7.6c-0.3,0-0.6-0.1-0.8-0.3c-0.2-0.2-0.3-0.5-0.3-0.8c0-0.3,0.1-0.6,0.3-0.8
			c0.2-0.2,0.5-0.3,0.8-0.3h7.6c0.6,0,1.1-0.2,1.5-0.6c0.4-0.4,0.6-0.9,0.6-1.5s-0.2-1.1-0.6-1.5l-5.4-5.4c-1.7-1.7-2.6-3.8-2.6-6.2
			c0-2.4,0.9-4.5,2.6-6.2c1.7-1.7,3.8-2.6,6.2-2.6c2.4,0,4.5,0.9,6.2,2.6l0.2,0.2c0.2,0.2,0.3,0.5,0.3,0.8c0,0.3-0.1,0.5-0.3,0.8
			c-0.2,0.2-0.5,0.3-0.8,0.3s-0.6-0.1-0.8-0.3l-0.2-0.1c-1.3-1.3-2.8-1.9-4.6-1.9c-1.8,0-3.4,0.6-4.6,1.9c-1.3,1.3-1.9,2.8-1.9,4.6
			c0,1.8,0.6,3.4,1.9,4.6l5.4,5.4c0.9,0.8,1.3,1.9,1.3,3.1c0,1.2-0.4,2.2-1.3,3.1C80.9,90.9,79.9,91.4,78.7,91.4z M71.1,93.5h7.6
			c1.8,0,3.4-0.6,4.6-1.9c1.3-1.3,1.9-2.8,1.9-4.6s-0.6-3.4-1.9-4.6L77.9,77c-0.9-0.8-1.3-1.9-1.3-3.1c0-1.2,0.4-2.2,1.3-3.1
			c0.9-0.8,1.9-1.3,3.1-1.3s2.2,0.4,3.1,1.3l3,3c0.2,0.2,0.3,0.5,0.3,0.8s-0.1,0.6-0.3,0.8c-0.2,0.2-0.5,0.3-0.8,0.3
			s-0.6-0.1-0.8-0.3l-3-3c-0.4-0.4-0.9-0.6-1.5-0.6c-0.6,0-1.1,0.2-1.5,0.6c-0.4,0.4-0.6,0.9-0.6,1.5s0.2,1.1,0.6,1.5l5.4,5.4
			c1.7,1.7,2.6,3.8,2.6,6.2s-0.9,4.5-2.6,6.2c-1.7,1.7-3.8,2.6-6.2,2.6h-7.6c-0.3,0-0.6-0.1-0.8-0.3c-0.2-0.2-0.3-0.5-0.3-0.8
			c0-0.3,0.1-0.6,0.3-0.8C70.5,93.6,70.8,93.5,71.1,93.5z"/>
		<path class="st2" d="M98.4,87v7.6c0,0.3-0.1,0.6-0.3,0.8c-0.2,0.2-0.5,0.3-0.8,0.3c-0.3,0-0.6-0.1-0.8-0.3
			c-0.2-0.2-0.3-0.5-0.3-0.8v-8.7c0-0.3,0.1-0.6,0.3-0.8c0.2-0.2,0.5-0.3,0.8-0.3h7.6c2.4,0,4.5-0.9,6.2-2.6
			c1.7-1.7,2.6-3.8,2.6-6.2c0-2.4-0.9-4.5-2.6-6.2c-1.7-1.7-3.8-2.6-6.2-2.6H94v27.3c0,0.3-0.1,0.6-0.3,0.8
			c-0.2,0.2-0.5,0.3-0.8,0.3c-0.3,0-0.6-0.1-0.8-0.3c-0.2-0.2-0.3-0.5-0.3-0.8V66.3c0-0.3,0.1-0.6,0.3-0.8c0.2-0.2,0.5-0.3,0.8-0.3
			h12c3,0,5.6,1.1,7.7,3.2c2.1,2.1,3.2,4.7,3.2,7.7c0,3-1.1,5.6-3.2,7.7c-2.1,2.1-4.7,3.2-7.7,3.2H98.4z M96.2,70.6
			c0-0.3,0.1-0.6,0.3-0.8c0.2-0.2,0.5-0.3,0.8-0.3h7.6c1.8,0,3.4,0.6,4.6,1.9c1.3,1.3,1.9,2.8,1.9,4.6c0,1.8-0.6,3.3-1.9,4.6
			c-1.3,1.3-2.8,1.9-4.6,1.9h-7.6c-0.3,0-0.6-0.1-0.8-0.3c-0.2-0.2-0.3-0.5-0.3-0.8V70.6z M98.4,71.7v8.7h6.6c1.2,0,2.2-0.4,3.1-1.3
			c0.9-0.9,1.3-1.9,1.3-3.1c0-1.2-0.4-2.2-1.3-3.1c-0.9-0.9-1.9-1.3-3.1-1.3H98.4z"/>
		<path class="st2" d="M121.9,68.9v24.6h9.8c0.3,0,0.6,0.1,0.8,0.3c0.2,0.2,0.3,0.5,0.3,0.8c0,0.3-0.1,0.6-0.3,0.8
			c-0.2,0.2-0.5,0.3-0.8,0.3h-10.9c-0.3,0-0.6-0.1-0.8-0.3c-0.2-0.2-0.3-0.5-0.3-0.8V66.3c0-0.3,0.1-0.6,0.3-0.8
			c0.2-0.2,0.5-0.3,0.8-0.3c0.3,0,0.6,0.1,0.8,0.3l28.4,28.4c0.2,0.2,0.3,0.5,0.3,0.8c0,0.3-0.1,0.6-0.3,0.8
			c-0.2,0.2-0.5,0.3-0.8,0.3c-0.3,0-0.6-0.1-0.8-0.3L121.9,68.9z M125.1,91.4c-0.3,0-0.6-0.1-0.8-0.3c-0.2-0.2-0.3-0.5-0.3-0.8V77.2
			c0-0.3,0.1-0.6,0.3-0.8c0.2-0.2,0.5-0.3,0.8-0.3c0.3,0,0.6,0.1,0.8,0.3l17.5,17.5c0.2,0.2,0.3,0.5,0.3,0.8c0,0.3-0.1,0.6-0.3,0.8
			c-0.2,0.2-0.5,0.3-0.8,0.3c-0.3,0-0.6-0.1-0.8-0.3l-15.6-15.6v9.4h5.5c0.3,0,0.6,0.1,0.8,0.3c0.2,0.2,0.3,0.5,0.3,0.8
			c0,0.3-0.1,0.6-0.3,0.8c-0.2,0.2-0.5,0.3-0.8,0.3H125.1z"/>
		<path class="st2" d="M147.1,80.4c0-4.2,1.5-7.8,4.5-10.8c3-3,6.6-4.5,10.8-4.5c4.2,0,7.8,1.5,10.8,4.4l2,2
			c0.2,0.2,0.3,0.5,0.3,0.8c0,0.3-0.1,0.6-0.3,0.8s-0.5,0.3-0.8,0.3s-0.6-0.1-0.8-0.3l-2-1.9c-2.5-2.6-5.6-3.8-9.3-3.8
			c-3.6,0-6.7,1.3-9.3,3.8c-2.6,2.6-3.8,5.6-3.8,9.3c0,3.6,1.3,6.7,3.8,9.3c2.6,2.6,5.6,3.8,9.3,3.8c3.6,0,6.7-1.3,9.3-3.8l2-1.9
			c0.2-0.2,0.5-0.3,0.8-0.3s0.6,0.1,0.8,0.3s0.3,0.5,0.3,0.8s-0.1,0.6-0.3,0.8l-2,2c-3,3-6.6,4.4-10.8,4.4c-4.2,0-7.8-1.5-10.8-4.5
			C148.6,88.3,147.1,84.7,147.1,80.4z M151.5,80.4c0-3,1.1-5.6,3.2-7.7c2.1-2.1,4.7-3.2,7.7-3.2c3,0,5.6,1,7.7,3.1l2.2,2.2
			c0.2,0.2,0.3,0.5,0.3,0.8c0,0.3-0.1,0.6-0.3,0.8s-0.5,0.3-0.8,0.3s-0.6-0.1-0.8-0.3l-2.2-2.1c-1.7-1.7-3.8-2.6-6.2-2.6
			c-2.4,0-4.5,0.9-6.2,2.6c-1.7,1.7-2.6,3.8-2.6,6.2c0,2.4,0.9,4.5,2.6,6.2c1.7,1.7,3.8,2.6,6.2,2.6c2.4,0,4.5-0.9,6.2-2.6l2.2-2.1
			c0.2-0.2,0.5-0.3,0.8-0.3s0.6,0.1,0.8,0.3c0.2,0.2,0.3,0.5,0.3,0.8c0,0.3-0.1,0.6-0.3,0.8l-2.2,2.2c-2.2,2.1-4.7,3.1-7.7,3.1
			c-3,0-5.6-1.1-7.7-3.2C152.6,86,151.5,83.5,151.5,80.4z"/>
		<path class="st2" d="M181.6,93.5h16.4c0.3,0,0.6,0.1,0.8,0.3c0.2,0.2,0.3,0.5,0.3,0.8c0,0.3-0.1,0.6-0.3,0.8
			c-0.2,0.2-0.5,0.3-0.8,0.3h-17.5c-0.3,0-0.6-0.1-0.8-0.3c-0.2-0.2-0.3-0.5-0.3-0.8V66.3c0-0.3,0.1-0.6,0.3-0.8
			c0.2-0.2,0.5-0.3,0.8-0.3h17.5c0.3,0,0.6,0.1,0.8,0.3c0.2,0.2,0.3,0.5,0.3,0.8c0,0.3-0.1,0.6-0.3,0.8c-0.2,0.2-0.5,0.3-0.8,0.3
			h-16.4V93.5z M184.8,69.5h13.1c0.3,0,0.6,0.1,0.8,0.3c0.2,0.2,0.3,0.5,0.3,0.8c0,0.3-0.1,0.6-0.3,0.8c-0.2,0.2-0.5,0.3-0.8,0.3
			h-12v5.5h12c0.3,0,0.6,0.1,0.8,0.3c0.2,0.2,0.3,0.5,0.3,0.8c0,0.3-0.1,0.6-0.3,0.8c-0.2,0.2-0.5,0.3-0.8,0.3h-13.1
			c-0.3,0-0.6-0.1-0.8-0.3c-0.2-0.2-0.3-0.5-0.3-0.8v-7.6c0-0.3,0.1-0.6,0.3-0.8C184.3,69.6,184.5,69.5,184.8,69.5z M184.8,81.5
			h13.1c0.3,0,0.6,0.1,0.8,0.3c0.2,0.2,0.3,0.5,0.3,0.8c0,0.3-0.1,0.6-0.3,0.8c-0.2,0.2-0.5,0.3-0.8,0.3h-12v5.5h12
			c0.3,0,0.6,0.1,0.8,0.3c0.2,0.2,0.3,0.5,0.3,0.8c0,0.3-0.1,0.6-0.3,0.8c-0.2,0.2-0.5,0.3-0.8,0.3h-13.1c-0.3,0-0.6-0.1-0.8-0.3
			c-0.2-0.2-0.3-0.5-0.3-0.8v-7.6c0-0.3,0.1-0.6,0.3-0.8C184.3,81.6,184.5,81.5,184.8,81.5z"/>
		<path class="st2" d="M210.3,91.4h-7.6c-0.3,0-0.6-0.1-0.8-0.3c-0.2-0.2-0.3-0.5-0.3-0.8c0-0.3,0.1-0.6,0.3-0.8
			c0.2-0.2,0.5-0.3,0.8-0.3h7.6c0.6,0,1.1-0.2,1.5-0.6c0.4-0.4,0.6-0.9,0.6-1.5s-0.2-1.1-0.6-1.5l-5.4-5.4c-1.7-1.7-2.6-3.8-2.6-6.2
			c0-2.4,0.9-4.5,2.6-6.2c1.7-1.7,3.8-2.6,6.2-2.6c2.4,0,4.5,0.9,6.2,2.6l0.2,0.2c0.2,0.2,0.3,0.5,0.3,0.8c0,0.3-0.1,0.5-0.3,0.8
			c-0.2,0.2-0.5,0.3-0.8,0.3s-0.6-0.1-0.8-0.3l-0.2-0.1c-1.3-1.3-2.8-1.9-4.6-1.9c-1.8,0-3.4,0.6-4.6,1.9c-1.3,1.3-1.9,2.8-1.9,4.6
			c0,1.8,0.6,3.4,1.9,4.6l5.4,5.4c0.9,0.8,1.3,1.9,1.3,3.1c0,1.2-0.4,2.2-1.3,3.1C212.5,90.9,211.5,91.4,210.3,91.4z M202.7,93.5
			h7.6c1.8,0,3.4-0.6,4.6-1.9c1.3-1.3,1.9-2.8,1.9-4.6s-0.6-3.4-1.9-4.6l-5.4-5.4c-0.9-0.8-1.3-1.9-1.3-3.1c0-1.2,0.4-2.2,1.3-3.1
			c0.9-0.8,1.9-1.3,3.1-1.3s2.2,0.4,3.1,1.3l3,3c0.2,0.2,0.3,0.5,0.3,0.8s-0.1,0.6-0.3,0.8c-0.2,0.2-0.5,0.3-0.8,0.3
			s-0.6-0.1-0.8-0.3l-3-3c-0.4-0.4-0.9-0.6-1.5-0.6s-1.1,0.2-1.5,0.6c-0.4,0.4-0.6,0.9-0.6,1.5s0.2,1.1,0.6,1.5l5.4,5.4
			c1.7,1.7,2.6,3.8,2.6,6.2s-0.9,4.5-2.6,6.2c-1.7,1.7-3.8,2.6-6.2,2.6h-7.6c-0.3,0-0.6-0.1-0.8-0.3c-0.2-0.2-0.3-0.5-0.3-0.8
			c0-0.3,0.1-0.6,0.3-0.8C202.1,93.6,202.4,93.5,202.7,93.5z"/>
	</g>
</g>
</svg>
