<svg id="Слой_1" data-name="Слой 1" xmlns="http://www.w3.org/2000/svg" xmlns:xlink="http://www.w3.org/1999/xlink" viewBox="0 0 283 113"><defs><style>.cls-1,.cls-2,.cls-3,.cls-4{fill:none;}.cls-2{clip-path:url(#clip-path);}.cls-3{clip-path:url(#clip-path-2);}.cls-4{clip-path:url(#clip-path-3);}.cls-5{clip-path:url(#clip-path-5);}.cls-16,.cls-6{fill:#e62d36;}.cls-7{clip-path:url(#clip-path-7);}.cls-8{clip-path:url(#clip-path-8);}.cls-9{fill:#f0821b;}.cls-10{fill:#ffdc0e;}.cls-11{fill:#98c221;}.cls-12{fill:#02b2ce;}.cls-13{fill:#6d4c99;}.cls-14{fill:#fbcdb5;}.cls-15{clip-path:url(#clip-path-9);}.cls-16,.cls-19{fill-rule:evenodd;}.cls-17{opacity:0.5;}.cls-18,.cls-19{fill:#fff;}.cls-18,.cls-21{isolation:isolate;}.cls-18{opacity:0.6;}.cls-20{clip-path:url(#clip-path-11);}</style><clipPath id="clip-path"><polygon class="cls-1" points="202.06 110.8 202.06 110.8 202.06 110.8 202.06 110.8"/></clipPath><clipPath id="clip-path-2"><path class="cls-2" d="M166.15,71.42c.14,0,.29-.14.43-.14v-.15a1,1,0,0,1,.58-1.15h.14v-.29A7.45,7.45,0,0,0,166.15,71.42Z"/></clipPath><clipPath id="clip-path-3"><path class="cls-3" d="M237.26-36.76h-179V85.12H62c1.3-2.16,2.59-4.47,4-6.49a2.66,2.66,0,0,1,1-1.73,7.45,7.45,0,0,1,1-3c.57-1.29,1.15-2.59,1.73-3.75a53.17,53.17,0,0,1,6.34-10.24c1.3-1.73,2.6-3.31,3.9-5.05A16.47,16.47,0,0,1,81.48,53c.29-.29.58-.72.87-1a12.38,12.38,0,0,1,3-2.16c1.45-1.88,3-3.61,4.33-5.63,1.16-1.59,2.45-4.18,4.47-5,.58-.72,1-1.3,1.59-2,.14-.29.43-.43.58-.72a14.7,14.7,0,0,1,3.17-4.47c2.6-2.74,5.91-4.9,8.8-7.36,1.87-1.44,4-3.75,6.34-4.76.29-.28.44-.57.73-.72a1.18,1.18,0,0,1,1.73.15c.14,0,.14-.15.29-.15s.43-.14.72-.28h.28c.15,0,.29-.15.44-.15s.29-.14.43-.14h.29a.86.86,0,0,0,.58-.15,9.44,9.44,0,0,1,4,0c.73,0,1.3-.14,2-.14h1.59c.14,0,.29.14.43.14a.15.15,0,0,1,.15.15,5.85,5.85,0,0,1,1.58,1,27,27,0,0,0,3.32,2.16l.15.14c.14.15.43.29.57.44l.15.14A19.86,19.86,0,0,1,136.29,24c.14,0,.14-.15.29-.15.86-.72,1.87.58,1.3,1.45l.29.28h0l.14.15.14.14a4.25,4.25,0,0,1,.87.72c.14.15.29.44.43.58l.43.87a.14.14,0,0,0,.15.14c.14.14.14.29.29.43,0,.15.14.29.14.44l.43.86c.15.15.15.43.29.58a9.09,9.09,0,0,1,1.16,2,14.82,14.82,0,0,1,1.15-2c.29-.43.43-1,.72-1.44a6.24,6.24,0,0,0,.43-1c.15-.15.15-.29.29-.58a4.65,4.65,0,0,1,1.59-1.73c.14-.15.43-.29.58-.43a.14.14,0,0,0,.14-.15,1,1,0,0,1,1.3-1.44c.14,0,.14.14.29.14a18,18,0,0,1,2-1.44,4.21,4.21,0,0,1,1-.72c1.15-.72,2.3-1.44,3.31-2.16a9.36,9.36,0,0,1,1.59-1,2,2,0,0,1,1.59-.29c1,.14,1.87.14,2.88.29h0a8.19,8.19,0,0,1,3.75,0h.15a1.88,1.88,0,0,1,.86.14c.15,0,.29.15.43.15a7.86,7.86,0,0,1,1.74.57,1.33,1.33,0,0,1,1.73-.14c.28.29.57.43.72.72,2.45.86,4.61,3.32,6.34,4.76a71.71,71.71,0,0,1,8.8,7.35,19.54,19.54,0,0,1,3,4.33,3,3,0,0,0,.58.72,18.56,18.56,0,0,1,1.58,2c1.88,1,3.32,3.46,4.33,5,1.3,2,2.89,3.75,4.33,5.63a12.45,12.45,0,0,1,3,2.16,5.14,5.14,0,0,1,.86,1,9.54,9.54,0,0,1,1.45,1.87c1.29,1.74,2.59,3.32,3.89,5.05a46.74,46.74,0,0,1,6.35,10.24c.57,1.3,1.15,2.6,1.73,3.75a7.6,7.6,0,0,1,1,3,4.41,4.41,0,0,1,1,1.73c1.44,2.17,2.74,4.33,4,6.49h13.12V-36.76Z"/></clipPath><clipPath id="clip-path-5"><path class="cls-1" d="M194.56,63.49c-7.64,12-30.72,35.91-52.93,45.72C119.41,99.4,96.19,75.46,88.69,63.49,82.92,54.55,79.75,45,80.33,34.35a33.2,33.2,0,0,1,12.4-23.8,32.28,32.28,0,0,1,48.75,11.11,32.29,32.29,0,0,1,61.16,12.69C203.36,45,200.19,54.55,194.56,63.49Z"/></clipPath><clipPath id="clip-path-7"><polyline class="cls-1" points="49.75 109.64 49.75 7.81 237.26 7.81 237.26 109.64"/></clipPath><clipPath id="clip-path-8"><path class="cls-4" d="M118.69,70h.15a1,1,0,0,1,.57,1.15v.15c.15,0,.29.14.44.14a7.85,7.85,0,0,0-1.16-1.87Z"/></clipPath><clipPath id="clip-path-9"><path class="cls-1" d="M143.93,34.64a5.05,5.05,0,0,0-.57-1.3,18.74,18.74,0,0,1-1.16-2.45c0-.14,0-.14-.14-.29a8.25,8.25,0,0,1-.72-1.73,6.24,6.24,0,0,1-.43-1A5.89,5.89,0,0,0,139,25.55a3.46,3.46,0,0,1-.86-.72c-.44-.29-.87-.72-1.3-1a6.41,6.41,0,0,1-1.59-1.15,6.17,6.17,0,0,0-1.59-1.15c-1.15-.73-2.3-1.45-3.31-2.17a10,10,0,0,0-1.59-1,2,2,0,0,0-1.59-.29c-1,.15-1.87.15-2.88.29a13.34,13.34,0,0,1-2.45,0c-.44,0-.87-.14-1.3-.14a1.9,1.9,0,0,0-.87.14c-.14,0-.29.15-.43.15a10.24,10.24,0,0,0-3.61,1.58c-.72.58-1.44,1-2.16,1.59-1,.72-2,1.44-3,2.31a6.54,6.54,0,0,1-1.58,1.15.15.15,0,0,0-.15.15c0,.28-.29.28-.43.43A24.78,24.78,0,0,0,105,27.57a4.21,4.21,0,0,1-1,.72c-.29.29-.58.44-.86.73l-.29.28c-.29.15-.44.44-.72.73s-.44.57-.58.86a11.07,11.07,0,0,1-2.6,2.6,7.46,7.46,0,0,0-1.58,1.44c-.44.58-.87,1-1.3,1.59a32.49,32.49,0,0,0-2.74,3.6,7.75,7.75,0,0,1-1,1.3,15.41,15.41,0,0,0-2,2.31c-.15.14-.29.43-.43.58-1.16,1.29-2.31,2.74-3.47,4-2.16,3.18-4.32,5.77-6.34,8.37l-2.17,2.6a19.19,19.19,0,0,0-2,2.74,12.06,12.06,0,0,1-1.15,1.73,29.83,29.83,0,0,0-2,3.6c-.29.87-.72,1.59-1,2.31a30.21,30.21,0,0,0-1.87,5,4.53,4.53,0,0,1-.87,1.87c-.86,1.74-1.87,3.47-2.88,5.2-.72,1.3-1.59,2.59-2.31,4-.87,1.58-1.88,3-2.74,4.61a10.64,10.64,0,0,1-1,1.73c-1.44,2.45-2.6,4.91-3.9,7.5s-2.16,5-3.31,7.5c-.15.29-.15.58-.29.87a1.33,1.33,0,0,0,.14.72c.15.29.43.29.72,0l.15-.14v.14c2.74.14,5.77,2.31,8.51,2.31,3.32,0,6.49.29,9.81.57,3,.29,6.2-1.29,9.23-.86,1,.14,2,.14,2.88.29v-.15a7.11,7.11,0,0,0-.14.72c0,.15.14.29.29.44a1.51,1.51,0,0,0,.57-.72c.44-.87,1-1.73,1.45-2.6.86-1.59,1.58-3,2.45-4.62A41.22,41.22,0,0,1,91.29,100a16.45,16.45,0,0,1,2-2.45,2.74,2.74,0,0,1,1.3-.72c.72-.29,1.29-.58,1.87-.87l1.3-.86A24.29,24.29,0,0,1,101,92.91a11.79,11.79,0,0,0,1.73-1.15,7.3,7.3,0,0,1,2.6-1.3,21.75,21.75,0,0,0,2.6-1.15,10.83,10.83,0,0,1,1.87-.87,33.39,33.39,0,0,0,3.17-1.58c.15-.15.29-.15.44-.29a8.32,8.32,0,0,1,1.87-.44,16.65,16.65,0,0,1,4.62.15,14.73,14.73,0,0,1,2.45.58c1.59.43,3.17.86,4.76,1.44a20.1,20.1,0,0,0,4.76,1.44,10,10,0,0,0,2,.29,12.86,12.86,0,0,1,2.31.14,2,2,0,0,0,1-.29,3.82,3.82,0,0,0,1-1.58,5.57,5.57,0,0,0,0-3,4.07,4.07,0,0,1-.29-1.3,13.64,13.64,0,0,0-1.3-3,7.46,7.46,0,0,0-1.44-2A9,9,0,0,1,134,77.77a12,12,0,0,0-3.6-2.31c-.58-.29-1.3-.43-1.88-.72a18.7,18.7,0,0,0-4-1.3l-2.59-.86c-.87-.29-1.73-.58-2.46-.87-.14-.14-.43-.14-.57-.29l-1.3-.86a5.44,5.44,0,0,1-1.44-1.16,20,20,0,0,1-2.6-4.47l-.86-2.6c-.15-.43-.29-.72-.44-1.15a4.15,4.15,0,0,1-.14-2.31c.14-.29.14-.72.29-1s.14-.43.29-.57a4.77,4.77,0,0,1,.57-1.3l.87-2.17a31,31,0,0,1,1.15-3.31,56.6,56.6,0,0,0,2.31-6.35c0-.14.14-.29.14-.43a4.44,4.44,0,0,0,.44-1.3l.43-.87a11.53,11.53,0,0,0,1.73-2,3,3,0,0,1,.58-.73l1.73-1.73a2,2,0,0,1,.57-.43c.15.14.29.14.58.29l.87.43a6.79,6.79,0,0,1,2.3,1,8.14,8.14,0,0,0,2.6,1c.15,0,.29.15.58.29l3.46,2.16a5.15,5.15,0,0,0,1.59.72c.14,0,.14,0,.28.15a7.82,7.82,0,0,0,3.18.58,2,2,0,0,0,1.87-.87l.44-.87a.49.49,0,0,1,.14-.28h.14a2.17,2.17,0,0,0,2.17-1,2.34,2.34,0,0,0,.43-1.3V38.1a.53.53,0,0,1,.14-.43A9.23,9.23,0,0,0,143.93,34.64ZM53.64,108.35a.52.52,0,0,0,.15-.29A.43.43,0,0,0,53.64,108.35Z"/></clipPath><clipPath id="clip-path-11"><path class="cls-1" d="M142.2,36.37a.52.52,0,0,1,.15.43v.87a2,2,0,0,0,.43,1.3,2.15,2.15,0,0,0,2.16,1h.15c0,.14.14.14.14.29l.44.86a1.74,1.74,0,0,0,1.87.87,8.26,8.26,0,0,0,3.17-.58c.15,0,.15-.14.29-.14a2.32,2.32,0,0,0,1.59-.72l3.46-2.17c.15-.14.29-.14.58-.29a9.26,9.26,0,0,0,2.59-1,11.78,11.78,0,0,1,2.31-1l.87-.43c.14-.14.29-.14.57-.29s.44.29.58.44l1.73,1.73a2.48,2.48,0,0,1,.58.72,25.88,25.88,0,0,0,1.73,2,1.23,1.23,0,0,1,.43.86l.44,1.3c0,.14.14.29.14.43a47.06,47.06,0,0,0,2.31,6.35,22.71,22.71,0,0,1,1.15,3.32l.87,2.16a5.26,5.26,0,0,0,.57,1.3c.15.14.15.43.29.58s.15.72.29,1a4.21,4.21,0,0,1-.14,2.3c-.15.44-.29.72-.44,1.16l-.86,2.59A17.16,17.16,0,0,1,170,68.1a5.44,5.44,0,0,1-1.44,1.16l-1.3.86a1,1,0,0,1-.58.29c-.86.29-1.73.58-2.45.87l-2.59.86c-1.3.44-2.74.72-4,1.3a9.67,9.67,0,0,1-1.88.72,11.86,11.86,0,0,0-3.6,2.31A8.35,8.35,0,0,1,151,77.62a4.83,4.83,0,0,0-1.44,2,13.64,13.64,0,0,0-1.3,3A4.42,4.42,0,0,0,148,84a7.37,7.37,0,0,0,0,3,3.13,3.13,0,0,0,1,1.59.9.9,0,0,0,1,.28c.72-.14,1.59,0,2.31-.14a8.26,8.26,0,0,0,2-.29c1.59-.43,3.17-.86,4.76-1.44a29.75,29.75,0,0,1,4.76-1.44c.87-.15,1.59-.44,2.45-.58a16.1,16.1,0,0,1,4.62-.14c.72.14,1.3.28,1.87.43.15,0,.29.14.44.29a12.7,12.7,0,0,0,3.17,1.58c.58.29,1.3.58,1.87.87a14.62,14.62,0,0,0,2.6,1.15,10.9,10.9,0,0,1,2.6,1.3c.57.43,1.15.72,1.73,1.16a15.07,15.07,0,0,1,3.17,2.16l1.3.86a5.33,5.33,0,0,0,1.87.87,5.43,5.43,0,0,1,1.3.72,17.09,17.09,0,0,1,2,2.45c1,1.45,1.88,2.74,2.74,4.19s1.59,3,2.45,4.61a24.18,24.18,0,0,0,1.45,2.6,1.41,1.41,0,0,0,.57.72c.15-.15.29-.29.29-.43a1.31,1.31,0,0,0-.14-.72v.14a17,17,0,0,0,2.88-.29c3-.29,6.2,1.15,9.23.87a73.37,73.37,0,0,1,9.81-.58c2.74,0,5.77-2.16,8.51-2.31v-.14l.15.14c.14.29.57.15.72,0a1.1,1.1,0,0,0,.14-.72c-.14-.29-.14-.58-.29-.87-1.15-2.45-2-5-3.31-7.5s-2.46-5-3.9-7.5c-.29-.57-.72-1.15-1-1.73a47.86,47.86,0,0,0-2.74-4.61,37.82,37.82,0,0,1-2.31-4,57.65,57.65,0,0,0-3-5.05,4.45,4.45,0,0,1-.86-1.87,35.21,35.21,0,0,0-1.88-5c-.29-.72-.72-1.59-1-2.31a17.34,17.34,0,0,0-2-3.61,11.79,11.79,0,0,1-1.15-1.73,19.77,19.77,0,0,0-2-2.74L206,55.56c-2-2.6-4.19-5.2-6.2-7.65-1.16-1.44-2.31-2.74-3.47-4.18-.14-.15-.29-.43-.43-.58a10.16,10.16,0,0,0-2-2.31,4.59,4.59,0,0,1-1-1.29,21.34,21.34,0,0,0-2.74-3.61c-.43-.58-.86-1-1.3-1.59a7.74,7.74,0,0,0-1.58-1.44,11.07,11.07,0,0,1-2.6-2.6c-.14-.28-.43-.57-.58-.86a1.67,1.67,0,0,0-.72-.72c-.14-.15-.29-.15-.29-.29a1.44,1.44,0,0,0-.86-.72,4.21,4.21,0,0,0-1-.72,15.16,15.16,0,0,0-3.32-1.88c-.14-.14-.43-.14-.43-.43a.15.15,0,0,0-.15-.15,10.51,10.51,0,0,1-1.58-1.15,24.7,24.7,0,0,0-3-2.31c-.72-.57-1.44-1-2.17-1.58a8.84,8.84,0,0,0-3.6-1.59c-.15,0-.29-.14-.43-.14s-.58-.15-.87-.15a3.89,3.89,0,0,0-1.3.15,14.29,14.29,0,0,1-2.45,0,20.08,20.08,0,0,1-2.88-.29,5.93,5.93,0,0,0-1.59.29,5.67,5.67,0,0,0-1.59,1,26.29,26.29,0,0,1-3.32,2.16,11.87,11.87,0,0,0-1.58,1.15,6.2,6.2,0,0,1-1.59,1.16c-.43.28-.86.72-1.3,1a3.86,3.86,0,0,0-.86.72,5,5,0,0,0-1.88,2.31,6.62,6.62,0,0,0-.43,1,8.55,8.55,0,0,0-.72,1.74c0,.14-.15.14-.15.28-.28.87-.86,1.74-1.15,2.46a5.24,5.24,0,0,0-.58,1.29A3.17,3.17,0,0,0,142.2,36.37Zm90.15,71.83c0,.15,0,.15.15.29A.43.43,0,0,1,232.35,108.2Z"/></clipPath></defs><g class="cls-5"><path class="cls-6" d="M194.56,63.49c-7.64,12-30.72,35.91-52.93,45.72C119.41,99.4,96.19,75.46,88.69,63.49,82.92,54.55,79.75,45,80.33,34.35a33.2,33.2,0,0,1,12.4-23.8,32.28,32.28,0,0,1,48.75,11.11,32.29,32.29,0,0,1,61.16,12.69C203.36,45,200.19,54.55,194.56,63.49Z"/></g><g class="cls-5"><g class="cls-7"><g class="cls-8"><path class="cls-9" d="M93.16,14c9.52-1.3,15.87-.29,19.33.57,2.31.58,4.62,1.44,5.34,3.32s-.72,3-1.3,6.35c-.72,3.75-.43,8.94,1.87,10.09,2,1,3.75-2.31,8.23-3.46,6.2-1.59,8.22,3.61,15.72,3.9,8.51.28,10.67-6.35,19.61-5.2,1.3.15,6.5.87,7.94,4a5.31,5.31,0,0,1,.43,1.88,46.29,46.29,0,0,1-.72-13.42c.86-6.2,2.74-6.34,2.31-9.95-.58-5.05-4.62-4.9-10.39-13.27-3.46-5.19-4-7.5-7.5-14-1-1.88-2.16-3.9-3.17-5.77a32,32,0,0,0-1.73-3.89c-1.3-1.74-4.76.28-6.64.86-4.32,1.3-8.65,2.74-13,4l-28.13,9.09A79.46,79.46,0,0,0,87-4.88Z"/><path class="cls-10" d="M241.58,64.5,230.48-37.19c-6.2-3-12.55-7.36-19-10C205.38-49.59,200-50,196.73-48c-2.89,1.73-4.33,5.2-5.77,9.23-1.3,3.47-3.18,7.79-7.65,10.53-2.74,1.73-6.2,3-10.09,5.05-4.33,2.17-8.37,5.48-7.94,10.53.58,5.34,5.19,10.53,6.06,15.87.87,5.19-2.88,10.09-5.19,16.3-1.16,2.88-1.59,6.05-.58,8.65s3,4.76,5.05,6.49c4,3.32,7.36,6.35,8.22,9.67.87,3.75,0,7.5-.43,10.24s-.58,4.61-.58,4.61c4.47-1.87,8.66-3.46,12.26-4.61a29.68,29.68,0,0,1,8.51-1.73c4,0,7.65,2.59,10.53,6.2,3.46,4.32,7.65,9.81,13.41,11.54C228.89,72.29,235.81,69.11,241.58,64.5Z"/><path class="cls-11" d="M208-7.62c-.87-.87-5.2,1-6.06,1.44a10.54,10.54,0,0,0-4.62,4.76c-3.31,7.93,5,17.17-.86,24.38-1.44,1.73-3.46,2.88-5.05,4.47-6.49,6.92-3.46,18.61,1.44,25.24a74.06,74.06,0,0,0,6.35,7.21c1.44,1.59,2.88,3.9,4.9,4.76,1.59.72,3.18.15,4.62-.57,1.87-.87,3.89-1.45,5.62-2.46,2.89-1.73,5.63-2.88,8.08-5.19,2.74-2.6,5-6.2,7.21-9.23a29.37,29.37,0,0,1,4-4.47C236.39,40.27,240,38,242,35.07s.29-5.62-2-8.07c-1.44-1.59-2.74-3.32-4-4.91C236.25,22.09,208.12-7.48,208-7.62Z"/><path class="cls-12" d="M297-45.7a95.27,95.27,0,0,0-33.32,7.5c-8.65,3.9-14.28,9.52-14.71,15.72-.29,4.47,2.16,9.81-4.76,13.13C235.53-5,220.53-5.75,214.32.31c-4.9,4.76-3,11-1.87,16s3.6,11,.43,16c-2.74,4.62-9.81,7.94-14.57,11.83-6.34,5.19-6.2,11.68-3.31,17.6,38.8,24.09,78.32,29.57,98.65,14.85C298,73.44,309.38,65.22,313,51.52c1.3-5.2,0-6.49,0-25.53V-39.93c0-1,.72-2.88,0-3.89-.14-.15,0-.44,0-.58A72.27,72.27,0,0,0,297-45.7Z"/><path class="cls-13" d="M314.57,34.64a18.85,18.85,0,0,0-4.18-1.44c-1.74-.58-5.34-.29-7.22-.43-3.89-.15-7.79-.44-11.68-.58-1,0-1.87-.15-2.88-.15-1.74,1.74-2.6,3.47-5.2,4.76A24.37,24.37,0,0,1,274.9,39c-6.49.72-13.27.58-19.9.58-2.89,0-4.76.86-5.05,2.45s1.59,3.89-.58,5.19c-1.87,1.15-5.91.43-8.51.14-3.89-.43-7.79-1-11.25,0-3.89,1.16-4.18,3.32-3.32,5.77.58,1.88,2.17,3.75,1.74,5.63-.58,2-2.89,3.6-5.05,5.05-4.76,3-8.08,6.34-9.09,10.53l3,54.09,26.83,1.44a24,24,0,0,1,2.74-2.45c7.64-6.21,16.15-7.36,19.61-7.79,21.06-2.6,35.78,11,46,3.75,6.34-4.47,9.66-16.16,7.93-24.81-1.3-6.35-6.06-13-2.89-18.75A8,8,0,0,1,319,77.48C321.06,54.11,318.61,36.66,314.57,34.64Z"/><path class="cls-10" d="M42.68,64.5,53.79-37.33c6.2-3,12.54-7.36,19-10,6-2.45,11.39-2.88,14.71-.86,2.88,1.73,4.32,5.19,5.77,9.23,1.3,3.46,3.17,7.79,7.64,10.53,2.74,1.73,6.2,3,10.1,5.05,4.33,2.16,8.36,5.48,7.93,10.53-.58,5.33-5.19,10.53-6.06,15.86s2.89,10.1,5.2,16.3c1.15,2.89,1.58,6.06.57,8.66-.86,2.59-3,4.76-5,6.49-4,3.31-7.35,6.34-8.22,9.66-.86,3.75,0,7.5.44,10.24s.57,4.62.57,4.62c-4.47-1.88-8.65-3.46-12.26-4.62a29.68,29.68,0,0,0-8.51-1.73c-4,0-7.64,2.6-10.53,6.2-3.46,4.33-7.64,9.81-13.41,11.54C55.37,72.29,48.45,69.11,42.68,64.5Z"/><path class="cls-11" d="M76.14-7.62c.87-.87,5.2,1,6.06,1.44a10.54,10.54,0,0,1,4.62,4.76c3.31,7.93-5.2,17.17.86,24.38,1.44,1.73,3.46,2.88,5,4.47,6.49,6.92,3.46,18.61-1.44,25.24a74.06,74.06,0,0,1-6.35,7.21c-1.44,1.59-2.88,3.9-4.9,4.76-1.59.72-3.18.15-4.62-.57-1.87-.87-3.89-1.45-5.62-2.46-2.89-1.73-5.63-2.88-8.08-5.19-2.74-2.6-5-6.2-7.21-9.23a29.37,29.37,0,0,0-4-4.47c-2.74-2.45-6.35-4.76-8.37-7.65s-.29-5.62,2-8.07c1.44-1.59,2.74-3.32,4-4.91C47.87,22.09,76.14-7.48,76.14-7.62Z"/><path class="cls-12" d="M-12.71-45.7a95.22,95.22,0,0,1,33.32,7.5c8.66,3.9,14.28,9.52,14.71,15.72.29,4.47-2.16,9.81,4.76,13.13C48.74-5,63.74-5.6,69.94.46c4.9,4.76,3,11,1.88,16s-3.61,11-.44,16c2.74,4.61,9.81,7.93,14.57,11.83C92.3,49.5,92.15,56,89.27,61.9,50.32,85.85,10.8,91.47-9.53,76.61c-4.33-3.17-15.73-11.39-19.33-25.09-1.3-5.2,0-6.49,0-25.53V-39.93c0-1-.72-2.88,0-3.89.14-.15,0-.44,0-.58A73.6,73.6,0,0,1-12.71-45.7Z"/><path class="cls-13" d="M-30.45,34.64a18.85,18.85,0,0,1,4.18-1.44c1.73-.58,5.34-.29,7.22-.43,3.89-.15,7.78-.44,11.68-.58,1,0,1.87-.15,2.88-.15,1.73,1.74,2.6,3.47,5.2,4.76A24.37,24.37,0,0,0,9.22,39c6.49.72,13.27.58,19.9.58,2.89,0,4.76.86,5.05,2.45s-1.59,3.89.58,5.19c1.87,1.15,5.91.43,8.51.14,3.89-.43,7.79-1,11.25,0,3.89,1.16,4.18,3.32,3.31,5.77-.57,1.88-2.16,3.75-1.73,5.63s2.89,3.6,5,5.05c4.76,3,8.08,6.34,9.09,10.53l-3,54.09-26.83,1.44a15.9,15.9,0,0,0-2.74-2.45C28.11,120.17,15,124.07.13,127c-23.51,4.62-35.19,6.78-38.8,2.31-7.07-8.8,16.15-33.61,5.77-49.33a20.26,20.26,0,0,0-1.88-2.31C-36.8,54.11-34.34,36.66-30.45,34.64Z"/></g><path class="cls-6" d="M175.09,77.48A104.6,104.6,0,0,1,152,88.73c-4.76,1.59-6.92,1.88-9.23,1.73-6.63-.29-9.81-3.89-16.87-6.63a45,45,0,0,0-15.44-3c-.14-16.45-.43-32.89-.58-49.48h65.34C175.09,46.76,175.09,62.19,175.09,77.48Z"/><path class="cls-14" d="M142.64,36.52a1.26,1.26,0,0,0-.44-.87c-1.29-2-2.59-3.89-4-5.91a29.39,29.39,0,0,0-2-2.45,2.08,2.08,0,0,0-.58-.44c-.15-.14-.29-.14-.43-.29a20,20,0,0,0-3.18-2,5.73,5.73,0,0,0-1.58-.72c-.72-.29-1.59-.72-2.31-1a21.35,21.35,0,0,1-3.9-2.3,8.58,8.58,0,0,0-2.3-1.16h-.15a4.25,4.25,0,0,0-2.31.15,17.08,17.08,0,0,0-4,2c-.73.57-1.59,1.15-2.46,1.73L110.76,25a11.32,11.32,0,0,1-1.59,1.15.14.14,0,0,0-.14.15,10.93,10.93,0,0,1-2.31,1.58A14.21,14.21,0,0,1,104.85,29l-1.73,1.29-.87.87a21.88,21.88,0,0,0-1.15,1.87,1.13,1.13,0,0,1-.58.58.32.32,0,0,0-.29.29,3.47,3.47,0,0,1-1,1,24.79,24.79,0,0,0-3.75,4,.14.14,0,0,1-.14.14c.14.15.14,0,.14,0a13,13,0,0,0,1.44-1.44,11.24,11.24,0,0,1,2-1.59s.15,0,.15-.14c.29-.14.43-.43.72-.43a2,2,0,0,0,.86-.29h.15c.14,0,.14,0,.14.14v.29c-.29.29-.57.43-.86.72a1.1,1.1,0,0,1-.58.29,10.81,10.81,0,0,0-2,1.59c-.58.43-1,1-1.59,1.44-.72.58-1.29,1.15-2,1.73-.57.43-1,1-1.58,1.44-.15.15-.15.15-.15.29a2.56,2.56,0,0,1-.72,1c-1.44,1.59-2.74,3.17-4,4.76-.86,1-1.58,2-2.45,3.17-1.15,1.45-2.16,3-3.32,4.48A6.31,6.31,0,0,1,80,58.3a19.61,19.61,0,0,0-2.31,2.59c-.87,1.16-1.88,2.45-2.74,3.61-.15.29-.43.58-.58.86a5.51,5.51,0,0,0-.14.87A1.11,1.11,0,0,1,74,67l-1.3,2.6c-.14.43-.43.72-.43,1.15,0,.15-.15.43-.15.58a5.05,5.05,0,0,1-.57,1.3c0,.14-.15.28-.15.43a9.46,9.46,0,0,1-.86,2.16c-1.59,3.46-3.46,6.64-5.19,10-.44.73-.87,1.45-1.16,2-1.15,1.88-2,3.75-3,5.63-1.73,3-3.17,6.2-4.76,9.37a36.4,36.4,0,0,0-1.44,3.47,20,20,0,0,1-1.15,2.45c0,.14-.15.29-.29.43a14.1,14.1,0,0,0,8.65,3.9c3.32,0,6.64-1,9.95-.73,3,.29,5.05-.72,8.08-.28,1,.14,2.89,1.15,3.9,1.15V110.8l.43-.87c.86-1.58,1.59-3,2.45-4.61l2.6-4.33A16.81,16.81,0,0,1,91,99c.29-.43.72-.86,1-1.3.14-.14.29-.14.29-.43a1.23,1.23,0,0,0-.72,0c-.29,0-.58-.14-.87-.14-.14,0-.29-.15-.14-.29s.14-.15.14-.29a2.52,2.52,0,0,1,1-.14,2.37,2.37,0,0,0,1-.15,6.56,6.56,0,0,0,2.31-1,25.82,25.82,0,0,1,2.59-1.59c.58-.28,1.3-.72,1.88-1a14.91,14.91,0,0,0,2-1.16c.43-.29.86-.43,1.3-.72a48,48,0,0,0,4.61-2.45c.15,0,.15-.15.29-.15a24.06,24.06,0,0,1,2.6-1.44,5.84,5.84,0,0,0,1.3-.72c.14-.14.43-.29.57-.43l.15-.15a3.64,3.64,0,0,0,1.29-1.3,4.25,4.25,0,0,1,.87-.72c.14,0,.14-.14.29,0s0,.15,0,.29a3.4,3.4,0,0,1-.43.72l-.44.44v.28h.29a11.5,11.5,0,0,1,2.31-.28,36,36,0,0,1,3.89.14,4.44,4.44,0,0,1,1.88.43h.14a32.65,32.65,0,0,1,7.22,2.31c.14.15.43.15.57.29a26.65,26.65,0,0,0,3.32.72c.29,0,.43.14.72.14a1.53,1.53,0,0,0,1.15,0,1.36,1.36,0,0,1,.73-.14,1.31,1.31,0,0,0,1-.43c.14-.15.14-.29.28-.29s.15-.14.15-.29a6.54,6.54,0,0,0-.15-2.88c-.28-1-.72-2-1-3.18a4.55,4.55,0,0,0-1-1.87,2.29,2.29,0,0,1-.43-.58,6.17,6.17,0,0,0-1.44-1.3c-.87-.43-1.59-1-2.31-1.44a16.8,16.8,0,0,0-2.88-1.3c-.58-.29-1.16-.43-1.88-.72a1.86,1.86,0,0,0-.86-.14,8.71,8.71,0,0,1-2.74-.72,5.08,5.08,0,0,0-1.59-.58c-.14,0-.29-.15-.43,0a.63.63,0,0,1-.72-.15,3.37,3.37,0,0,1-1.3.87c-.15.14-.29.14-.58.29s-.43-.15-.43-.43a.73.73,0,0,1,.29-.58c.14-.15.43-.29.57-.43V72c-.14,0-.14-.15-.29-.15a5.57,5.57,0,0,1-1.29-.72L117,71a4.23,4.23,0,0,1-1.87-2,8.23,8.23,0,0,1-.58-1.15c-.14-.44-.58-.73-.72-1-.29-.58-.58-1.3-.87-1.88-.43-1.15-.86-2.31-1.29-3.6a1.29,1.29,0,0,1-.15-.73c0-.14-.14-.43-.29-.43a.32.32,0,0,0-.29.29c-.14.29-.14.58-.28.87s-.29.43-.58.43c0-.15-.15-.15-.15-.29a1.25,1.25,0,0,1,.15-.72,7.28,7.28,0,0,0,.43-1,2,2,0,0,0,.29-.87c0-.14.14-.29.14-.43s.44-.43.44-.86a2,2,0,0,1,.29-.87,9.71,9.71,0,0,0,.28-1c.29-.58.44-1.15.73-1.73.14-.58.43-1,.57-1.59a15.34,15.34,0,0,1,1.16-2.74A18.49,18.49,0,0,1,116,46.76a2.19,2.19,0,0,0,.44-1.88v-1c-.15,0-.29,0-.29.15a17.36,17.36,0,0,0-2.31,2.45,10.22,10.22,0,0,1-1.15,1.3,20.29,20.29,0,0,0-1.45,1.87,2.57,2.57,0,0,1-.57.72.52.52,0,0,1-.29.15c-.15-.29,0-.58.14-.87a3.68,3.68,0,0,1,.43-.72,10.67,10.67,0,0,0,1.16-1.59A9.53,9.53,0,0,1,113.21,46c.29-.29.58-.73.87-1l1.3-1.3a11.07,11.07,0,0,0,2-2.45,3,3,0,0,1,.57-.72,16.47,16.47,0,0,0,2-2.31,3.9,3.9,0,0,1,1-1.16l1.73-1.73c0-.14-.14-.29-.14-.43-.44.14-.72.29-1.16.43a5.57,5.57,0,0,1-1.29.72,3.25,3.25,0,0,0-1,1,17.18,17.18,0,0,1-2.17,2.6,9.33,9.33,0,0,1-2.45,1.73c-.14.14-.29.14-.58.14h-.43a.3.3,0,0,1,0-.57.73.73,0,0,1,.58-.29,8.34,8.34,0,0,0,2.59-1.88,13.8,13.8,0,0,0,1.59-1.44l.43-.43a.52.52,0,0,0,.15-.43c.57-.44,1.15-.87,1.58-1.16s.44-.43.58-.57a2.62,2.62,0,0,0,.72-.58c-.14-.15-.43-.15-.57-.29s-.29-.14-.44-.43-.29-.44-.43-.72,0-.29-.14-.29c.14-.15.28-.15.43-.29a4.49,4.49,0,0,0,1.15,1.15c.15,0,.15-.14.15-.29a2.12,2.12,0,0,1,.28-.86.49.49,0,0,1,.29.14c0,.15.15.29.15.58a1.89,1.89,0,0,0,.43,1.15c0,.15.14.15.14.29a14.47,14.47,0,0,0,2,1.16l1.73.86a8.32,8.32,0,0,1,1.16.58,7.06,7.06,0,0,0,1.87.72,3.17,3.17,0,0,1,1.73.87c.44.28.73.57,1.16.86s.58.43.86.58.15.14.29.14a4.35,4.35,0,0,1,1.3.44,14,14,0,0,0,2.16.72h.44c.14-.15.43-.15.72-.15a1.84,1.84,0,0,0,.86-.14c.72,0,1-.43,1.16-1.16a3,3,0,0,0-.58-2.16c-.72-1-1.59-1.87-2.31-2.88-.14-.29-.43-.44-.57-.73s-.44-.57-.58-.86-.15-.43-.29-.58a15.41,15.41,0,0,1-2-2.31,4.5,4.5,0,0,0-.86-.72,16.39,16.39,0,0,0-3.75-2.16c-.15-.14-.44-.14-.58-.29a19.89,19.89,0,0,1-2.6-1A20,20,0,0,1,124,25a4.7,4.7,0,0,0-2-.58h-2.74a4.12,4.12,0,0,0-1.3.14c-.57.29-1.3.44-1.87.73a2.11,2.11,0,0,1-.87.28c-.29.15-.43,0-.43-.14s0-.29.29-.43c.14,0,.14-.15.29-.15a19.77,19.77,0,0,1,2.59-1c.29-.14.43-.14.72-.29a2.15,2.15,0,0,1,1-.28h1.73a.56.56,0,0,1,.44.14,23,23,0,0,0,2.88,1.15c.72.29,1.44.44,2.16.73.87.28,1.59.43,2.46.72.14,0,.29.14.57.14a17.63,17.63,0,0,1,3.47,2.16.48.48,0,0,0,.28.15,5.47,5.47,0,0,1,1.3-.58h.15c.14,0,.28.15.14.29s-.14.29-.29.43-.29.15-.57.29A.53.53,0,0,0,134,29l.44.43a28.33,28.33,0,0,1,3,2.88l.29.29a10,10,0,0,0,1.3,2c.58.58,1.15,1.3,1.73,1.88a4.08,4.08,0,0,1,1.16,2,2.56,2.56,0,0,0,1.44-.58.88.88,0,0,0,.14-1C142.78,37.09,142.64,36.8,142.64,36.52Z"/><path class="cls-14" d="M143.07,34.93c0-.14-.14-.29-.14-.58-.29-.43-.44-1-.73-1.44a7.45,7.45,0,0,1-.72-1.44c-.43-.87-.72-1.73-1.15-2.6-.15-.29-.15-.43-.29-.72a4.9,4.9,0,0,0-1.59-1.87,4.35,4.35,0,0,0-1-.73A5.61,5.61,0,0,0,136,24.4c-.43-.29-.72-.58-1.15-.87-.58-.57-1.3-1-2-1.58-1-.72-2.16-1.3-3.17-2a5.84,5.84,0,0,0-1.3-.72,1.8,1.8,0,0,0-1.45-.29c-.57,0-1.15.14-1.73.14a1.77,1.77,0,0,0-.86.15,38.88,38.88,0,0,0,7.21,3.89l.14-.14a.31.31,0,0,1,.29-.29c.15,0,.15.14.29.29v.29c0,.28.29.43.43.57a30.56,30.56,0,0,1,3.61,2.46c.14.14.29.14.43.28A20.93,20.93,0,0,1,139,29.3c.43.58.72,1,1.15,1.59a6.3,6.3,0,0,0,.73,1,33.22,33.22,0,0,0,2,3,.49.49,0,0,0,.28.14C143.07,35.07,143.07,35.07,143.07,34.93Z"/><g class="cls-15"><path class="cls-9" d="M139.18,26.13l-1-1a1,1,0,0,0-1.3-1.44c-.15,0-.15.14-.29.14a76.41,76.41,0,0,0-7.21-4.61.9.9,0,0,0-.87,0,.14.14,0,0,1-.14-.15.79.79,0,0,0-1.16.29c-2.88-1.15-6.2-1.87-8.94,0a.87.87,0,0,0-.43.87v.29a3.58,3.58,0,0,0-1.73,1.15,1,1,0,0,0,.14,1.44,1.38,1.38,0,0,0,.43,1.73c-1.73.44-3.89,1.16-4,3a1.84,1.84,0,0,0,.57,1.73l-.43,1.3A1,1,0,0,0,113.5,32a3.24,3.24,0,0,0,1.15-.14c.15,0,.15,0,.29-.14a.78.78,0,0,0,.58.29.53.53,0,0,0,.29.72,5.63,5.63,0,0,0-1.3.72c-.87.43-.29,1.87.58,1.73h0a9,9,0,0,0-1.3,1.15c-.58.58,0,1.73.72,1.59a1.08,1.08,0,0,0,.58-.15c-.44.73,0,1.59.86,1.45-.29.14-.43.43-.72.72-.72.72.29,1.87,1.16,1.3,1.44-1,3.6-2.31,4.47-3.9l.29-.29a7.8,7.8,0,0,0,3.17-.57c.29.14.72.43,1,.57a1,1,0,0,0,1.44-.86,1,1,0,0,0,.87-1.3.93.93,0,0,0,.86-1.3c0-.14-.14-.29-.14-.43.57-.15,1-.72.86-1.15.15,0,.29,0,.29-.15a3.86,3.86,0,0,0,1.3.15c.29,0,.43,0,.58-.15.28.15.72.15,1,.29a1,1,0,0,0,1-1.59c-.15-.14-.29-.29-.29-.43a1.37,1.37,0,0,0,.57-.72h0c.29,0,.73,0,.87-.29a10,10,0,0,0,1-1.59c.14-.28.43-.57.58-.86.43.29,1,.72,1.44,1C138.89,28.29,140,27,139.18,26.13Z"/><path class="cls-10" d="M118,39.69V38.54A1,1,0,0,0,116.1,38l-.15.14a33.69,33.69,0,0,0,1.45-4c.28-.72-.44-1.29-1-1.29a7.39,7.39,0,0,0,.57-1.88c.29-1-.86-1.59-1.73-1.15,0-.29.15-.44.15-.72,0-.73-.29-1.16-.87-1.3,1.15-1.59,2.74-2.89,3.46-4.91v-.43c.15-.14.15-.29.29-.58a1,1,0,0,0-.86-1.44.68.68,0,0,0-.15-.86c.15-1-1.3-1.3-1.87-.72-.29.28-.58.43-.73.72-2.45.86-4.61,3.31-6.34,4.76a71.56,71.56,0,0,0-8.8,7.35c-1.73,1.73-3.75,4.62-3.89,7.21A2,2,0,0,0,97.49,41a1,1,0,0,0,1.73.72l.58-.58-.87,1.73c-.29.72.44,1.88,1.3,1.45a12.14,12.14,0,0,0,1.44-.87,17.43,17.43,0,0,0-1,2.88,1.05,1.05,0,0,0,1.16,1.3h.43c0,.15-.14.29-.14.44-.29.86.28,2,1.29,1.58a5.16,5.16,0,0,0,1.45-1,1.07,1.07,0,0,0,1.15-.14,6.81,6.81,0,0,0-.87,3.46,1.08,1.08,0,0,0,1.74.87.48.48,0,0,0,.28-.15,6,6,0,0,0-.72,2.74,1.1,1.1,0,0,0,1.73.87c.29-.15.58-.44.87-.58h0a1.15,1.15,0,0,0,2.16.43c.44-.86.87-1.58,1.3-2.45a1.12,1.12,0,0,0,1.15-.29,12.4,12.4,0,0,0,2.17-6.2,16.47,16.47,0,0,0,1.3-2.74,34.7,34.7,0,0,0,2.16-3.89C120.28,39.83,118.69,39,118,39.69Z"/><path class="cls-6" d="M141.34,79.07a.73.73,0,0,0-.58-1c-1.73-.15-3.17-1.45-5-1.16s-2.88,2.17-3.75,3.32a6.4,6.4,0,0,0-.86,2,2.23,2.23,0,0,0-2,2.31v.29A3.21,3.21,0,0,0,127.49,88a1.57,1.57,0,0,0,1.16,1.3c.14.14.14.29.43.43,3.17,2,7.93,2.6,10.82-.29a7.6,7.6,0,0,0,2-5.19,1.9,1.9,0,0,0,.14-.87A6.15,6.15,0,0,0,141.34,79.07Z"/><path class="cls-6" d="M135.57,80.8a1.11,1.11,0,0,0,1-1.44A10.36,10.36,0,0,0,132,75c-1.44-1-2.74-1.73-3.89-2.45-.72-.44-1.44.28-1.59,1a1.08,1.08,0,0,0-.72,1V75a.82.82,0,0,0,.15.57.89.89,0,0,0-.44,1,.53.53,0,0,0,.15.44,2.49,2.49,0,0,0-.72,1,2.37,2.37,0,0,0-.15,1,5.42,5.42,0,0,0-1.3.57,1.19,1.19,0,0,0-.14,1.73h0a.65.65,0,0,0,0,.73c.14.28.29.43.29.57a5.73,5.73,0,0,0-3.75.72.93.93,0,0,0-.29,1.16,6.8,6.8,0,0,0,5.91,2.88c1.88,1.16,3.9,2.31,5.77,3.46,1,.58,1.73-.86,1-1.58l-.86-.87H131c-.57-.43-1.29-.86-1.87-1.3.29,0,.58-.14.86-.14h.73c.28,0,.57-.29.86-.58l.14-.14a2.12,2.12,0,0,0,.58-.43,1,1,0,0,0-.14-1.45,4.74,4.74,0,0,0,3.46-.72,1.17,1.17,0,0,0,.14-1.73,5.17,5.17,0,0,0-1.44-1c0-.14.15-.14.15-.29A2.68,2.68,0,0,0,135.57,80.8Z"/><path class="cls-10" d="M126.34,71c-1.44-.72-2.74-1.59-4.19-2.45a22.14,22.14,0,0,0-3-1.73,1.06,1.06,0,0,0-1,1.87.52.52,0,0,0,.14.43,8.59,8.59,0,0,1,2,3.75V73h-.14c-.44,0-.87.14-1.3.14-1.73.44-3.18,1.88-2.6,3.75a4.83,4.83,0,0,0,1.16,1.59,13.59,13.59,0,0,0,1,2.88c-1.15,1-3.6,1.16-4.9,1.88-.86.43-1.15,1.59-.14,2a9.86,9.86,0,0,0,5,.43c.44.15,1,.15,1.45.29h0a.88.88,0,0,0,1,.14,10,10,0,0,1,1.15.44c.87.57,1.73-.72,1.3-1.45,0-.28-.15-.43-.15-.72a.73.73,0,0,0-.28-.57c.14-.15.14-.29.28-.58.15,0,.15-.14.29-.14a1,1,0,0,0,.72-1,4.79,4.79,0,0,0,.58-1.74c.15-.28.15-.57.29-.86a1.2,1.2,0,0,0,1.3-1.44c0-.15-.15-.29-.15-.58a13.29,13.29,0,0,0,1.88-3C128.65,73,127.92,71.85,126.34,71Z"/><path class="cls-11" d="M119.27,73.44a1.3,1.3,0,0,0-.14-1,1.19,1.19,0,0,0,.28-1.15,1,1,0,0,0-.57-1.16h-.15a1,1,0,0,0-.57-1,2.29,2.29,0,0,0-.58-.43c-.29-.14-.72-.14-1-.29l.14-.14a1.14,1.14,0,0,0-.14-1.59,2.89,2.89,0,0,0-.87-.57,1.15,1.15,0,0,0-.72-2h-.14a1.09,1.09,0,0,0-1-.73.5.5,0,0,0-.43.15,4.25,4.25,0,0,0,.72-.87c.43-.43.43-.86.14-1.15.29-1-1.15-2-1.87-1l-.44.43c-.14,0-.14.15-.28.15h0a9.62,9.62,0,0,0,.57-1.88v-.58a3.25,3.25,0,0,1,.58-.86c.58-1-.43-1.73-1.3-1.44a8.16,8.16,0,0,0,.29-1.88,1.19,1.19,0,0,0-1.44-1,8.12,8.12,0,0,0-1.88,1.16l-.14-.15c.29-1.3,0-3.32-1-4a1,1,0,0,0-.15-.57,1.12,1.12,0,0,0-1.15-.72h0c0-.15.14-.15.14-.29.44-1-.86-2-1.58-1.16a2.56,2.56,0,0,0-.72,1c0-.14.14-.29.14-.43a.9.9,0,0,0-1-1.15,5.72,5.72,0,0,0,.15-1.59,1,1,0,0,0-1.45-.87,1.08,1.08,0,0,0-1-.72c0-.14,0-.14-.14-.29.14-.43.29-.72.43-1.15a1.06,1.06,0,0,0-1.73-1.15c-.14.14-.29.14-.43.28H98.5c0-.28-.14-.57-.14-.86s.14-.29.14-.43a.88.88,0,0,0-.43-1v-.15a.91.91,0,0,0-1.3-.57.49.49,0,0,0-.29.14c-.14,0-.14-.14-.29-.14C93.6,38.82,91.86,42,90.57,44c-2.31,3.46-5.34,6.2-7.07,9.95-.29.72.43,1.3,1.15,1-.43.58-.86,1.15-1.3,1.87s0,1.73,1,1.45a4.64,4.64,0,0,0,2.17-1.88l2.16-3a39.5,39.5,0,0,0-3.17,5.34.9.9,0,0,0,1.3,1.15,11.14,11.14,0,0,0,3.6-3.75.62.62,0,0,0,.72,0c.15-.14.29-.14.44-.29a19.34,19.34,0,0,0-2.74,5.49c-.29.72.57,1.29,1.29,1.15a.49.49,0,0,0,.29-.14,7.44,7.44,0,0,0-.86,2.3,1,1,0,0,0,1.3,1.16,4.76,4.76,0,0,0,1.87-1.88.62.62,0,0,0,.72,0l.15-.14a21.19,21.19,0,0,0-1.45,3.89,1,1,0,0,0,1.3,1.16,3.28,3.28,0,0,0,1.16-.73.89.89,0,0,0,1.15.29,3.29,3.29,0,0,0,1.59-1.15A5.74,5.74,0,0,0,96.62,71a1.08,1.08,0,0,0,1.59.58,8.33,8.33,0,0,0,1.16-.87,3.86,3.86,0,0,0-.15,1.3c-1.15,1.44-1.44,3.32-1.87,5.19a1,1,0,0,0,1.44,1,5.15,5.15,0,0,0-.72,1.59c-.29.86.57,1.87,1.44,1.3l.14-.15h0c-.43.87.58,2,1.3,1.3l.15-.14h0c.14-.15.28-.29.43-.29h.14c.15,0,.15,0,.29.14-.43.87-2,2-1.44,3.17a1.74,1.74,0,0,0,1.73,1,8.37,8.37,0,0,0,2.45-1h0a12.6,12.6,0,0,1-1,.87c-1,1-2.31,2.16-2.45,3.75a1.19,1.19,0,0,0,1.3,1.44c1.87,0,3.46-1,5.19-1.87a.78.78,0,0,0,.58.29,9.58,9.58,0,0,0,3.46,0,.93.93,0,0,0,.72-.87h0c.58-.14,1.15-.14,1.88-.29a10,10,0,0,0,4-1.73c.29-.14.29-.43.15-.72a2.48,2.48,0,0,0-.43-3.32,2.21,2.21,0,0,0,.43-.57.56.56,0,0,0,.14-.44,1.3,1.3,0,0,0,.72-2,2.94,2.94,0,0,0-1-1.58c1-.44,2.17-.72,2.6-1.88A3,3,0,0,0,119.27,73.44Z"/><path class="cls-12" d="M103,83.68a8.5,8.5,0,0,1-1.44-3.32,10.28,10.28,0,0,1,.58-3.6c.57-2.31,1-4.33.43-6.64A25.47,25.47,0,0,0,99.8,64.5c-1.16-2-1.73-4-3.32-5.92-1.3-1.44-3-2.59-3.89-4.47-.58-1.44-.87-3.17-2-4.32-2.31-2.46-6.35.14-8.22,1.87a5.22,5.22,0,0,0-.87,1A8.93,8.93,0,0,0,80,54.55c-1.3,1.73-2.6,3.31-3.9,5A47.15,47.15,0,0,0,69.8,69.84c-.58,1.29-1.16,2.59-1.73,3.75a10.26,10.26,0,0,0-1,3.46c.14,1.87,1.73,2.16,3.17,1.58a1.65,1.65,0,0,0,.86.87c.58.29.73.14.58.86-.29,1.74-2.45,4.76.15,5.77,1.58.73,3.46-.72,4.9-1.29-.58,1.58-.87,3.17.43,3.75a2.74,2.74,0,0,0,1,.28c0,1.59.58,3,2.31,3.47a7,7,0,0,0,3.75-.58c.87-.29.29,2.45.29,2.74a2.22,2.22,0,0,0,.86,2,5.84,5.84,0,0,0,1.3.72,1.54,1.54,0,0,0,1.16.14c.28,0,.72.15,1,.15a1.67,1.67,0,0,1,1,.72,2,2,0,0,0,.43,1.73c.14.29.14.72.29,1a1.67,1.67,0,0,0,.72.72,1,1,0,0,0,1.44.72h.14c1.59.29,3.47-.57,4.91-1.29a.83.83,0,0,0-.15-1.59,8.39,8.39,0,0,1,1.16-.72l3-2.17a14.79,14.79,0,0,0,2.45-1.73c1.15-1.3,1-3,1-4.61A16,16,0,0,0,103,83.68Z"/><path class="cls-13" d="M91.14,92.91a16,16,0,0,0-6.2-6.2c-2.74-1.59-4.9-2.88-6.63-5.62-1.3-2-2.74-4.76-5-5.63a5.3,5.3,0,0,0-1.59-.29c0-.14-.14-.14-.29-.29-1.44-1.29-2.88.29-3.75,1.45h0a4.59,4.59,0,0,0-1.58,2.16,97.52,97.52,0,0,0-7.5,13.13,14.32,14.32,0,0,0-2,7.35c.14,2,2,1.88,3.31,1a9,9,0,0,0,1.3-1.15c-.14.43-.29,1-.43,1.44-.29,1,1.15,1.59,1.73.87,1.15-1.16,4.76-8.66,5.91-8.08s-3.17,7.93-1.44,9.81c1.44,1.44,3.61-.87,4.62-1.73,1.58-1.59,2.88-3.76,4.76-5a14.24,14.24,0,0,1-1,2.59c-.44,1.16-1,2.31-1.44,3.61-.58,1.87-2.46,4.61-1,6.63a1,1,0,0,0,1.29.44c3.61-1.73,5.34-5.34,8.08-8.08-1.15,3.32-2.74,8.08.43,7.93a3.59,3.59,0,0,0,2.74-1.87,9.11,9.11,0,0,0-.14,2,1,1,0,0,0,1.15,1c2,.14,3.32-1.73,4.19-3.18.57-.86,1-1.87,1.58-2.74.58-1.15,1.59-2.16,2-3.46C95,98.25,92.44,95.22,91.14,92.91Z"/></g><g class="cls-15"><path class="cls-16" d="M143.79,34.64v-.29h0v-.43a16.87,16.87,0,0,0-2.45-4.47l-.43-.43a11.11,11.11,0,0,0-1.73-2.74,1.11,1.11,0,0,0-1.45-.15h0a1,1,0,0,0-1-.29l-.29-.29a.79.79,0,0,0-1.29.29c-.15-.14-.29-.14-.44-.29-.43-.28-.86,0-1.15.29-.72-.57-1.59.58-1.15,1.3l.43.87a.42.42,0,0,0,0,.57,7.35,7.35,0,0,0,.58,1.16l-.15.14a.63.63,0,0,0-.72.15l-.29-.29c-.72-.72-1.87.29-1.3,1.15a15.84,15.84,0,0,0,1.45,1.73c-.29-.29-.58-.72-.87-1a.92.92,0,0,0-1.3.15,1.86,1.86,0,0,0-.86.14c-.29-.14-.44-.29-.72-.43-.73-.43-1.45.57-1,1.15l.86,1.3a7.38,7.38,0,0,1-1-.58.45.45,0,0,0-.58,0,3.13,3.13,0,0,0-1.15-.72c-.72-.29-1.44.43-1.15,1,0,.29,0,.58.29.72a.14.14,0,0,1,.14.15c-.14.29,0,.72.29.72a2.76,2.76,0,0,0,1,.29h0c.14,0,.29.14.43.14s0,.15.14.15a17.3,17.3,0,0,0,5.34,4.32c1.88,1.16,3.32,2.6,5.48,3.32a.87.87,0,0,0,1-1.15h0a.77.77,0,0,0,.72-.73v-1s.15,0,.15.14a1,1,0,0,0,1.44-.87V39.4a2.11,2.11,0,0,0,.58.58c.43.58,1.58.14,1.58-.58V38.25a1.24,1.24,0,0,0,.87-1,8.77,8.77,0,0,0-.29-2A.72.72,0,0,0,143.79,34.64Z"/></g><path class="cls-16" d="M96.91,76c.29-.58.72-1,1-1.59a16.78,16.78,0,0,0,0,3.75,1.12,1.12,0,0,0,1.3,1,1.11,1.11,0,0,0,1.73-.72,29.64,29.64,0,0,0,1-4.9A23.39,23.39,0,0,1,103.69,68c.44-1,.87-2,1.16-2.88v-.15A36.72,36.72,0,0,0,107,59.45c.29-.87.72-1.59,1-2.45a56,56,0,0,1,5.91-10.24c2-2.89,4.47-5.63,6.35-8.66a.69.69,0,0,0-.14-.86A24.31,24.31,0,0,0,122,35.07a19.36,19.36,0,0,0,4.33,2,24.06,24.06,0,0,0,2.59,1.45l5.63,2.59c1.59.72,3.89,1.59,5.05,0,.14-.14.14-.57-.15-.57a1.06,1.06,0,0,1-.72-.15l-.14-.14a22.93,22.93,0,0,1-3.32-1.3,33.31,33.31,0,0,0-3.89-1.88,35.45,35.45,0,0,1-4.19-1.87c-.29-.15-.43-.29-.72-.29a12.74,12.74,0,0,0-1.58-.72,4.88,4.88,0,0,1-1.59-2.74c0-.58-.87-.58-1,0a3.91,3.91,0,0,0,.29,1.87h-.29a3.68,3.68,0,0,1-1.59-1.73c-.14-.43-.72-.43-1,0-.43.87-.14,1.44.44,2.17-3,2.74-7.22,7.06-11.54,6.2-1.16-.29-1.88,1.58-.72,2a7.53,7.53,0,0,0,3,.57c-1.58,2.31-2.59,5.2-4,7.65a2.63,2.63,0,0,0-3-1.44c-.87.14-.87,1.29-.44,1.87a6.93,6.93,0,0,0,1.73,1.3c.15.43.15.72.29.87s.15.28.29.43c-.86,2.16-1.58,4.33-2.45,6.34a43.51,43.51,0,0,1-4,7.22,65.7,65.7,0,0,0-4,6.92,16.18,16.18,0,0,1-5.33,5.91,29,29,0,0,0-5.49,3.75c-.57.58.29,1.59,1,1.16,1.88-1.3,4-2.31,6.06-3.46"/><path class="cls-16" d="M142.49,38.82c-.29-.57-.86-1-1.15-1.58s-.87-1.59-1.3-2.45a13.29,13.29,0,0,0-3.17-3.18,23.73,23.73,0,0,0-4.33-4.18A25.12,25.12,0,0,0,125.76,24c-.58-.15-1.3-.44-1.87-.58s-1-.43-1.59-.72c-2.45-.72-5.19,1-7.07,2.16-2.45,1.59-5.19,2.31-7.64,4-1.59,1.16-4.33,2-4.91,4.18a.44.44,0,0,0,.72.44,57.81,57.81,0,0,1,4.91-3.32c2.16-1.44,4.47-2.16,6.78-3.32,1.58-.86,3-2,4.76-2.45h0a22.38,22.38,0,0,0,2.88.43l1.73.44A32.2,32.2,0,0,0,128.21,27h0a30.61,30.61,0,0,1,4.62,3,27.12,27.12,0,0,1,4.61,5.33,9.79,9.79,0,0,0,2.89,3c.58,1,1.44,1.88,2.31,1C142.64,39.11,142.64,39,142.49,38.82Z"/><path class="cls-16" d="M143.07,37a23.62,23.62,0,0,0-4.9-9.38c-2.46-2.88-6.21-4.32-9.24-6.49-.57-.43-1.15.29-.72.87,2.6,2.45,5.77,3.89,8.37,6.34s3.6,6.21,5.91,9C142.78,37.38,143.07,37.24,143.07,37Z"/><path class="cls-16" d="M137.3,88.3a49,49,0,0,1-11.54-4.47c-2.16-1.16-5.62-1.88-7.93-.58h-.58c-.43.14-.86.14-1.3.29h-.86c-.29,0-.58.14-.58.43a.14.14,0,0,1-.14-.14h0c.28-.44.57-.72.57-1.16.15-.29,0-.57-.43-.57-.87.14-1.87,1.29-2.74,2.16.29-.29.43-.58.72-.87.15-.14,0-.43-.29-.28l-1.3.86a2.37,2.37,0,0,0,.15-1c0-.43-.29-.86-.58-.86a2.29,2.29,0,0,0,.29-.73c.14-.28-.14-.72-.58-.43a9.27,9.27,0,0,0-2.3,3c-.29.43-.58,1.15-1,1.88a16.87,16.87,0,0,0,.72-2.74c0-.15-.29-.44-.44-.15a16.32,16.32,0,0,0-2.3,4.47A22.35,22.35,0,0,0,103,89c-1.3.72-2.74,1.73-4,2.45-.57.29-1.15.87-1.87,1.3,0-.29,0-.43-.29-.58.72-2.45,1.59-4.76,2.45-7.21.15-.29-.29-.58-.43-.29a21.13,21.13,0,0,0-2.89,7.93.53.53,0,0,0,.58.58h.43a4,4,0,0,1-1.73.58.45.45,0,0,0-.14.86c1,.44,1.73.15,2.74-.57,1.44-1,3-1.88,4.61-2.89a.65.65,0,0,0,.73,0,12.39,12.39,0,0,0,1.44-1.3c.86-.57,1.87-1,2.74-1.58.14.14.43,0,.58-.15a.47.47,0,0,0,.72,0,4.21,4.21,0,0,1,.86-.72.5.5,0,0,0,.15-.72l.14-.14c.14,0,.14.14.29.14,1.15.43,2.88-.72,3.89-2h0a2.94,2.94,0,0,0,3,.58h.72a12.43,12.43,0,0,1,4.62.86,20.06,20.06,0,0,0,3.17.58,14.16,14.16,0,0,0,4.19,1.44,22.54,22.54,0,0,0,2.88.87,6.78,6.78,0,0,0,5.05,0A.47.47,0,0,0,137.3,88.3Z"/><path class="cls-16" d="M122.88,73.73a5.87,5.87,0,0,0-2.46-1.3A42.4,42.4,0,0,0,116,69.84c-1.44-.87-3-1.88-4.47-2.75-.14-.14-.43-.28-.72-.57a8.28,8.28,0,0,1-1.44-1.73.51.51,0,0,0-.72-.15c1-2.31,2.3-4.47,2.74-6.92a43.84,43.84,0,0,0,3.17-9.23.4.4,0,0,0-.72-.29l-3.46,7.36-.15.14a46.66,46.66,0,0,0-2.88,6.06c-.43,1.3-1.16,2.88-.58,4.18.29.58,1.16.29,1-.29v-.29a.78.78,0,0,0,.72-.43v.15a5.24,5.24,0,0,0,.58,1.29c0,.15-.14.15-.14.29-.29.15-.29.43-.15.87a9.54,9.54,0,0,0,1.59,1.87,11.85,11.85,0,0,1-2.89-1.73.51.51,0,0,0-.72.72,18,18,0,0,0,5.77,3.46,16,16,0,0,0,5.34,1.3,44.55,44.55,0,0,1,4.61,1C122.88,74.31,123,73.87,122.88,73.73Z"/><g class="cls-17"><path class="cls-18" d="M104.85,33.49c-7.07,2.31-12.41,8.65-16.59,14.42-2.6,3.61-5.34,7.07-8.08,10.53a27.85,27.85,0,0,1-3.75,4.47c-1,1-2.16,2-2.31,3.61a.41.41,0,0,0,.72.29,13.41,13.41,0,0,1,3-3.32,40.44,40.44,0,0,0,3.9-4.62c2.59-3.31,5.19-6.63,7.64-9.95a61.87,61.87,0,0,1,6.93-8.22,79.18,79.18,0,0,1,8.79-6.78C105.13,33.78,105,33.49,104.85,33.49Z"/><path class="cls-18" d="M133.84,30.6c-2.45-2.45-6.2-3.46-9.23-4.76-.44-.14-.87.44-.29.72,3.17,1.59,6.78,2.6,9.23,5.2,2.16,2.16,3.46,5,6.2,6.63.15.15.43-.14.29-.29C137.88,35.65,136.15,32.77,133.84,30.6Z"/><path class="cls-18" d="M141.77,36.37a20.34,20.34,0,0,0-4.61-7.79c-2-2.3-5.34-3-7.36-5.33-.14-.29-.58.14-.43.28,1.58,2,4,3,6,4.62,2.75,2.16,4,5.63,6.06,8.37C141.48,36.66,141.77,36.52,141.77,36.37Z"/><path class="cls-18" d="M120.42,19.5a.22.22,0,0,0,0,.43,10.56,10.56,0,0,1,2.89.72c.14,0,.29-.14.14-.29A3.93,3.93,0,0,0,120.42,19.5Z"/><path class="cls-18" d="M127.35,19.35c1,.43,2.16.87,3.32,1.3.14,0,.28-.14.14-.14a8.18,8.18,0,0,0-3.17-1.59C127.2,18.63,127.06,19.21,127.35,19.35Z"/><path class="cls-18" d="M132,76.76c-.43-.29-.86.43-.43.72A15.39,15.39,0,0,1,135,82.1a15.78,15.78,0,0,1,1.16,2.74c.28.72.28,1.29.86,1.73a.36.36,0,0,0,.58-.15c.86-1.3-.72-3.89-1.44-5.19A13.94,13.94,0,0,0,132,76.76Z"/></g><path class="cls-19" d="M143.93,34.64a5.05,5.05,0,0,0-.57-1.3,18.74,18.74,0,0,1-1.16-2.45c0-.14,0-.14-.14-.29a8.25,8.25,0,0,1-.72-1.73,6.24,6.24,0,0,1-.43-1A5.89,5.89,0,0,0,139,25.55a3.46,3.46,0,0,1-.86-.72c-.44-.29-.87-.72-1.3-1a6.41,6.41,0,0,1-1.59-1.15,6.17,6.17,0,0,0-1.59-1.15c-1.15-.73-2.3-1.45-3.31-2.17a10,10,0,0,0-1.59-1,2,2,0,0,0-1.59-.29c-1,.15-1.87.15-2.88.29a13.34,13.34,0,0,1-2.45,0c-.44,0-.87-.14-1.3-.14a1.9,1.9,0,0,0-.87.14c-.14,0-.29.15-.43.15a10.24,10.24,0,0,0-3.61,1.58c-.72.58-1.44,1-2.16,1.59-1,.72-2,1.44-3,2.31a6.54,6.54,0,0,1-1.58,1.15.15.15,0,0,0-.15.15c0,.28-.29.28-.43.43A24.78,24.78,0,0,0,105,27.57a4.21,4.21,0,0,1-1,.72c-.29.29-.58.44-.86.73l-.29.28c-.29.15-.44.44-.72.73s-.44.57-.58.86a11.07,11.07,0,0,1-2.6,2.6,7.46,7.46,0,0,0-1.58,1.44c-.44.58-.87,1-1.3,1.59a32.49,32.49,0,0,0-2.74,3.6,7.75,7.75,0,0,1-1,1.3,15.41,15.41,0,0,0-2,2.31c-.15.14-.29.43-.43.58-1.16,1.29-2.31,2.74-3.47,4-2.16,3.18-4.32,5.77-6.34,8.37l-2.17,2.6a19.19,19.19,0,0,0-2,2.74,12.06,12.06,0,0,1-1.15,1.73,29.83,29.83,0,0,0-2,3.6c-.29.87-.72,1.59-1,2.31a30.21,30.21,0,0,0-1.87,5,4.53,4.53,0,0,1-.87,1.87c-.86,1.74-1.87,3.47-2.88,5.2-.72,1.3-1.59,2.59-2.31,4-.87,1.58-1.88,3-2.74,4.61a10.64,10.64,0,0,1-1,1.73c-1.44,2.45-2.6,4.91-3.9,7.5s-2.16,5-3.31,7.5c-.15.29-.15.58-.29.87a1.33,1.33,0,0,0,.14.72c.15.29.43.29.72,0s.15-.29.29-.43c.43-.87.72-1.59,1.16-2.46a35.2,35.2,0,0,0,1.44-3.46c1.44-3.17,3-6.34,4.76-9.37,1-1.88,2-3.9,3-5.63.43-.72.86-1.44,1.15-2,1.88-3.31,3.61-6.49,5.19-10a10,10,0,0,0,.87-2.16c0-.15.14-.29.14-.44A5.24,5.24,0,0,1,72,71.57.91.91,0,0,0,72.1,71a2.64,2.64,0,0,1,.44-1.15l1.3-2.6a2,2,0,0,0,.43-1c.14-.43.29-.72.43-1.15s.43-.58.58-.87C76.14,63.06,77,61.76,78,60.6A19.61,19.61,0,0,1,80.33,58a18.93,18.93,0,0,0,1.58-1.73c1.16-1.45,2.17-3,3.32-4.47.72-1,1.59-2.17,2.45-3.18,1.3-1.58,2.6-3.32,4-4.76a2.49,2.49,0,0,0,.72-1c0-.14.15-.14.15-.29a7.74,7.74,0,0,1,1.58-1.44c.72-.57,1.3-1.15,2-1.73s1-1,1.59-1.44a10.81,10.81,0,0,1,2-1.59,1.1,1.1,0,0,1,.58-.29c.28-.28.57-.43.86-.72v-.29a.14.14,0,0,1-.14-.14H101c-.29,0-.43.29-.86.29s-.44.29-.72.43a.15.15,0,0,0-.15.15,10.76,10.76,0,0,0-2,1.58,14,14,0,0,0-1.44,1.44s-.14.15-.14,0a.14.14,0,0,1,.14-.14,25.2,25.2,0,0,1,3.75-4,3.47,3.47,0,0,0,1-1c.14-.14.14-.29.29-.29a1.09,1.09,0,0,0,.57-.57,8.12,8.12,0,0,0,1.16-1.88,4.65,4.65,0,0,1,.86-.86l1.73-1.3A8.12,8.12,0,0,1,107,27.57,9.38,9.38,0,0,0,109.32,26l.14-.15a11.32,11.32,0,0,0,1.59-1.15L113.21,23c.72-.58,1.59-1.16,2.45-1.73a15,15,0,0,1,4-2,6,6,0,0,1,2.31-.15h.14a11.09,11.09,0,0,1,2.31,1.16,13.32,13.32,0,0,0,3.9,2.31c.72.28,1.58.72,2.31,1,.57.29,1,.44,1.58.73a21.36,21.36,0,0,1,3.17,2c.15.14.29.14.44.28s.43.29.57.44a15.4,15.4,0,0,1,2,2.45c1.3,2,2.6,3.89,4,5.91l.44.87c0,.29.14.43.14.72a.88.88,0,0,1-.14,1,1.3,1.3,0,0,1-1.45.58,3.49,3.49,0,0,0-1.15-2,23,23,0,0,0-1.73-1.88,6.08,6.08,0,0,1-1.3-2,.31.31,0,0,0-.29-.29,27.51,27.51,0,0,0-3-2.88l-.43-.43a.51.51,0,0,0,.43-.15c.15-.14.44-.14.58-.29s.14-.29.29-.43c0-.14,0-.29-.15-.29h-.14a3.68,3.68,0,0,0-1.3.58c-.14,0-.14-.15-.29-.15a17.56,17.56,0,0,0-3.46-2.16c-.43.43-.58.29-.72.29-.87-.29-1.59-.43-2.45-.72s-1.44-.43-2.17-.72a23.12,23.12,0,0,1-2.88-1.16c-.14,0-.29-.14-.43-.14h-1.73a1.36,1.36,0,0,0-1,.29c-.29.14-.44.29-.72.29-.87.28-1.74.72-2.6,1-.15,0-.15.14-.29.14-.29.14-.29.29-.29.43a.52.52,0,0,0,.43.15,2,2,0,0,1,.87-.29c.58-.29,1.3-.43,1.88-.72a2,2,0,0,1,1.29-.15h2.74a3.32,3.32,0,0,1,2,.58,12.36,12.36,0,0,0,2.46,1.15,19.77,19.77,0,0,1,2.59,1c.15.15.43.15.58.29A19.54,19.54,0,0,1,132.83,30c.29.28.58.43.86.72.73.72,1.3,1.58,2,2.3a.75.75,0,0,1,.29.58,3.14,3.14,0,0,0,.58.87c.14.29.43.43.58.72.72,1,1.58,1.87,2.3,2.88a2.33,2.33,0,0,1,.58,2.17,1.23,1.23,0,0,1-1.15,1.15,1.9,1.9,0,0,0-.87.14,1.25,1.25,0,0,0-.72.15.27.27,0,0,1-.43,0A6.6,6.6,0,0,1,134.7,41a4.35,4.35,0,0,0-1.29-.43c-.15,0-.15-.15-.29-.15-.29-.14-.58-.43-.87-.58s-.72-.57-1.15-.86a5.12,5.12,0,0,0-1.73-.87,7.13,7.13,0,0,1-1.88-.72,7.66,7.66,0,0,1-1.15-.58l-1.73-.86c-.72-.29-1.45-.87-2-1.15-.15,0-.15-.15-.15-.29a9.72,9.72,0,0,1-.43-1.16.87.87,0,0,0-.14-.57c0-.15-.15-.15-.29-.15-.29.15-.29.43-.29.87,0,.14,0,.14-.14.29A4.41,4.41,0,0,1,120,32.62c-.14.15-.29.15-.43.29s0,.29.14.29c.15.29.29.43.44.72l.43.43a1.18,1.18,0,0,1,.58.29c-.29.29-.44.29-.73.58l-.57.58c-.58.43-1.16.86-1.59,1.15a.53.53,0,0,1-.14.43l-.44.43a14.87,14.87,0,0,0-1.58,1.45,10.64,10.64,0,0,1-2.6,1.87c-.14.15-.43.15-.58.29a.31.31,0,0,0,0,.58c.15,0,.29.14.44,0s.28-.15.57-.15a9.55,9.55,0,0,0,2.46-1.73,9.53,9.53,0,0,0,2.16-2.59,3.25,3.25,0,0,1,1-1,5.43,5.43,0,0,1,1.3-.72,10,10,0,0,1,1.15-.44c0,.15.14.29.14.44l-1.73,1.73a3.86,3.86,0,0,0-1,1.15,14.81,14.81,0,0,1-2,2.31,2.45,2.45,0,0,0-.58.72,11.07,11.07,0,0,1-2,2.45l-1.3,1.3c-.29.29-.58.72-.86,1-.44.43-.73.86-1.16,1.3a11.26,11.26,0,0,0-1.15,1.58c-.15.29-.29.44-.44.72a1.9,1.9,0,0,0-.14.87c.14,0,.14-.14.29-.14a2.48,2.48,0,0,1,.58-.73c.43-.57,1-1.29,1.44-1.87a9.58,9.58,0,0,1,1.15-1.3c.72-.86,1.59-1.73,2.31-2.45.14-.14.14-.14.29-.14v1a2.88,2.88,0,0,1-.43,1.88,18.62,18.62,0,0,0-1.59,2.88c-.43.87-.72,1.88-1.15,2.75-.15.57-.44,1-.58,1.58-.29.58-.43,1.16-.72,1.73a7.57,7.57,0,0,0-.29,1,2,2,0,0,0-.29.87c0,.29-.43.57-.43.86s-.15.29-.15.44a2,2,0,0,1-.29.86,8.74,8.74,0,0,0-.43,1,1.11,1.11,0,0,0-.14.72c0,.15.14.15.14.29.29,0,.43-.14.58-.43a2.13,2.13,0,0,0,.29-.87.31.31,0,0,1,.29-.29c.14.15.28.29.28.44s.15.43.15.72c.43,1.15.86,2.45,1.3,3.6.29.73.57,1.3.86,1.88s.58.72.72,1a4.44,4.44,0,0,0,.58,1.15,4.2,4.2,0,0,0,1.88,2l.14.15a4.09,4.09,0,0,0,1.3.72c.14,0,.14.14.29.14V73a1.93,1.93,0,0,0-.58.43.78.78,0,0,0-.29.58.38.38,0,0,0,.43.43c.15,0,.29-.14.58-.29l1.3-.86a1.62,1.62,0,0,0,.72.14h.43a7.28,7.28,0,0,1,1.59.58,9.5,9.5,0,0,0,2.74.72c.29,0,.58.14.87.14.57.29,1.29.44,1.87.72a28.25,28.25,0,0,1,2.89,1.3c.72.44,1.58,1,2.3,1.45a6.16,6.16,0,0,1,1.45,1.29,2.29,2.29,0,0,1,.43.58,4.84,4.84,0,0,1,1,1.88c.29,1,.72,2,1,3.17a6.39,6.39,0,0,1,.14,2.88c0,.15,0,.15-.14.29a.31.31,0,0,1-.29.29,1.31,1.31,0,0,1-1,.43c-.29,0-.58,0-.72.15a1.64,1.64,0,0,1-1.16,0c-.28,0-.43-.15-.72-.15a26.12,26.12,0,0,1-3.31-.72,1,1,0,0,1-.58-.29,30.06,30.06,0,0,0-7.21-2.3h-.15a3.94,3.94,0,0,0-1.87-.44,36.31,36.31,0,0,1-3.9-.14,12.27,12.27,0,0,0-2.31.29h-.28v-.29l.43-.43c.14-.29.29-.44.43-.73,0-.14.15-.14,0-.28s-.14,0-.29,0a3.65,3.65,0,0,0-.86.72c-.43.43-.72,1-1.3,1.3l-.14.14c-.15.14-.44.29-.58.43-.43.29-.87.44-1.3.72a25.18,25.18,0,0,0-2.6,1.45c-.14,0-.14.14-.28.14a46,46,0,0,1-4.62,2.45,6.49,6.49,0,0,0-1.3.72,13.92,13.92,0,0,1-2,1.16,11.43,11.43,0,0,0-1.87,1c-.87.57-1.73,1-2.6,1.58a6.39,6.39,0,0,1-2.31,1,2.37,2.37,0,0,0-1,.15c-.28,0-.72.14-1,.14-.14,0-.14.15-.14.29s0,.29.14.29c.29,0,.58.14.87.14h.72c0,.15-.14.29-.29.44.15,0-.14.43-.57,1a19.11,19.11,0,0,1-1.45,2,34,34,0,0,0-2.59,4.32c-.87,1.59-1.59,3-2.46,4.62l-.43.86a7.11,7.11,0,0,0-.14.72c0,.15.14.29.29.44a1.51,1.51,0,0,0,.57-.72c.44-.87,1-1.73,1.45-2.6a50.65,50.65,0,0,0,2.59-4.62A43,43,0,0,1,91.43,100a17.09,17.09,0,0,1,2-2.45,2.74,2.74,0,0,1,1.3-.72c.72-.29,1.3-.58,1.87-.87l1.3-.86a23.74,23.74,0,0,1,3.18-2.17,12.06,12.06,0,0,0,1.73-1.15,7.26,7.26,0,0,1,2.59-1.3,21.06,21.06,0,0,0,2.6-1.15,11.57,11.57,0,0,1,1.87-.87,33.54,33.54,0,0,0,3.18-1.58c.14-.15.29-.15.43-.29a8.53,8.53,0,0,1,1.88-.44,16.59,16.59,0,0,1,4.61.15,14.28,14.28,0,0,1,2.45.58c1.59.43,3.18.86,4.76,1.44A20.24,20.24,0,0,0,132,89.74a10,10,0,0,0,2,.29,12.8,12.8,0,0,1,2.31.14,2,2,0,0,0,1-.29,3.73,3.73,0,0,0,1-1.58,5.39,5.39,0,0,0,0-3A4.35,4.35,0,0,1,138,84a13.64,13.64,0,0,0-1.3-3,7.25,7.25,0,0,0-1.44-2,8.91,8.91,0,0,1-1.15-1.15,11.91,11.91,0,0,0-3.61-2.31c-.58-.29-1.3-.43-1.87-.72a18.88,18.88,0,0,0-4-1.3l-2.6-.86c-.86-.29-1.73-.58-2.45-.87-.15-.14-.43-.14-.58-.29l-1.3-.86a5.61,5.61,0,0,1-1.44-1.16,20,20,0,0,1-2.6-4.47l-.86-2.59c-.14-.44-.29-.73-.43-1.16a4.24,4.24,0,0,1-.15-2.31c.15-.29.15-.72.29-1s.15-.43.29-.57a4.81,4.81,0,0,1,.58-1.3l.86-2.17a29,29,0,0,1,1.16-3.31,56.51,56.51,0,0,0,2.3-6.35c0-.14.15-.29.15-.43a4.72,4.72,0,0,0,.43-1.3l.43-.87a11.12,11.12,0,0,0,1.73-2,3.64,3.64,0,0,1,.58-.73l1.73-1.73a2.07,2.07,0,0,1,.58-.43c.14.14.29.14.58.29l.86.43a6.75,6.75,0,0,1,2.31,1,8,8,0,0,0,2.6,1c.14,0,.28.15.57.29l3.46,2.16a5.26,5.26,0,0,0,1.59.72c.14,0,.14,0,.29.15a7.81,7.81,0,0,0,3.17.58,2,2,0,0,0,1.88-.87l.43-.87a.49.49,0,0,1,.14-.28h.15a2.14,2.14,0,0,0,2.16-1,2.34,2.34,0,0,0,.43-1.3V38.1a.51.51,0,0,1,.15-.43A13,13,0,0,0,143.93,34.64Zm-1,.58a33.22,33.22,0,0,1-2-3,2.68,2.68,0,0,0-.73-1A10.57,10.57,0,0,0,139,29.59c-.72-1-1.59-1.87-2.31-2.74-.14-.14-.29-.29-.43-.29-1.15-.86-2.45-1.73-3.61-2.45-.28-.14-.43-.29-.43-.58v-.28A.3.3,0,0,0,132,23c-.14,0-.14.14-.29.29l-.14.14a32.07,32.07,0,0,1-7.21-3.89c.43,0,.58-.15.86-.15.58,0,1.16-.14,1.73-.14a4.2,4.2,0,0,1,1.45.29c.43.28.86.43,1.3.72a23.74,23.74,0,0,0,3.17,2,11.19,11.19,0,0,1,2,1.58,8.19,8.19,0,0,0,1.15.87,5.61,5.61,0,0,1,1.44,1.15,2.56,2.56,0,0,0,1,.72A5,5,0,0,1,140,28.44c.14.29.29.43.29.72.43.87.72,1.73,1.15,2.6a12,12,0,0,1,.72,1.44c.29.43.44,1,.73,1.44.14.15.14.29.14.58s0,.14.14.43Z"/><path class="cls-19" d="M102.25,63.92c-.29.58-.72,1-1,1.59a4.83,4.83,0,0,0-.86,1.73,11.88,11.88,0,0,1-1.16,2.31,14.53,14.53,0,0,1-2.88,3c-.29.14-.44.43-.72.72s-.15.29-.29.43a1.38,1.38,0,0,0,1.29-.29,5.84,5.84,0,0,0,1.45-1.15,8,8,0,0,0,2-3.32,1.1,1.1,0,0,1,.29-.58c.43-.72,1-1.44,1.58-2.3a25.46,25.46,0,0,0,1.88-3.32,23.29,23.29,0,0,0,1.44-4c.43-1.59.86-3.17,1.15-4.76v-.15a.14.14,0,0,0-.14-.14s-.15,0-.15.14-.14.44-.28.58A8.85,8.85,0,0,0,105,57a26.6,26.6,0,0,1-1,3.6A14.37,14.37,0,0,1,102.25,63.92Z"/><path class="cls-19" d="M113.5,26.42a.9.9,0,0,0-.58.14,14.72,14.72,0,0,0-2.45,1.59c-.72.43-1.3.87-2,1.3a38.89,38.89,0,0,0-4.76,3.32,3.36,3.36,0,0,1-1.15.72.49.49,0,0,0-.29.14c-.14.15-.14.43.14.43h.29a1.1,1.1,0,0,0,.72-.28,18.53,18.53,0,0,0,1.73-1c.73-.44,1.45-1,2.17-1.45,1.44-.86,2.88-1.87,4.33-2.88a7.08,7.08,0,0,0,1.87-1.73Z"/><path class="cls-19" d="M110.33,46.18a11.62,11.62,0,0,1,1.3-1.44,5.32,5.32,0,0,0,1-1.44c0-.15.14-.15.14-.29v-.15h-.14a5.67,5.67,0,0,0-1,.87,7.12,7.12,0,0,0-1.74,1.87l-.43.44a3.13,3.13,0,0,0-.72,1.15.53.53,0,0,1-.14.29,7.25,7.25,0,0,0-1,2.16c-.15.58-.29,1-.44,1.59a1.54,1.54,0,0,0,.29,1c.15-.15.29-.15.29-.29.15-.29.15-.43.29-.72.14-.58.43-1.3.58-1.88a4.62,4.62,0,0,1,1-1.87C109.61,47.05,110,46.61,110.33,46.18Z"/><path class="cls-19" d="M85.23,83.25h.43a7.23,7.23,0,0,0,2.89-1.15,16.57,16.57,0,0,0,3.75-3.32,7.77,7.77,0,0,0,.86-1.16c0-.14.15-.14.15-.28v-.15H93l-.43.43a32.73,32.73,0,0,1-3.32,2.89,9.47,9.47,0,0,1-4.18,2c-.15,0-.44.14-.58.14s-.29.15-.15.29.15.15.29.29Z"/><path class="cls-19" d="M116.82,71.42c-.15-.29-.29-.43-.43-.43-.29-.14-.73-.43-1-.58-1.16-.72-2.46-1.3-3.61-2-.43-.29-1-.57-1.44-.86-.15,0-.15,0-.29-.15a.15.15,0,0,0-.15.15c0,.14.15.14.15.29a4,4,0,0,0,1.15,1,26.2,26.2,0,0,0,3.32,2l2.16.86C116.67,71.57,116.67,71.42,116.82,71.42Z"/><path class="cls-19" d="M100.09,72.14a7.57,7.57,0,0,0-.29,1c-.15,1-.29,1.88-.43,2.89-.15.57-.29,1.3-.44,1.87a1.41,1.41,0,0,0,.15,1.3.14.14,0,0,0,.14.15c.29-.15.29-.29.43-.44.15-.43.15-.86.29-1.15a19.78,19.78,0,0,0,.58-5v-.58l-.14-.14A.49.49,0,0,0,100.09,72.14Z"/><path class="cls-19" d="M137.88,39.69a1.11,1.11,0,0,0,.72.29c.29.14.58,0,.86-.29v-.14l-.14-.15a5.22,5.22,0,0,1-2.31-2c-.29-.43-.58-.72-.86-1.15,0-.15-.15-.15-.29-.15a.15.15,0,0,1-.15.15,2.37,2.37,0,0,0,.15,1A6.74,6.74,0,0,0,137.88,39.69Z"/><path class="cls-19" d="M84.51,92.62h-.15c-.14,0-.43.15-.28.29a.49.49,0,0,0,.14.29,7.28,7.28,0,0,0,1.59,1.44,3,3,0,0,0,.72.44c.29.14.43.29.72.14.14,0,.14-.14.29-.14,0-.15,0-.15-.15-.15L87,94.5,84.8,92.77A.52.52,0,0,0,84.51,92.62Z"/><path class="cls-19" d="M76.58,94.5A13,13,0,0,0,76,95.94c-.15.29-.29.72-.43,1a.63.63,0,0,0,0,.72c0,.15.14.15.28.15.29-.15.29-.29.44-.58.29-.86.72-1.73,1-2.45a1.62,1.62,0,0,0,.14-.72.45.45,0,0,0-.14-.29A1.14,1.14,0,0,0,76.58,94.5Z"/><path class="cls-19" d="M95.33,93.78c0,.14,0,.29.14.29a.27.27,0,0,0,.43,0c.15,0,.15-.15.29-.15a3.37,3.37,0,0,0,1-1.87,4.92,4.92,0,0,0,.29-1.44v-.44c-.14.15-.14.15-.29.15-.14.29-.43.57-.58.86a17.73,17.73,0,0,0-1.15,2.31C95.33,93.63,95.33,93.63,95.33,93.78Z"/><path class="cls-19" d="M106.72,60.46a17.93,17.93,0,0,1-1.3,2.31c-.14.14-.14.29-.29.43a.14.14,0,0,0,.15.14h.14c.15-.14.44-.28.58-.43a5.4,5.4,0,0,0,1.3-2.74v-.43c-.15,0-.15,0-.29.14S106.87,60.17,106.72,60.46Z"/><path class="cls-19" d="M108.45,41a4.08,4.08,0,0,0,2.17.57.54.54,0,0,0,.43-.14c.14,0,.14-.14.14-.29a.49.49,0,0,1-.14-.29h-.58a3.81,3.81,0,0,1-1.73-.43c-.14,0-.29-.14-.29,0a.52.52,0,0,0-.29.15.19.19,0,0,0,0,.28A.52.52,0,0,0,108.45,41Z"/><path class="cls-19" d="M81.34,89.6a8,8,0,0,1-1.45-.87l-.14-.14h-.29c-.14.14-.14.14-.14.28a1.44,1.44,0,0,0,.57.73c.29.14.72.43,1,.57a1.78,1.78,0,0,0,.87.15c.14,0,.14-.15.29-.15-.15-.14-.15-.29-.29-.29A2,2,0,0,0,81.34,89.6Z"/><path class="cls-19" d="M106.29,86.42c-.15.15-.29.44-.43.58L105,88.3a3.24,3.24,0,0,1-.43.72v.14h.14a6.46,6.46,0,0,0,1-.86,9.67,9.67,0,0,0,.72-1.88Z"/><path class="cls-19" d="M110.62,83a.15.15,0,0,0-.15.15c-.14.28-.43.57-.58.86a1.1,1.1,0,0,0-.28.72,1.52,1.52,0,0,0-.15.72c0,.29.29.29.43.15l.15-.15a3.78,3.78,0,0,0,.58-2.16V83Z"/><path class="cls-19" d="M109.32,53.39c-.15.15-.29.15-.29.29a4.16,4.16,0,0,0-1,1.73c0,.15-.14.29-.14.43s.14.29.28.15.29-.15.44-.43l.43-.87c.14-.29.29-.72.43-1C109.32,53.68,109.32,53.54,109.32,53.39Z"/><path class="cls-19" d="M105,48.92a.14.14,0,0,0-.14-.14c-.29-.44-.72-.72-1-1.16l-.15-.14c-.29,0-.43.29-.29.43a4,4,0,0,0,1,1.16c.15,0,.15.14.29.14a.27.27,0,0,0,.43,0A.47.47,0,0,0,105,48.92Z"/><path class="cls-19" d="M139.46,35.22h.15l.14-.15v-.28c-.29-.44-.43-1-.72-1.45,0-.14-.14-.14-.29-.14s-.14.14-.14.29v.29a5.57,5.57,0,0,0,.72,1.29S139.32,35.22,139.46,35.22Z"/><path class="cls-19" d="M104.85,50.8a9.59,9.59,0,0,1-1.16-.44.45.45,0,0,0-.29.15c.15.29.44.43.58.57a1.18,1.18,0,0,0,1,.15.52.52,0,0,0-.14-.43Z"/><path class="cls-19" d="M115.09,80.65a1.26,1.26,0,0,0-.15,1h.15a.86.86,0,0,0,.43-.86c0-.15,0-.29-.14-.29C115.23,80.36,115.09,80.51,115.09,80.65Z"/><path class="cls-14" d="M143.5,36.52a1.29,1.29,0,0,1,.43-.87c1.3-2,2.6-3.89,4-5.91a29.39,29.39,0,0,1,2-2.45,2.08,2.08,0,0,1,.58-.44c.14-.14.29-.14.43-.29a20,20,0,0,1,3.18-2,5.73,5.73,0,0,1,1.58-.72c.72-.29,1.59-.72,2.31-1a20.94,20.94,0,0,0,3.89-2.3,8.78,8.78,0,0,1,2.31-1.16h.15a4.21,4.21,0,0,1,2.3.15,17,17,0,0,1,4,2c.72.57,1.59,1.15,2.46,1.73L175.38,25A11.32,11.32,0,0,0,177,26.13a.14.14,0,0,1,.14.15,10.93,10.93,0,0,0,2.31,1.58A13.58,13.58,0,0,0,181.29,29L183,30.31l.87.87A21.88,21.88,0,0,1,185,33.05a1.13,1.13,0,0,0,.58.58.32.32,0,0,1,.29.29,3.47,3.47,0,0,0,1,1,25.24,25.24,0,0,1,3.75,4,.14.14,0,0,0,.14.14c-.14.15-.14,0-.14,0a13,13,0,0,1-1.44-1.44,11.24,11.24,0,0,0-2-1.59s-.15,0-.15-.14c-.29-.14-.43-.43-.72-.43a2,2,0,0,1-.86-.29h-.15c-.14,0-.14,0-.14.14v.29c.29.29.57.43.86.72a1.1,1.1,0,0,0,.58.29,10.81,10.81,0,0,1,2,1.59c.58.43,1,1,1.59,1.44.72.58,1.29,1.15,2,1.73s1,1,1.59,1.44c.15.15.15.15.15.29a2.56,2.56,0,0,0,.72,1c1.44,1.59,2.74,3.17,4,4.76.86,1,1.58,2,2.45,3.17,1.15,1.45,2.16,3,3.31,4.48a6.34,6.34,0,0,0,1.59,1.73,19.61,19.61,0,0,1,2.31,2.59c.86,1.16,1.87,2.45,2.74,3.61.14.29.43.58.58.86a1.65,1.65,0,0,1,.43,1.16,1.08,1.08,0,0,0,.29.72l1.3,2.6c.14.43.43.72.43,1.15,0,.14.14.43.14.58a5.24,5.24,0,0,0,.58,1.29c0,.15.14.29.14.44a10,10,0,0,0,.87,2.16c1.59,3.46,3.46,6.64,5.19,10,.44.72.87,1.45,1.16,2,1.15,1.88,2,3.75,3,5.63,1.73,3,3.17,6.2,4.76,9.37.57,1.16,1,2.31,1.44,3.46a19.4,19.4,0,0,0,1.15,2.46c0,.14.15.29.29.43a14,14,0,0,1-8.65,3.89c-3.32,0-6.64-1-10-.72-3,.29-5-.72-8.07-.29-1,.15-2.89,1.16-3.9,1.16v-1.73l-.43-.87c-.87-1.58-1.59-3-2.45-4.61l-2.6-4.33a18,18,0,0,0-1.44-2c-.29-.43-.72-.87-1-1.3-.15-.14-.29-.14-.29-.43.29-.15.58,0,.72,0,.29,0,.58-.15.87-.15s.28-.14.14-.28-.14-.15-.14-.29a2.37,2.37,0,0,0-1-.15,2.52,2.52,0,0,1-1-.14,6.56,6.56,0,0,1-2.31-1,25.94,25.94,0,0,0-2.6-1.59c-.57-.29-1.3-.72-1.87-1a13.83,13.83,0,0,1-2-1.15c-.43-.29-.87-.43-1.3-.72A48.19,48.19,0,0,1,179,88.59c-.14,0-.14-.15-.28-.15A24.06,24.06,0,0,0,176.1,87a5.63,5.63,0,0,1-1.3-.72c-.14-.15-.43-.29-.58-.43l-.14-.15a3.67,3.67,0,0,1-1.3-1.3,3.91,3.91,0,0,0-.86-.72c-.15,0-.15-.14-.29,0s0,.15,0,.29a3,3,0,0,0,.43.72l.43.43v.29h-.28a11.66,11.66,0,0,0-2.31-.29,33.9,33.9,0,0,0-3.9.15,4.43,4.43,0,0,0-1.87.43H164A32.22,32.22,0,0,0,156.77,88c-.14.14-.43.14-.57.29a28.58,28.58,0,0,1-3.32.72c-.29,0-.44.14-.72.14a1.55,1.55,0,0,1-1.16,0,1.33,1.33,0,0,0-.72-.14,1.34,1.34,0,0,1-1-.43c-.14-.15-.14-.29-.29-.29,0-.15-.14-.15-.14-.29a6.43,6.43,0,0,1,.14-2.89c.29-1,.72-2,1-3.17a4.8,4.8,0,0,1,1-1.87,2.08,2.08,0,0,0,.44-.58,6.17,6.17,0,0,1,1.44-1.3c.86-.43,1.58-1,2.31-1.44a16.8,16.8,0,0,1,2.88-1.3c.58-.29,1.15-.43,1.88-.72a1.84,1.84,0,0,1,.86-.14,8.46,8.46,0,0,0,2.74-.73,5.24,5.24,0,0,1,1.59-.57c.14,0,.29-.15.43,0a.63.63,0,0,0,.72-.15,3.41,3.41,0,0,0,1.3.87c.14.14.29.14.58.29s.43-.15.43-.44a.73.73,0,0,0-.29-.57c-.14-.15-.43-.29-.58-.44v-.57c.15,0,.15-.15.29-.15a5.43,5.43,0,0,0,1.3-.72l.15-.14a4.27,4.27,0,0,0,1.87-2,8.86,8.86,0,0,0,.58-1.16c.14-.43.57-.72.72-1,.29-.57.58-1.29.86-1.87.44-1.15.87-2.31,1.3-3.61a1.24,1.24,0,0,0,.15-.72c0-.14.14-.43.28-.43a.3.3,0,0,1,.29.29c.15.29.15.58.29.86s.29.44.58.44c0-.15.14-.15.14-.29a1.33,1.33,0,0,0-.14-.72,6.24,6.24,0,0,1-.43-1,2,2,0,0,1-.29-.87c0-.14-.15-.29-.15-.43s-.43-.43-.43-.87a2,2,0,0,0-.29-.86c-.14-.29-.14-.58-.29-1-.29-.58-.43-1.16-.72-1.73-.14-.58-.43-1-.57-1.59a16.11,16.11,0,0,0-1.16-2.74,17.73,17.73,0,0,0-1.59-2.88,2.22,2.22,0,0,1-.43-1.88v-1c.15,0,.29,0,.29.15a17.36,17.36,0,0,1,2.31,2.45,10.22,10.22,0,0,0,1.15,1.3,20.28,20.28,0,0,1,1.44,1.87,2.62,2.62,0,0,0,.58.72.52.52,0,0,0,.29.15,1,1,0,0,0-.14-.87,3,3,0,0,0-.44-.72,11.32,11.32,0,0,1-1.15-1.59,10.22,10.22,0,0,0-1.15-1.3c-.29-.28-.58-.72-.87-1L171.05,44a10.9,10.9,0,0,1-2-2.46,3.47,3.47,0,0,0-.57-.72,14.73,14.73,0,0,1-2-2.3,3.9,3.9,0,0,0-1-1.16l-1.73-1.73c0-.14.14-.29.14-.43.43.14.72.29,1.15.43a5.84,5.84,0,0,0,1.3.72,3.47,3.47,0,0,1,1,1,33.2,33.2,0,0,0,2.17,2.6,9.33,9.33,0,0,0,2.45,1.73c.14.14.29.14.57.14h.44a.3.3,0,0,0,0-.57,2,2,0,0,0-.58-.58,8.38,8.38,0,0,1-2.6-1.88,13.74,13.74,0,0,1-1.58-1.44l-.44-.43a.54.54,0,0,1-.14-.43c-.58-.44-1.15-.87-1.59-1.16-.29-.14-.43-.43-.57-.57a2.48,2.48,0,0,1-.72-.58c.14-.15.43-.15.57-.29s.29-.14.43-.43.29-.44.44-.72c0-.15,0-.29.14-.29-.14-.15-.29-.15-.43-.29a4.49,4.49,0,0,1-1.15,1.15c-.15,0-.15-.14-.15-.29a2,2,0,0,0-.29-.86.53.53,0,0,0-.29.14c0,.15-.14.29-.14.58a1.89,1.89,0,0,1-.43,1.15c0,.15-.15.15-.15.29a13.92,13.92,0,0,1-2,1.16l-1.73.86a8.74,8.74,0,0,0-1.15.58,7.13,7.13,0,0,1-1.88.72,3.24,3.24,0,0,0-1.73.87c-.43.28-.72.57-1.15.86s-.58.43-.87.58c-.14,0-.14.14-.29.14a4.39,4.39,0,0,0-1.29.44,14.14,14.14,0,0,1-2.17.72h-.43c-.14-.15-.43-.15-.72-.15A1.9,1.9,0,0,1,147,41c-.72,0-1-.43-1.15-1.16a2.91,2.91,0,0,1,.58-2.16c.72-1,1.58-1.87,2.3-2.88.15-.29.44-.44.58-.73s.43-.57.58-.86.14-.43.29-.58a15.41,15.41,0,0,0,2-2.31,4,4,0,0,1,.86-.72,16.39,16.39,0,0,1,3.75-2.16c.15-.14.43-.14.58-.29a20.46,20.46,0,0,0,2.6-1A20,20,0,0,0,162.4,25a4.66,4.66,0,0,1,2-.58h2.74a4.15,4.15,0,0,1,1.3.14c.57.29,1.29.44,1.87.73a2.11,2.11,0,0,0,.87.28c.28.15.43,0,.43-.14s0-.29-.29-.43-.14-.15-.29-.15a19.77,19.77,0,0,0-2.59-1c-.29-.14-.44-.14-.73-.29a2.08,2.08,0,0,0-1-.28H165a.54.54,0,0,0-.43.14,23,23,0,0,1-2.88,1.15c-.72.29-1.45.44-2.17.73s-1.58.43-2.45.72c-.14,0-.29.14-.58.14A17.85,17.85,0,0,0,153,28.29a.48.48,0,0,1-.29.15,5.24,5.24,0,0,0-1.29-.58h-.15c-.14,0-.29.15-.14.29s.14.29.29.43.28.15.57.29a.53.53,0,0,1,.44.15l-.44.43a28.43,28.43,0,0,0-3,2.88l-.29.29a9.53,9.53,0,0,1-1.29,2c-.58.58-1.16,1.3-1.73,1.88a4.08,4.08,0,0,0-1.16,2,2.53,2.53,0,0,1-1.44-.58.88.88,0,0,1-.14-1C143.36,37.09,143.5,36.8,143.5,36.52Z"/><path class="cls-14" d="M143.07,34.93c0-.14.14-.29.14-.58.29-.43.44-1,.72-1.44a7,7,0,0,0,.73-1.44c.43-.87.72-1.73,1.15-2.6.14-.29.14-.43.29-.72a4.9,4.9,0,0,1,1.59-1.87,4.53,4.53,0,0,1,1-.73,5.84,5.84,0,0,1,1.45-1.15c.43-.29.72-.58,1.15-.87.58-.57,1.3-1,2-1.58,1-.72,2.16-1.3,3.17-2a5.84,5.84,0,0,1,1.3-.72,1.78,1.78,0,0,1,1.44-.29c.58,0,1.16.14,1.74.14a1.77,1.77,0,0,1,.86.15,38.88,38.88,0,0,1-7.21,3.89l-.15-.14a.3.3,0,0,0-.28-.29c-.15,0-.15.14-.29.29v.29c0,.28-.29.43-.44.57a31.28,31.28,0,0,0-3.6,2.46c-.29.14-.43.14-.58.28A22.61,22.61,0,0,0,147,29.3c-.43.58-.72,1-1.15,1.59a6.3,6.3,0,0,1-.72,1c-.58,1-1.3,2-2,3a.49.49,0,0,1-.29.14C143.07,35.07,143.07,35.07,143.07,34.93Z"/><g class="cls-20"><path class="cls-9" d="M147,26.13l1-1a1,1,0,0,1,1.3-1.44c.15,0,.15.14.29.14a76.41,76.41,0,0,1,7.21-4.61.9.9,0,0,1,.87,0,.14.14,0,0,0,.14-.15.79.79,0,0,1,1.16.29c2.88-1.15,6.2-1.87,8.94,0a.87.87,0,0,1,.43.87v.29A3.58,3.58,0,0,1,170,21.66a1,1,0,0,1-.14,1.44,1.38,1.38,0,0,1-.43,1.73c1.73.44,3.89,1.16,4,3a1.84,1.84,0,0,1-.57,1.73l.43,1.3a1,1,0,0,1-.72,1.15,3.33,3.33,0,0,1-1.16-.14c-.14,0-.14,0-.28-.14a.78.78,0,0,1-.58.29.53.53,0,0,1-.29.72,5.63,5.63,0,0,1,1.3.72c.86.43.29,1.87-.58,1.73h0a9.58,9.58,0,0,1,1.3,1.15c.58.58,0,1.73-.72,1.59a1.06,1.06,0,0,1-.58-.15c.43.73,0,1.59-.86,1.45.28.14.43.43.72.72.72.72-.29,1.87-1.16,1.3-1.44-1-3.6-2.31-4.47-3.9l-.29-.29a7.8,7.8,0,0,1-3.17-.57c-.29.14-.72.43-1,.57a1,1,0,0,1-1.44-.86,1,1,0,0,1-.87-1.3.93.93,0,0,1-.86-1.3c0-.14.14-.29.14-.43-.58-.15-1-.72-.86-1.15-.15,0-.29,0-.29-.15a3.86,3.86,0,0,1-1.3.15c-.29,0-.43,0-.58-.15-.29.15-.72.15-1,.29a1,1,0,0,1-1-1.59c.15-.14.29-.29.29-.43a1.44,1.44,0,0,1-.58-.72h0c-.28,0-.72,0-.86-.29a10,10,0,0,1-1-1.59c-.14-.28-.43-.57-.58-.86-.43.29-1,.72-1.44,1C147.25,28.29,146.1,27,147,26.13Z"/><path class="cls-10" d="M168.17,39.69V38.54A1,1,0,0,1,170,38l.15.14a33.69,33.69,0,0,1-1.45-4c-.28-.72.44-1.29,1-1.29a7.39,7.39,0,0,1-.57-1.88c-.29-1,.86-1.59,1.73-1.15,0-.29-.15-.44-.15-.72,0-.73.29-1.16.87-1.3-1.16-1.59-2.74-2.89-3.46-4.91v-.43c-.15-.14-.15-.29-.29-.58a1,1,0,0,1,.86-1.44.68.68,0,0,1,.15-.86c-.15-1,1.3-1.3,1.87-.72.29.28.58.43.72.72,2.46.86,4.62,3.31,6.35,4.76a71.56,71.56,0,0,1,8.8,7.35c1.73,1.73,3.75,4.62,3.89,7.21A2,2,0,0,1,188.65,41a1,1,0,0,1-1.73.72l-.58-.58.87,1.73c.28.72-.44,1.88-1.3,1.45a12.14,12.14,0,0,1-1.44-.87,17.43,17.43,0,0,1,1,2.88,1.05,1.05,0,0,1-1.16,1.3h-.43c0,.15.14.29.14.44.29.86-.29,2-1.3,1.58a5.26,5.26,0,0,1-1.44-1,1.07,1.07,0,0,1-1.15-.14A6.81,6.81,0,0,1,181,52a1.08,1.08,0,0,1-1.73.87.52.52,0,0,1-.29-.15,5.9,5.9,0,0,1,.73,2.74,1.1,1.1,0,0,1-1.73.87c-.29-.15-.58-.44-.87-.58h0a1.15,1.15,0,0,1-2.16.43c-.44-.86-.87-1.58-1.3-2.45a1.14,1.14,0,0,1-1.16-.29,12.38,12.38,0,0,1-2.16-6.2,16.47,16.47,0,0,1-1.3-2.74,34.7,34.7,0,0,1-2.16-3.89C165.86,39.83,167.3,39,168.17,39.69Z"/><path class="cls-6" d="M144.66,79.07a.72.72,0,0,1,.57-1c1.73-.15,3.18-1.45,5.05-1.16s2.89,2.17,3.75,3.32a6.64,6.64,0,0,1,.87,2,2.24,2.24,0,0,1,2,2.31v.29A3.21,3.21,0,0,1,158.5,88a1.55,1.55,0,0,1-1.15,1.3c-.15.14-.15.29-.43.43-3.18,2-7.94,2.6-10.82-.29a7.56,7.56,0,0,1-2-5.19,1.78,1.78,0,0,1-.15-.87A7,7,0,0,1,144.66,79.07Z"/><path class="cls-6" d="M150.57,80.8a1.11,1.11,0,0,1-1-1.44A10.36,10.36,0,0,1,154.18,75c1.29-1,2.74-1.73,3.75-2.45.72-.44,1.44.28,1.58,1a1.06,1.06,0,0,1,.72,1V75a.87.87,0,0,1-.14.57.88.88,0,0,1,.43,1,.56.56,0,0,1-.14.44,2.49,2.49,0,0,1,.72,1,3.8,3.8,0,0,1,.29,1,5.42,5.42,0,0,1,1.3.57,1.19,1.19,0,0,1,.14,1.73h0a.69.69,0,0,1,0,.73c-.14.28-.29.43-.29.57a5.73,5.73,0,0,1,3.75.72,1,1,0,0,1,.29,1.16,6.81,6.81,0,0,1-5.91,2.88c-1.88,1.16-3.9,2.31-5.77,3.46-1,.58-1.73-.86-1-1.58l.86-.87H155c.58-.43,1.3-.86,1.88-1.3-.29,0-.58-.14-.87-.14h-.72c-.29,0-.58-.29-.87-.58l-.14-.14a2.29,2.29,0,0,1-.58-.43,1,1,0,0,1,.15-1.45,4.74,4.74,0,0,1-3.46-.72,1.18,1.18,0,0,1-.15-1.73,5.32,5.32,0,0,1,1.44-1c0-.14-.14-.14-.14-.29A2.07,2.07,0,0,1,150.57,80.8Z"/><path class="cls-10" d="M159.8,71c1.44-.72,2.74-1.59,4.18-2.45a22.82,22.82,0,0,1,3-1.73,1.06,1.06,0,0,1,1,1.87.52.52,0,0,1-.14.43,8.59,8.59,0,0,0-2,3.75V73H166c.44,0,.87.14,1.3.14,1.73.44,3.17,1.88,2.6,3.75a4.83,4.83,0,0,1-1.16,1.59,13.12,13.12,0,0,1-1,2.88c1.16,1,3.61,1.16,4.91,1.88.86.43,1.15,1.59.14,2a9.89,9.89,0,0,1-5.05.43c-.43.15-1,.15-1.44.29h0a.88.88,0,0,1-1,.14,10,10,0,0,0-1.15.44c-.87.57-1.73-.72-1.3-1.45,0-.28.14-.43.14-.72a.74.74,0,0,1,.29-.57c-.14-.15-.14-.29-.29-.58-.14,0-.14-.14-.28-.14a1,1,0,0,1-.73-1,5,5,0,0,1-.57-1.74c-.15-.28-.15-.57-.29-.86a1.2,1.2,0,0,1-1.3-1.44c0-.15.15-.29.15-.58a13,13,0,0,1-1.88-3C157.49,73,158.21,71.85,159.8,71Z"/><path class="cls-11" d="M166.87,73.44a1.26,1.26,0,0,1,.14-1,1.16,1.16,0,0,1-.29-1.3A1,1,0,0,1,167.3,70h.15a1,1,0,0,1,.57-1,2.07,2.07,0,0,1,.58-.43c.29-.15.72-.15,1-.29l-.14-.15a1.13,1.13,0,0,1,.14-1.58,3.25,3.25,0,0,1,.86-.58,1.15,1.15,0,0,1,.73-2h.14a1.09,1.09,0,0,1,1-.72.53.53,0,0,1,.43.14,3.7,3.7,0,0,1-.72-.86c-.43-.43-.43-.87-.14-1.15-.29-1,1.15-2,1.87-1l.43.43c.15,0,.15.14.29.14h0a8.9,8.9,0,0,1-.57-1.87v-.58a3,3,0,0,0-.58-.86c-.58-1,.43-1.74,1.3-1.45a8.08,8.08,0,0,1-.29-1.87,1.18,1.18,0,0,1,1.44-1,8.44,8.44,0,0,1,1.88,1.15l.14-.14c-.29-1.3,0-3.32,1-4a1.12,1.12,0,0,1,.14-.58,1.16,1.16,0,0,1,1.16-.72h0c0-.14-.15-.14-.15-.29-.43-1,.87-2,1.59-1.15a2.56,2.56,0,0,1,.72,1c0-.15-.14-.29-.14-.43a.91.91,0,0,1,1-1.16,5.72,5.72,0,0,1-.15-1.59,1,1,0,0,1,1.45-.86,1.08,1.08,0,0,1,1-.72c0-.15,0-.15.14-.29-.14-.43-.29-.72-.43-1.15a1.06,1.06,0,0,1,1.73-1.16c.14.15.29.15.43.29h.29c0-.29.14-.58.14-.86s-.14-.29-.14-.44a.88.88,0,0,1,.43-1V39a.91.91,0,0,1,1.3-.58.52.52,0,0,1,.29.15c.14,0,.14-.15.29-.15,2.59.29,4.32,3.46,5.62,5.48,2.31,3.46,5.34,6.2,7.07,10,.29.73-.43,1.3-1.15,1a21.86,21.86,0,0,1,1.29,1.88c.44.72,0,1.73-1,1.44a4.6,4.6,0,0,1-2.16-1.87l-2.16-3a40,40,0,0,1,3.17,5.33.91.91,0,0,1-1.3,1.16,11.33,11.33,0,0,1-3.6-3.75.66.66,0,0,1-.72,0c-.15-.15-.29-.15-.44-.29a19.16,19.16,0,0,1,2.74,5.48c.29.72-.57,1.3-1.3,1.16a.48.48,0,0,1-.28-.15,7.5,7.5,0,0,1,.86,2.31,1,1,0,0,1-1.3,1.15,4.73,4.73,0,0,1-1.87-1.87.66.66,0,0,1-.72,0l-.15-.15a21.27,21.27,0,0,1,1.45,3.9,1,1,0,0,1-1.3,1.15,3,3,0,0,1-1.16-.72c-.29.29-.72.58-1.15.29a3.31,3.31,0,0,1-1.59-1.16,5.71,5.71,0,0,1,.72,3.76,1.06,1.06,0,0,1-1.58.57,7.77,7.77,0,0,1-1.16-.86,3.8,3.8,0,0,1,.15,1.29c1.15,1.45,1.44,3.32,1.87,5.2a1,1,0,0,1-1.44,1,5.2,5.2,0,0,1,.72,1.58c.29.87-.58,1.88-1.44,1.3l-.14-.14h0c.43.86-.58,2-1.3,1.3L185,82h0c-.14-.14-.29-.29-.43-.29h-.14c-.15,0-.15,0-.29.15.43.86,2,2,1.44,3.17a1.75,1.75,0,0,1-1.73,1,8.65,8.65,0,0,1-2.45-1h0c.43.43.86.72,1,.87,1,1,2.3,2.16,2.45,3.75A1.19,1.19,0,0,1,183.6,91c-1.87,0-3.46-1-5.19-1.88a.75.75,0,0,1-.58.29,9.15,9.15,0,0,1-3.46,0,.91.91,0,0,1-.72-.86h0c-.58-.15-1.16-.15-1.88-.29a10.27,10.27,0,0,1-4-1.73c-.28-.15-.28-.44-.14-.72a2.24,2.24,0,0,1-.43-1.74,2.19,2.19,0,0,1,.86-1.58,2.07,2.07,0,0,1-.43-.58.53.53,0,0,1-.14-.43,1.31,1.31,0,0,1-.73-2,3.13,3.13,0,0,1,1-1.59c-1-.43-2.16-.72-2.59-1.87A2.58,2.58,0,0,1,166.87,73.44Z"/><path class="cls-12" d="M183.17,83.68a8.65,8.65,0,0,0,1.44-3.32,10.52,10.52,0,0,0-.58-3.6c-.57-2.31-1-4.33-.43-6.64a25.47,25.47,0,0,1,2.74-5.62c1.15-2,1.73-4,3.32-5.92,1.3-1.44,3-2.59,3.89-4.47.58-1.44.87-3.17,2-4.32,2.31-2.46,6.35.14,8.22,1.87a5.59,5.59,0,0,1,.87,1,8.93,8.93,0,0,1,1.44,1.88c1.3,1.73,2.6,3.31,3.9,5a47.15,47.15,0,0,1,6.34,10.25c.58,1.29,1.16,2.59,1.73,3.75a8.87,8.87,0,0,1,1,3.17c-.14,1.87-1.73,2.16-3.17,1.59a1.66,1.66,0,0,1-.87.86c-.57.29-.72.15-.57.87.29,1.73,2.45,4.76-.15,5.77-1.58.72-3.46-.73-4.9-1.3.58,1.58.86,3.17-.43,3.75a2.76,2.76,0,0,1-1,.29c0,1.58-.58,3-2.31,3.46a6.88,6.88,0,0,1-3.75-.58c-.87-.29-.29,2.45-.29,2.74a2.2,2.2,0,0,1-.87,2,5.57,5.57,0,0,1-1.29.72,1.54,1.54,0,0,1-1.16.15c-.29,0-.72.14-1,.14a1.67,1.67,0,0,0-1,.72,2,2,0,0,1-.43,1.73c-.14.29-.14.72-.29,1a1.67,1.67,0,0,1-.72.72,1,1,0,0,1-1.44.72h-.15c-1.58.29-3.46-.57-4.9-1.29a.83.83,0,0,1,.14-1.59,7.69,7.69,0,0,0-1.15-.72l-3-2.16a14.84,14.84,0,0,1-2.45-1.74c-1.15-1.29-1-3-1-4.61A16.25,16.25,0,0,1,183.17,83.68Z"/><path class="cls-13" d="M227.59,91.62a116.94,116.94,0,0,0-7.5-13.13,3,3,0,0,0-1.58-2.16h0c-.87-1.16-2.31-2.74-3.75-1.45-.15,0-.15.15-.29.29a6.35,6.35,0,0,0-1.59.29c-2.31.87-3.89,3.61-5,5.63-1.73,2.74-3.89,4-6.63,5.62a16,16,0,0,0-6.2,6.2c-1.3,2.31-3.9,5.34-2.89,8.08.43,1.3,1.44,2.31,2,3.46a24.84,24.84,0,0,0,1.59,2.74c.86,1.3,2.16,3.32,4,3.18a1.12,1.12,0,0,0,1.15-1,9.82,9.82,0,0,0-.15-2,4,4,0,0,0,2.75,1.87c3.17.15,1.44-4.61.43-7.93,2.74,2.74,4.61,6.35,8.08,8.08a1.15,1.15,0,0,0,1.29-.44c1.45-2-.43-4.76-1.15-6.63-.43-1.15-1-2.31-1.44-3.61-.29-.72-.72-1.73-1-2.59,1.87,1.44,3.17,3.46,4.76,5,.86,1,3.17,3.17,4.61,1.73,1.73-1.73-2.59-9.24-1.44-9.81s4.76,6.92,5.91,8.08a1,1,0,0,0,1.74-.87c-.15-.43-.29-1-.44-1.44a10.22,10.22,0,0,0,1.3,1.15c1.3.87,3.17,1,3.32-1C229.76,96.38,228.6,93.92,227.59,91.62Z"/></g><g class="cls-20"><path class="cls-16" d="M142.2,34.64v-.29h0v-.43a16.9,16.9,0,0,1,2.46-4.47l.43-.43a10.82,10.82,0,0,1,1.73-2.74,1.1,1.1,0,0,1,1.44-.15h0a1,1,0,0,1,1-.29l.29-.29a.8.8,0,0,1,1.3.29c.14-.14.29-.14.43-.29a.91.91,0,0,1,1.15.29c.73-.57,1.59.58,1.16,1.3l-.43.87a.44.44,0,0,1,0,.57,9.59,9.59,0,0,1-.58,1.16l.14.14a.63.63,0,0,1,.72.15l.29-.29c.72-.72,1.88.29,1.3,1.15a14.66,14.66,0,0,1-1.44,1.73c.29-.29.58-.72.86-1a.92.92,0,0,1,1.3.15,1.9,1.9,0,0,1,.87.14c.29-.14.43-.29.72-.43.72-.43,1.44.57,1,1.15l-.87,1.3a7.38,7.38,0,0,0,1-.58.45.45,0,0,1,.58,0,3.21,3.21,0,0,1,1.15-.72c.73-.29,1.45.43,1.16,1,0,.29,0,.58-.29.72a.14.14,0,0,0-.14.15c.14.29,0,.72-.29.72a2.76,2.76,0,0,1-1,.29h0c-.15,0-.29.14-.44.14,0,0,0,.15-.14.15a17.18,17.18,0,0,1-5.34,4.32c-1.58,1.44-3,3-5.19,3.61a.87.87,0,0,1-1-1.16h0a.76.76,0,0,1-.72-.72v-1a.14.14,0,0,0-.14.15,1,1,0,0,1-1.45-.87v-.43c-.14.14-.29.43-.57.58a1,1,0,0,1-1.59-.58V38.54a1.26,1.26,0,0,1-.87-1,8.61,8.61,0,0,1,.29-2A2.13,2.13,0,0,1,142.2,34.64Z"/></g><path class="cls-16" d="M146.39,40.56a1,1,0,0,0,.72-.15l.14-.14a22.93,22.93,0,0,0,3.32-1.3,33.31,33.31,0,0,1,3.89-1.88,35.45,35.45,0,0,0,4.19-1.87c.29-.15.43-.29.72-.29a12.8,12.8,0,0,1,1.59-.72,4.92,4.92,0,0,0,1.58-2.74c0-.58.87-.58,1,0a3.91,3.91,0,0,1-.29,1.87h.29a3.68,3.68,0,0,0,1.59-1.73c.14-.43.72-.43,1,0,.43.87.14,1.44-.44,2.17,3,2.74,7.22,7.06,11.54,6.2,1.16-.29,1.88,1.58.73,2a7.57,7.57,0,0,1-3,.57c1.58,2.31,2.59,5.2,4,7.65a2.63,2.63,0,0,1,3-1.44c.87.14.87,1.29.44,1.87a6.93,6.93,0,0,1-1.73,1.3c-.15.43-.15.72-.29.87s-.15.28-.29.43c.86,2.16,1.59,4.33,2.45,6.34a43.51,43.51,0,0,0,4,7.22,65.7,65.7,0,0,1,4,6.92A16.18,16.18,0,0,0,196,79.64a29,29,0,0,1,5.49,3.75c.57.58-.29,1.59-1,1.16-1.88-1.3-4-2.31-6.06-3.46a14.94,14.94,0,0,1-5-4.91c-.29-.58-.72-1-1-1.58a16.78,16.78,0,0,1,0,3.75,1.74,1.74,0,0,1-3,.28,29.22,29.22,0,0,1-1-4.9,23.53,23.53,0,0,0-1.73-5.63c-.43-1-.86-2-1.15-2.88v-.14a36.23,36.23,0,0,1-2.17-5.49c-.29-.86-.72-1.58-1-2.45a55.16,55.16,0,0,0-5.91-10.24c-2-2.88-4.47-5.62-6.35-8.65a.69.69,0,0,1,.15-.87,25.89,25.89,0,0,1-1.88-2.16,20.43,20.43,0,0,1-4.32,2,25,25,0,0,1-2.6,1.44l-5.63,2.6c-1.58.72-3.89,1.58-5,0C146,40.84,146.1,40.56,146.39,40.56Z"/><path class="cls-16" d="M143.5,38.82c.29-.57.87-1,1.16-1.58s.86-1.59,1.29-2.45a13.33,13.33,0,0,1,3.18-3.18,24,24,0,0,1,4.32-4.18A25.27,25.27,0,0,1,160.23,24c.58-.15,1.3-.44,1.88-.58s1-.43,1.59-.72c2.45-.72,5.19,1,7.06,2.16,2.46,1.59,5.2,2.31,7.65,4,1.58,1.16,4.32,2,4.9,4.18a.44.44,0,0,1-.72.44,57.64,57.64,0,0,0-4.9-3.32c-2.17-1.44-4.47-2.16-6.78-3.32-1.59-.86-3-2-4.76-2.45h0a22.26,22.26,0,0,1-2.89.43l-1.73.44A31.46,31.46,0,0,1,157.78,27h0a31,31,0,0,0-4.61,3,26.84,26.84,0,0,0-4.62,5.33,9.65,9.65,0,0,1-2.88,3c-.58,1-1.45,1.88-2.31,1A1.12,1.12,0,0,0,143.5,38.82Z"/><path class="cls-16" d="M143.07,37a23.49,23.49,0,0,1,4.9-9.38c2.46-2.88,6.21-4.32,9.23-6.49.58-.43,1.16.29.73.87-2.6,2.45-5.77,3.89-8.37,6.34s-3.61,6.21-5.91,9C143.36,37.38,143.07,37.24,143.07,37Z"/><path class="cls-16" d="M148.69,88.3a49,49,0,0,0,11.54-4.47c2.17-1.16,5.63-1.88,7.94-.58h.57c.44.14.87.14,1.3.29h.87c.29,0,.57.14.57.43,0,0,.15,0,.15-.14h0c-.29-.44-.58-.72-.58-1.16s0-.57.43-.57c.87.14,1.88,1.29,2.74,2.16-.28-.29-.43-.58-.72-.87-.14-.14,0-.43.29-.28l1.3.86a2.52,2.52,0,0,1-.14-1c0-.43.28-.86.57-.86a2.56,2.56,0,0,1-.29-.73.37.37,0,0,1,.58-.43,9.44,9.44,0,0,1,2.31,3c.29.43.58,1.15,1,1.88a15,15,0,0,1-.72-2.74c0-.15.29-.44.43-.15a16.62,16.62,0,0,1,2.31,4.47A20.66,20.66,0,0,1,183,89c1.3.72,2.74,1.73,4,2.45.58.29,1.16.87,1.88,1.3,0-.29,0-.43.29-.58-.73-2.45-1.59-4.76-2.46-7.21-.14-.29.29-.58.44-.29a19.17,19.17,0,0,1,3,7.93.53.53,0,0,1-.58.58h-.43a4,4,0,0,0,1.73.58.45.45,0,0,1,.14.86c-1,.44-1.73.15-2.74-.57-1.44-1-3-1.88-4.62-2.89a.63.63,0,0,1-.72,0,12.39,12.39,0,0,1-1.44-1.3c-.86-.57-1.87-1-2.74-1.58-.14.14-.43,0-.58-.15a.47.47,0,0,1-.72,0,4.21,4.21,0,0,0-.86-.72.5.5,0,0,1-.15-.72l-.14-.14c-.15,0-.15.14-.29.14-1.15.43-2.88-.72-3.89-2h0a2.94,2.94,0,0,1-3,.58h-.72a12.43,12.43,0,0,0-4.62.86,20.06,20.06,0,0,1-3.17.58,14.16,14.16,0,0,1-4.19,1.44,22.54,22.54,0,0,1-2.88.87,6.78,6.78,0,0,1-5,0A.51.51,0,0,1,148.69,88.3Z"/><path class="cls-16" d="M163.26,73.73a5.84,5.84,0,0,1,2.45-1.3,43.59,43.59,0,0,1,4.48-2.59c1.44-.87,3-1.88,4.47-2.75.14-.14.43-.28.72-.57a8.28,8.28,0,0,0,1.44-1.73.51.51,0,0,1,.72-.15c-1-2.31-2.31-4.47-2.74-6.92a43.84,43.84,0,0,1-3.17-9.23.4.4,0,0,1,.72-.29c1.15,2.45,2.31,4.9,3.46,7.36l.15.14a46.66,46.66,0,0,1,2.88,6.06c.43,1.3,1.15,2.88.58,4.18-.29.58-1.16.29-1-.29v-.29a.78.78,0,0,1-.72-.43v.15a5.24,5.24,0,0,1-.58,1.29c0,.15.14.15.14.29.29.15.29.43.15.87a9.54,9.54,0,0,1-1.59,1.87,11.85,11.85,0,0,0,2.89-1.73.51.51,0,0,1,.72.72,18,18,0,0,1-5.77,3.46,16,16,0,0,1-5.34,1.3,44,44,0,0,0-4.61,1C163.26,74.31,163.12,73.87,163.26,73.73Z"/><g class="cls-17"><path class="cls-18" d="M181.29,33.49c7.07,2.31,12.41,8.65,16.59,14.42,2.6,3.61,5.34,7.07,8.08,10.53a27.85,27.85,0,0,0,3.75,4.47c1,1,2.16,2,2.31,3.61a.41.41,0,0,1-.73.29,13.18,13.18,0,0,0-3-3.32,40.44,40.44,0,0,1-3.9-4.62c-2.6-3.31-5.19-6.63-7.64-9.95a61.87,61.87,0,0,0-6.93-8.22,78.37,78.37,0,0,0-8.8-6.78C180.86,33.78,181,33.49,181.29,33.49Z"/><path class="cls-18" d="M152.3,30.6c2.45-2.45,6.2-3.46,9.23-4.76.43-.14.87.44.29.72-3.17,1.59-6.78,2.6-9.23,5.2-2.16,2.16-3.46,5-6.2,6.63-.15.15-.44-.14-.29-.29C148.26,35.65,150,32.77,152.3,30.6Z"/><path class="cls-18" d="M144.37,36.37A20.34,20.34,0,0,1,149,28.58c2-2.3,5.34-3,7.36-5.33.14-.29.58.14.43.28-1.58,2-4,3-6.06,4.62-2.74,2.16-4,5.63-6.05,8.37C144.51,36.66,144.37,36.52,144.37,36.37Z"/><path class="cls-18" d="M165.71,19.5a.22.22,0,1,1,0,.43,10.58,10.58,0,0,0-2.88.72c-.14,0-.29-.14-.14-.29A3.77,3.77,0,0,1,165.71,19.5Z"/><path class="cls-18" d="M158.79,19.35c-1,.43-2.16.87-3.32,1.3-.14,0-.28-.14-.14-.14a8.18,8.18,0,0,1,3.17-1.59C158.79,18.63,159.08,19.21,158.79,19.35Z"/><path class="cls-18" d="M154.18,76.76c.43-.29.86.43.43.72a15.39,15.39,0,0,0-3.46,4.62A15,15,0,0,0,150,84.84c-.29.72-.29,1.29-.86,1.73a.36.36,0,0,1-.58-.15c-.86-1.3.72-3.89,1.44-5.19A12.4,12.4,0,0,1,154.18,76.76Z"/></g><path class="cls-19" d="M142.2,36.37a.52.52,0,0,1,.15.43v.87a2,2,0,0,0,.43,1.3,2.15,2.15,0,0,0,2.16,1h.15c0,.14.14.14.14.29l.44.86a1.74,1.74,0,0,0,1.87.87,8.26,8.26,0,0,0,3.17-.58c.15,0,.15-.14.29-.14a2.32,2.32,0,0,0,1.59-.72l3.46-2.17c.15-.14.29-.14.58-.29a9.26,9.26,0,0,0,2.59-1,11.78,11.78,0,0,1,2.31-1l.87-.43c.14-.14.29-.14.57-.29s.44.29.58.44l1.73,1.73a2.48,2.48,0,0,1,.58.72,25.88,25.88,0,0,0,1.73,2,1.23,1.23,0,0,1,.43.86l.44,1.3c0,.14.14.29.14.43a47.06,47.06,0,0,0,2.31,6.35,22.71,22.71,0,0,1,1.15,3.32l.87,2.16a5.26,5.26,0,0,0,.57,1.3c.15.14.15.43.29.58s.15.72.29,1a4.21,4.21,0,0,1-.14,2.3c-.15.44-.29.72-.44,1.16l-.86,2.59A17.16,17.16,0,0,1,170,68.1a5.44,5.44,0,0,1-1.44,1.16l-1.3.86a1,1,0,0,1-.58.29c-.86.29-1.73.58-2.45.87l-2.59.86c-1.3.44-2.74.72-4,1.3a9.67,9.67,0,0,1-1.88.72,11.86,11.86,0,0,0-3.6,2.31A8.35,8.35,0,0,1,151,77.62a4.83,4.83,0,0,0-1.44,2,13.64,13.64,0,0,0-1.3,3A4.42,4.42,0,0,0,148,84a7.37,7.37,0,0,0,0,3,3.13,3.13,0,0,0,1,1.59.9.9,0,0,0,1,.28c.72-.14,1.59,0,2.31-.14a8.26,8.26,0,0,0,2-.29c1.59-.43,3.17-.86,4.76-1.44a29.75,29.75,0,0,1,4.76-1.44c.87-.15,1.59-.44,2.45-.58a16.1,16.1,0,0,1,4.62-.14c.72.14,1.3.28,1.87.43.15,0,.29.14.44.29a12.7,12.7,0,0,0,3.17,1.58c.58.29,1.3.58,1.87.87a14.62,14.62,0,0,0,2.6,1.15,10.9,10.9,0,0,1,2.6,1.3c.57.43,1.15.72,1.73,1.16a15.07,15.07,0,0,1,3.17,2.16l1.3.86a5.33,5.33,0,0,0,1.87.87,5.43,5.43,0,0,1,1.3.72,17.09,17.09,0,0,1,2,2.45c1,1.45,1.88,2.74,2.74,4.19s1.59,3,2.45,4.61a24.18,24.18,0,0,0,1.45,2.6,1.41,1.41,0,0,0,.57.72c.15-.15.29-.29.29-.43a1.31,1.31,0,0,0-.14-.72l-.44-.87c-.86-1.59-1.58-3-2.45-4.62l-2.59-4.32a18.13,18.13,0,0,0-1.45-2c-.28-.44-.72-.87-1-1.3-.14-.14-.28-.14-.28-.43.28-.15.57,0,.72,0s.57-.15.86-.15.29-.14.15-.29-.15-.14-.15-.28a2.37,2.37,0,0,0-1-.15,2.52,2.52,0,0,1-1-.14,6.79,6.79,0,0,1-2.3-1,25.23,25.23,0,0,0-2.6-1.59c-.58-.29-1.3-.72-1.88-1a15.44,15.44,0,0,1-2-1.15c-.43-.29-.86-.44-1.29-.72a47.09,47.09,0,0,1-4.62-2.46c-.14,0-.14-.14-.29-.14A22.35,22.35,0,0,0,176,85.56a6.23,6.23,0,0,1-1.3-.72c-.15-.15-.44-.29-.58-.44l-.14-.14a3.76,3.76,0,0,1-1.3-1.3,3.69,3.69,0,0,0-.87-.72c-.14,0-.14-.14-.29,0s0,.14,0,.29a3,3,0,0,0,.44.72l.43.43V84h-.29a11.47,11.47,0,0,0-2.31-.29,33.82,33.82,0,0,0-3.89.15,4.44,4.44,0,0,0-1.88.43h-.14a32.22,32.22,0,0,0-7.21,2.31c-.15.14-.43.14-.58.29a29.81,29.81,0,0,1-3.32.72c-.29,0-.43.14-.72.14a1.53,1.53,0,0,1-1.15,0,1.33,1.33,0,0,0-.72-.14,1.3,1.3,0,0,1-1-.44c-.15-.14-.15-.28-.29-.28,0-.15-.15-.15-.15-.29a6.58,6.58,0,0,1,.15-2.89c.29-1,.72-2,1-3.17a4.78,4.78,0,0,1,1-1.88,1.87,1.87,0,0,0,.43-.57,6.15,6.15,0,0,1,1.44-1.3c.87-.43,1.59-1,2.31-1.44a17.27,17.27,0,0,1,2.89-1.3c.57-.29,1.15-.43,1.87-.72a1.78,1.78,0,0,1,.87-.15,8.52,8.52,0,0,0,2.74-.72,5.28,5.28,0,0,1,1.58-.58c.15,0,.29-.14.44,0a.63.63,0,0,0,.72-.14,3.45,3.45,0,0,0,1.3.87c.14.14.28.14.57.28s.44-.14.44-.43a.78.78,0,0,0-.29-.58c-.15-.14-.44-.28-.58-.43v-.57c.14,0,.14-.15.29-.15a5.84,5.84,0,0,0,1.3-.72l.14-.14a4.34,4.34,0,0,0,1.88-2,9.25,9.25,0,0,0,.57-1.16c.15-.43.58-.72.72-1,.29-.57.58-1.3.87-1.87.43-1.16.86-2.31,1.3-3.61a1.33,1.33,0,0,0,.14-.72c0-.14.15-.43.29-.43a.31.31,0,0,1,.29.29c.14.28.14.57.29.86s.29.43.57.43c0-.14.15-.14.15-.28a1.29,1.29,0,0,0-.15-.73,7.44,7.44,0,0,1-.43-1,2,2,0,0,1-.29-.86c0-.14-.14-.29-.14-.43-.15-.29-.43-.44-.43-.87a2,2,0,0,0-.29-.86,7.57,7.57,0,0,1-.29-1c-.29-.58-.43-1.16-.72-1.73s-.43-1-.58-1.59a15.76,15.76,0,0,0-1.15-2.74,19.11,19.11,0,0,0-1.59-2.89,2.16,2.16,0,0,1-.43-1.87v-1c.14,0,.29,0,.29.14a18.4,18.4,0,0,1,2.3,2.45,9.11,9.11,0,0,0,1.16,1.3,22,22,0,0,1,1.44,1.88,2.45,2.45,0,0,0,.58.72.49.49,0,0,0,.29.14,1,1,0,0,0-.15-.86,3,3,0,0,0-.43-.72,11.43,11.43,0,0,1-1.16-1.59,8.94,8.94,0,0,0-1.15-1.3c-.29-.29-.58-.72-.86-1l-1.3-1.3a10.59,10.59,0,0,1-2-2.45,3.24,3.24,0,0,0-.58-.72,15.41,15.41,0,0,1-2-2.31,4,4,0,0,0-1-1.15l-1.73-1.73c0-.15.15-.29.15-.43.43.14.72.28,1.15.43a5.43,5.43,0,0,0,1.3.72,3.47,3.47,0,0,1,1,1c.72.86,1.3,1.73,2.16,2.6a9.75,9.75,0,0,0,2.45,1.73c.15.14.29.14.58.14h.43a.3.3,0,0,0,0-.58c-.14,1-.29,1-.43.87a8.38,8.38,0,0,1-2.6-1.88,13.74,13.74,0,0,1-1.58-1.44l-.44-.43a.54.54,0,0,1-.14-.43c-.58-.44-1.15-.87-1.59-1.16-.29-.14-.43-.43-.57-.57a2.48,2.48,0,0,1-.72-.58c.14-.15.43-.15.57-.29s.29-.14.43-.43.29-.44.44-.72c0-.15,0-.29.14-.29-.14-.15-.29-.15-.43-.29a4.49,4.49,0,0,1-1.15,1.15c-.15,0-.15-.14-.15-.29a2,2,0,0,0-.29-.86.53.53,0,0,0-.29.14c0,.15-.14.29-.14.58a1.89,1.89,0,0,1-.43,1.15c0,.15-.15.15-.15.29a13.92,13.92,0,0,1-2,1.16l-1.73.86a8.74,8.74,0,0,0-1.15.58,7.13,7.13,0,0,1-1.88.72,3.24,3.24,0,0,0-1.73.87c-.43.28-.72.57-1.15.86s-.58.43-.87.58c-.14,0-.14.14-.29.14a4.39,4.39,0,0,0-1.29.44,14.14,14.14,0,0,1-2.17.72h-.43c-.14-.15-.43-.15-.72-.15A1.9,1.9,0,0,1,147,41c-.72,0-1-.43-1.15-1.16a2.91,2.91,0,0,1,.58-2.16c.72-1,1.58-1.87,2.3-2.88.15-.29.44-.44.58-.73s.43-.57.58-.86.14-.43.29-.58a15.41,15.41,0,0,0,2-2.31,4,4,0,0,1,.86-.72,16.39,16.39,0,0,1,3.75-2.16c.15-.14.43-.14.58-.29a20.46,20.46,0,0,0,2.6-1A20,20,0,0,0,162.4,25a4.66,4.66,0,0,1,2-.58h2.74a4.15,4.15,0,0,1,1.3.14c.57.29,1.29.44,1.87.73a2.11,2.11,0,0,0,.87.28c.28.15.43,0,.43-.14s0-.29-.29-.43-.14-.15-.29-.15a19.77,19.77,0,0,0-2.59-1c-.29-.14-.44-.14-.73-.29a2.08,2.08,0,0,0-1-.28H165a.54.54,0,0,0-.43.14,23,23,0,0,1-2.88,1.15c-.72.29-1.45.44-2.17.73s-1.58.43-2.45.72c-.14,0-.29.14-.58.14A17.85,17.85,0,0,0,153,28.29a.48.48,0,0,1-.29.15,5.24,5.24,0,0,0-1.29-.58h-.15c-.14,0-.29.15-.14.29s.14.29.29.43.28.15.57.29a.53.53,0,0,1,.44.15l-.44.43a28.43,28.43,0,0,0-3,2.88l-.29.29a9.53,9.53,0,0,1-1.29,2c-.58.58-1.16,1.3-1.73,1.88a4.08,4.08,0,0,0-1.16,2,2.53,2.53,0,0,1-1.44-.58.88.88,0,0,1-.14-1,1.33,1.33,0,0,0,.14-.72,1.25,1.25,0,0,1,.43-.87c1.3-2,2.6-3.89,4-5.91a29.39,29.39,0,0,1,2-2.45,1.94,1.94,0,0,1,.58-.44c.14-.14.29-.14.43-.28a18.64,18.64,0,0,1,3.17-2,5.53,5.53,0,0,1,1.59-.73c.72-.28,1.59-.72,2.31-1a21.91,21.91,0,0,0,3.89-2.31,8.63,8.63,0,0,1,2.31-1.16H164a4.24,4.24,0,0,1,2.31.15,17.15,17.15,0,0,1,4,2c.72.57,1.59,1.15,2.45,1.73L175,24.69a11.26,11.26,0,0,0,1.58,1.15.15.15,0,0,1,.15.15,10.88,10.88,0,0,0,2.3,1.58,12.76,12.76,0,0,0,1.88,1.16l1.73,1.3.87.86c.43.58.72,1.16,1.15,1.88a1.11,1.11,0,0,0,.58.57.32.32,0,0,1,.29.29,3.25,3.25,0,0,0,1,1,25.67,25.67,0,0,1,3.75,4,.14.14,0,0,0,.14.14c-.14.15-.14,0-.14,0a13.08,13.08,0,0,1-1.45-1.44,10.45,10.45,0,0,0-2-1.58.14.14,0,0,1-.14-.15c-.29-.14-.43-.43-.72-.43a2.13,2.13,0,0,1-.87-.29h-.14c-.15,0-.15,0-.15.14v.29c.29.29.58.44.87.72a1,1,0,0,0,.58.29,10.81,10.81,0,0,1,2,1.59c.57.43,1,1,1.58,1.44s1.3,1.16,2,1.73,1,1,1.59,1.44c.14.15.14.15.14.29a2.69,2.69,0,0,0,.72,1c1.45,1.59,2.74,3.18,4,4.76.87,1,1.59,2,2.45,3.18,1.16,1.44,2.17,3,3.32,4.47A6.05,6.05,0,0,0,205.67,58,20.35,20.35,0,0,1,208,60.6c.86,1.16,1.87,2.46,2.74,3.61.14.29.43.58.57.87a1.62,1.62,0,0,1,.44,1.15A1.06,1.06,0,0,0,212,67l1.29,2.6c.15.43.44.72.44,1.15,0,.15.14.43.14.58a5.1,5.1,0,0,0,.58,1.3c0,.14.14.28.14.43a10,10,0,0,0,.87,2.16c1.58,3.46,3.46,6.64,5.19,10,.43.73.87,1.45,1.15,2,1.16,1.88,2,3.75,3,5.63,1.73,3,3.18,6.2,4.76,9.37a34,34,0,0,1,1.44,3.47,20.05,20.05,0,0,0,1.16,2.45c.14.14.14.29.29.43.14.29.57.15.72,0a1.1,1.1,0,0,0,.14-.72c-.14-.29-.14-.58-.29-.87-1.15-2.45-2-5-3.31-7.5s-2.46-5-3.9-7.5c-.29-.57-.72-1.15-1-1.73a47.86,47.86,0,0,0-2.74-4.61,39.62,39.62,0,0,1-2.31-4c-1-1.73-1.87-3.46-3-5a4.35,4.35,0,0,1-.87-1.87,34.05,34.05,0,0,0-1.88-5c-.28-.72-.72-1.59-1-2.31a18.3,18.3,0,0,0-2-3.61,11.13,11.13,0,0,1-1.16-1.73,19.77,19.77,0,0,0-2-2.74l-2.16-2.59c-2-2.6-4.18-5.2-6.2-7.65-1.16-1.44-2.31-2.74-3.47-4.18-.14-.15-.28-.43-.43-.58a9.93,9.93,0,0,0-2-2.31,4.59,4.59,0,0,1-1-1.29A21.34,21.34,0,0,0,189.8,37c-.43-.58-.86-1-1.3-1.59a7.74,7.74,0,0,0-1.58-1.44,11.07,11.07,0,0,1-2.6-2.6c-.14-.28-.43-.57-.58-.86a1.67,1.67,0,0,0-.72-.72c-.14-.15-.29-.15-.29-.29a1.44,1.44,0,0,0-.86-.72,4.21,4.21,0,0,0-1-.72,14.93,14.93,0,0,0-3.32-1.88c-.14-.14-.43-.14-.43-.43a.14.14,0,0,0-.14-.15,10.57,10.57,0,0,1-1.59-1.15,23.74,23.74,0,0,0-3-2.31c-.72-.57-1.44-1-2.16-1.58a8.94,8.94,0,0,0-3.61-1.59c-.14,0-.29-.14-.43-.14-.29,0-.58-.15-.87-.15a3.89,3.89,0,0,0-1.3.15,14.29,14.29,0,0,1-2.45,0,20.08,20.08,0,0,1-2.88-.29,4.61,4.61,0,0,0-3.18,1.29A25.86,25.86,0,0,1,152.16,22a11.32,11.32,0,0,0-1.59,1.15A6.44,6.44,0,0,1,149,24.26c-.43.28-.86.72-1.29,1a3.69,3.69,0,0,0-.87.72,5,5,0,0,0-1.88,2.3,8.74,8.74,0,0,0-.43,1,8.55,8.55,0,0,0-.72,1.74c0,.14-.14.14-.14.28-.29.87-.87,1.73-1.16,2.46a4.85,4.85,0,0,0-.57,1.29A3,3,0,0,0,142.2,36.37Zm.73-1a.53.53,0,0,1,.14-.43c0-.14.14-.29.14-.58.29-.43.44-1,.72-1.44a7,7,0,0,0,.73-1.44c.43-.87.72-1.73,1.15-2.6.14-.29.14-.43.29-.72a4.9,4.9,0,0,1,1.59-1.87,4.53,4.53,0,0,1,1-.73,5.84,5.84,0,0,1,1.45-1.15c.43-.29.72-.58,1.15-.87.58-.57,1.3-1,2-1.58,1-.72,2.16-1.3,3.17-2a5.84,5.84,0,0,1,1.3-.72,1.78,1.78,0,0,1,1.44-.29c.58,0,1.16.14,1.74.14a1.77,1.77,0,0,1,.86.15,38.88,38.88,0,0,1-7.21,3.89l-.15-.14a.3.3,0,0,0-.28-.29c-.15,0-.15.14-.29.29v.29c0,.28-.29.43-.44.57a31.28,31.28,0,0,0-3.6,2.46c-.15.14-.29.14-.43.28a20.93,20.93,0,0,0-2.31,2.74c-.43.58-.72,1-1.16,1.59a5.73,5.73,0,0,1-.72,1,35.43,35.43,0,0,1-2,3C143.21,35.22,143.07,35.22,142.93,35.36Z"/><path class="cls-19" d="M183.74,63.92c.29.58.73,1,1,1.59a4.7,4.7,0,0,1,.87,1.73,11.85,11.85,0,0,0,1.15,2.31,14.57,14.57,0,0,0,2.89,3c.29.14.43.43.72.72s.14.29.29.43a1.39,1.39,0,0,1-1.3-.29,5.61,5.61,0,0,1-1.44-1.15,7.91,7.91,0,0,1-2-3.32,1.18,1.18,0,0,0-.29-.58c-.43-.72-1-1.44-1.59-2.3a24.31,24.31,0,0,1-1.87-3.32,21.74,21.74,0,0,1-1.44-4c-.44-1.59-.87-3.17-1.16-4.76v-.15a.14.14,0,0,1,.15-.14.14.14,0,0,1,.14.14c.14.15.14.44.29.58A9.13,9.13,0,0,1,181,57a26.6,26.6,0,0,0,1,3.6A24.18,24.18,0,0,0,183.74,63.92Z"/><path class="cls-19" d="M172.49,26.42a.9.9,0,0,1,.58.14,14.32,14.32,0,0,1,2.45,1.59c.72.43,1.3.87,2,1.3a38.89,38.89,0,0,1,4.76,3.32,3.31,3.31,0,0,0,1.16.72.49.49,0,0,1,.28.14c.15.15.15.43-.14.43h-.29a1.1,1.1,0,0,1-.72-.28c-.72-.29-1.15-.73-1.73-1-.72-.44-1.44-1-2.16-1.45-1.45-.86-2.89-1.87-4.33-2.88a7.11,7.11,0,0,1-1.88-1.73C172.64,26.71,172.64,26.56,172.49,26.42Z"/><path class="cls-19" d="M175.81,46.18a11.62,11.62,0,0,0-1.3-1.44,5.32,5.32,0,0,1-1-1.44c0-.15-.14-.15-.14-.29v-.15h.14a6,6,0,0,1,1,.87,7.08,7.08,0,0,1,1.73,1.87l.44.44a3.13,3.13,0,0,1,.72,1.15.53.53,0,0,0,.14.29,7.25,7.25,0,0,1,1,2.16c.15.58.29,1,.43,1.59a1.59,1.59,0,0,1-.28,1c-.15-.15-.29-.15-.29-.29-.15-.29-.15-.43-.29-.72-.14-.58-.43-1.3-.58-1.88a4.62,4.62,0,0,0-1-1.87C176.53,47.05,176.1,46.61,175.81,46.18Z"/><path class="cls-19" d="M200.91,83.25h-.43a7.23,7.23,0,0,1-2.89-1.15,16.57,16.57,0,0,1-3.75-3.32,7.13,7.13,0,0,1-.86-1.16c0-.14-.15-.14-.15-.28v-.15h.29l.43.43a32.73,32.73,0,0,0,3.32,2.89,9.47,9.47,0,0,0,4.18,2c.15,0,.44.14.58.14s.29.15.14.29-.14.15-.28.29Z"/><path class="cls-19" d="M169.32,71.42c.15-.29.29-.43.43-.43.29-.14.72-.43,1-.58,1.16-.72,2.46-1.3,3.61-2,.43-.29,1-.57,1.44-.86.15,0,.15,0,.29-.15.14,0,.14.15.14.15s-.14.14-.14.29a4,4,0,0,1-1.15,1,26.2,26.2,0,0,1-3.32,2l-2.16.86A.52.52,0,0,0,169.32,71.42Z"/><path class="cls-19" d="M185.91,72.14c.14.29.14.58.29,1,.14,1,.29,1.88.43,2.89.14.57.29,1.3.43,1.87a1.38,1.38,0,0,1-.14,1.3.15.15,0,0,1-.15.15c-.28-.15-.28-.29-.43-.44a10.61,10.61,0,0,0-.29-1.15,20.23,20.23,0,0,1-.57-5v-.58l.14-.14C185.91,72,185.91,72.14,185.91,72.14Z"/><path class="cls-19" d="M205.52,95.22c.15,0,.29.15.44.15s.43.28.57.43A7.14,7.14,0,0,1,208,98a2.76,2.76,0,0,1,.29,1c0,.15,0,.15-.15.29A3,3,0,0,1,207,98.11a12,12,0,0,0-1.59-2.17c-.14-.14-.14-.29-.29-.29,0-.14-.14-.28,0-.28A1.09,1.09,0,0,1,205.52,95.22Z"/><path class="cls-19" d="M148.12,39.69a1.13,1.13,0,0,1-.72.29c-.29.14-.58,0-.87-.29v-.14l.15-.15a5.15,5.15,0,0,0,2.3-2c.29-.43.58-.72.87-1.15,0-.15.14-.15.29-.15a.14.14,0,0,0,.14.15,2.52,2.52,0,0,1-.14,1A5.73,5.73,0,0,1,148.12,39.69Z"/><path class="cls-19" d="M201.49,92.62h.14c.14,0,.43.15.29.29a.48.48,0,0,1-.15.29,7.46,7.46,0,0,1-1.58,1.44,3.23,3.23,0,0,1-.72.44c-.29.14-.44.29-.72.14-.15,0-.15-.14-.29-.14s0-.15.14-.15l.43-.43,2.17-1.73A.52.52,0,0,0,201.49,92.62Z"/><path class="cls-19" d="M190.81,93.78c0,.14,0,.29-.14.29a.27.27,0,0,1-.43,0,.15.15,0,0,1-.15-.15,3.43,3.43,0,0,1-1-1.87,5.27,5.27,0,0,1-.29-1.44v-.44c.15.15.15.15.29.15.15.29.43.57.58.86a17.73,17.73,0,0,1,1.15,2.31C190.67,93.63,190.81,93.63,190.81,93.78Z"/><path class="cls-19" d="M179.42,60.46a17.93,17.93,0,0,0,1.3,2.31c.14.14.14.29.28.43a.14.14,0,0,1-.14.14h-.14c-.15-.14-.44-.28-.58-.43a5.32,5.32,0,0,1-1.3-2.74v-.43c.14,0,.14,0,.29.14C179.13,60,179.27,60.17,179.42,60.46Z"/><path class="cls-19" d="M177.69,41a4.11,4.11,0,0,1-2.17.57.53.53,0,0,1-.43-.14c-.14,0-.14-.14-.14-.29a.49.49,0,0,0,.14-.29h.58a3.84,3.84,0,0,0,1.73-.43c.14,0,.29-.14.29,0a.52.52,0,0,1,.29.15.19.19,0,0,1,0,.28C177.83,40.84,177.83,41,177.69,41Z"/><path class="cls-19" d="M204.66,89.6a7.89,7.89,0,0,0,1.44-.87l.15-.14h.28c.15.14.15.14.15.28a1.51,1.51,0,0,1-.58.73c-.29.14-.72.43-1,.57a1.77,1.77,0,0,1-.86.15c-.15,0-.15-.15-.29-.15.14-.14.14-.29.29-.29A2.27,2.27,0,0,0,204.66,89.6Z"/><path class="cls-19" d="M179.85,86.42c.14.15.29.44.43.58l.87,1.3a3.24,3.24,0,0,0,.43.72v.14h-.14a6,6,0,0,1-1-.86,9.67,9.67,0,0,1-.72-1.88Z"/><path class="cls-19" d="M175.52,83a.15.15,0,0,1,.15.15c.14.28.43.57.57.86a1.06,1.06,0,0,1,.29.72,1.52,1.52,0,0,1,.15.72c0,.29-.29.29-.44.15l-.14-.15a3.78,3.78,0,0,1-.58-2.16v-.14C175.38,83.11,175.38,83,175.52,83Z"/><path class="cls-19" d="M176.82,53.39c.15.15.29.15.29.29a4.16,4.16,0,0,1,1,1.73c0,.15.14.29.14.43s-.14.29-.28.15-.29-.15-.44-.43l-.43-.87c-.14-.29-.29-.72-.43-1C176.82,53.68,176.82,53.54,176.82,53.39Z"/><path class="cls-19" d="M181,48.92a.14.14,0,0,1,.15-.14c.29-.44.72-.72,1-1.16l.14-.14c.29,0,.43.29.29.43a4,4,0,0,1-1,1.16c-.14,0-.14.14-.29.14a.27.27,0,0,1-.43,0C181,49.21,181,49.07,181,48.92Z"/><path class="cls-19" d="M146.68,35.22h-.15l-.14-.15v-.28c.29-.44.43-1,.72-1.45,0-.14.14-.14.29-.14s.14.14.14.29v.29a5.57,5.57,0,0,1-.72,1.29Z"/><path class="cls-19" d="M181.29,50.8a9.59,9.59,0,0,0,1.16-.44.42.42,0,0,1,.28.15c-.14.29-.43.43-.57.57a1.18,1.18,0,0,1-1,.15c0-.15-.15-.29.14-.43Z"/><path class="cls-19" d="M171.05,80.65a1.26,1.26,0,0,1,.15,1h-.15a.86.86,0,0,1-.43-.86c0-.15,0-.29.14-.29C170.76,80.36,170.91,80.51,171.05,80.65Z"/></g></g><g class="cls-21"><path class="cls-14" d="M69,71.33A4.69,4.69,0,0,1,66.81,75a13.49,13.49,0,0,1-3.94,1.69,30.11,30.11,0,0,1-9,1.77c-3.06,0-5.48-.89-7.09-2.58a10.8,10.8,0,0,1-2.58-5.56,51.6,51.6,0,0,1-1.12-11.68c0-1.45.08-2.9.08-4.35a19.5,19.5,0,0,1,1-6.85,6.18,6.18,0,0,1,5.48-4c2.82,0,4.76,2.34,5.56,4.51a13.74,13.74,0,0,1,.73,4.84c0,1-.08,1.93-.16,2.9a92.36,92.36,0,0,1-2.26,16.35.77.77,0,0,0-.08.41c0,.16.08.32.24.32a.61.61,0,0,0,.4-.16c2.42-1.77,4.76-4.35,7.9-5.24a8,8,0,0,1,1.93-.24C66.57,67.06,69,68.67,69,71.33ZM53.44,51.43c0-.08.08-.16.08-.24v-.41a5.59,5.59,0,0,0-1.85-4.43,1.72,1.72,0,0,0-.81-.32.66.66,0,0,0-.64.73c.16.56.72,1,1,1.37a4.24,4.24,0,0,1,.65,1c.32.89.16,2.34,1.05,2.58h.24A.36.36,0,0,0,53.44,51.43ZM66.57,71.81v-.24a2.26,2.26,0,0,0-1.69-2.25c-.4-.09-.89,0-.89.4V70A4.18,4.18,0,0,0,65.61,72c.16.08.24.16.4.25s.16.08.24.08A1.31,1.31,0,0,0,66.57,71.81Z"/><path class="cls-13" d="M89.29,60.61a5.65,5.65,0,0,1,1.61.25c3.23.88,5.4,4.18,5.4,8a10.62,10.62,0,0,1-4,8.22A12.16,12.16,0,0,1,84.22,80a14.2,14.2,0,0,1-7.74-2.26c-4.91-3-8.3-8.86-8.3-16.27,0-8.14,4.52-14.58,10.64-16.84a13.92,13.92,0,0,1,4.83-.8c4.27,0,8.54,1.61,10.56,4.18a5.84,5.84,0,0,1,1.29,3.39,5.45,5.45,0,0,1-2.42,4.27c-3,2.17-7,1.93-10.47,3.22a8.41,8.41,0,0,0-3.15,1.85,7.2,7.2,0,0,0-2.17,5.16,7.33,7.33,0,0,0,1,3.79,7.79,7.79,0,0,0,6.45,3.62c1.69,0,4.19-.48,4.19-2.33,0-1.21-1.13-1.37-2.18-1.7a4.09,4.09,0,0,1-2.57-3.78A4.76,4.76,0,0,1,89.29,60.61Zm3.14-8.13v-.33a4.31,4.31,0,0,0-.88-2.25A17.28,17.28,0,0,0,90,48.05a4.64,4.64,0,0,0-1.53-1.21.63.63,0,0,0-.33-.08.79.79,0,0,0-.72.8c.16.73.89,1.13,1.37,1.53a5.91,5.91,0,0,1,1,1,17.63,17.63,0,0,0,1.45,2.5.69.69,0,0,0,.48.24H92A.36.36,0,0,0,92.43,52.48Zm-1.2,11.76c-.41,0-.81.08-.81.48s.56.49.81.65c.64.24.8,1.45,1.61,1.45a.51.51,0,0,0,.56-.57,1.14,1.14,0,0,0-.16-.48,3.75,3.75,0,0,0-1.69-1.45C91.47,64.32,91.39,64.24,91.23,64.24Z"/><path class="cls-12" d="M101,72.05a3.19,3.19,0,0,1,.81-2V67.86c0-1.45-.08-3-.16-4.51h-.16c-.81,0-1.86-.24-1.86-1,0-1,1-1.37,1.78-1.62-.24-1.77-.41-3.62-.65-5.39a.6.6,0,0,0-.32-.08A3.59,3.59,0,0,1,98,52.23a3,3,0,0,1,.49-1.53c1.12-2,4-2.74,7.09-2.74a21.5,21.5,0,0,1,8,1.54,8.08,8.08,0,0,1,4,3.22,4.57,4.57,0,0,1,.65,2.42c0,2.25-1.7,4.1-3.07,5.23a8.38,8.38,0,0,1,5.56,3.87,5.4,5.4,0,0,1,.73,2.58c0,2.09-1.45,4-3.06,5.23a20.6,20.6,0,0,1-5.16,2.66,17,17,0,0,1-6.2,1.53C104,76.16,101,74.79,101,72.05Zm6.53-3.94a7,7,0,0,0,4.43-1.53,2.36,2.36,0,0,0,.73-1.62c0-1.61-1.7-2-2.9-2.41-.65.16-1.29.24-1.94.4h-.08C107.66,64.72,107.58,66.41,107.5,68.11Zm.32-7.82c1.37-.24,3.23-.8,3.23-2.33,0-.81-.89-1.54-1.54-1.86a5.26,5.26,0,0,0-2-.48A30.55,30.55,0,0,1,107.82,60.29Zm9-6.12v-.24a3.06,3.06,0,0,0-.81-1.61c-.4-.49-.89-.89-1.37-1.37a2.2,2.2,0,0,0-1.53-.89.65.65,0,0,0-.72.56c.16.57.72.81,1.2,1.05a4.17,4.17,0,0,1,1.53,1.61c.25.4.49.89,1,1,.08,0,.16.08.24.08A.29.29,0,0,0,116.85,54.17Zm3.46,11.44v-.16a3,3,0,0,0-.8-1.61,10.39,10.39,0,0,0-2.18-2,3,3,0,0,0-.81-.24.51.51,0,0,0-.56.56c.16.57.73.73,1.21,1a3.64,3.64,0,0,1,.88.73,15.44,15.44,0,0,0,1.29,1.77c.17.08.25.16.41.24H120C120.07,65.85,120.31,65.77,120.31,65.61Z"/><path class="cls-11" d="M118.78,48.85c0-1.61,1.69-2.09,2.9-2.42,5.8-1.69,11.84-3.38,17.81-3.38a32.29,32.29,0,0,1,5.47.48c2.18.49,4.6,1.37,4.6,3.95a3.74,3.74,0,0,1-1.78,3c-1.85,1.29-4.67,1.37-7.57,1.37a21.15,21.15,0,0,1-2.25-.08,51.76,51.76,0,0,1,1.85,12.17c0,3.22-.49,6.85-2,8.86a4,4,0,0,1-6.76-.24c-1.29-1.86-1.53-4.51-1.53-7.33,0-4.68,1-9.35,1-14.1a68.48,68.48,0,0,0-7-.41h-1.29C120.71,50.7,118.78,50.54,118.78,48.85ZM137,57.23c0-.24-.08-.56-.08-.81-.16-1-.24-2.49-1.29-2.74-.4-.16-.81.25-.81.65a1.72,1.72,0,0,0,0,.64c.08,1.13-.08,2.66.49,3.63a.69.69,0,0,0,.56.32C136.67,59,137,58,137,57.23Zm8.22-12.41c-.49,0-.81.24-.81.73l.24.48a7.57,7.57,0,0,0,2,1.93c.16.09.24.17.4.25h.24a.35.35,0,0,0,.32-.33v-.24C147.54,46.51,146.66,44.82,145.21,44.82Z"/><path class="cls-10" d="M172.44,75.52c-1.45,0-2.1-1.21-2.74-2.1s-1.37-1.61-2.1-2.41a10.7,10.7,0,0,1-7.73,3.62,9.59,9.59,0,0,1-6.45-2.41,13.07,13.07,0,0,1-4-7.34,16.88,16.88,0,0,1-.25-3,25.11,25.11,0,0,1,.65-5.48c.64-2.74,1.85-5.72,5-6.12.16,0,.33-.08.49-.08,1-3.3,3.54-6.77,8-6.77a7.23,7.23,0,0,1,5.56,2.82c2.18,2.66,3.47,7.25,3.47,11.69a20.51,20.51,0,0,1-2,9c1,1.45,1.86,3,2.82,4.43a4,4,0,0,1,.89,2.26A1.58,1.58,0,0,1,172.44,75.52ZM155.68,53c-.48,0-.81.24-.81.72l.25.49a7.69,7.69,0,0,0,2,1.93c.16.08.24.16.4.24h.24a.35.35,0,0,0,.33-.32v-.24C158,54.57,157.13,53,155.68,53Zm4.19,10.31a6.5,6.5,0,0,0,.72,3.31,3.19,3.19,0,0,0,2.5,1.53,2.69,2.69,0,0,0,1.45-.41c-.48-.56-1-1.2-1.45-1.85a5.52,5.52,0,0,1-1.29-3.14,2.32,2.32,0,0,1,2.26-2.5c1.69,0,2.5,1.37,3.22,2.42a18.66,18.66,0,0,0,.57-4.67,22.4,22.4,0,0,0-.49-4.6c-.48-2.41-1.61-5.4-4.67-5.4a5.74,5.74,0,0,0-3,1,13.06,13.06,0,0,0-2.18,2c1.78,1.12,2.66,3.7,2.66,6.2C160.35,59.24,159.87,61.34,159.87,63.27Zm3.95-1.53v.16c0,.16.16.24.16.33a4.42,4.42,0,0,0,1.45,1.28h.16c.08,0,.24-.08.24-.16v-.16c0-.64-.56-1.77-1.37-1.77C164.22,61.5,163.82,61.58,163.82,61.74ZM165.43,46v.16a.42.42,0,0,0,.16.32A4.43,4.43,0,0,0,167,47.72h.16c.16,0,.16-.08.16-.24s.08-.08.08-.16c0-.64-.64-1.77-1.45-1.77C165.83,45.55,165.43,45.71,165.43,46Z"/><path class="cls-9" d="M184.12,72a2.37,2.37,0,0,1-2.34,1.86c-2.25,0-2.9-2.1-3.3-4-.72-3.38-1.61-6.77-2.42-10.23a34.59,34.59,0,0,1-1-7.25c0-3.31,1.21-5.72,3.46-6.77a5.27,5.27,0,0,1,6.37,1.53,7.68,7.68,0,0,1,1.61,4.91c0,1.21-.16,2.34-.24,3.47-.41,3.3-.73,6.52-1.13,9.83A40.68,40.68,0,0,1,184.12,72Zm.4-20.46a5.2,5.2,0,0,0-1-3.3,1.53,1.53,0,0,0-1.29-.73c-.33,0-.65,0-.65.32v.25c.08.56.65.8,1,1.2.56.57.56,1.53.81,2.42a.9.9,0,0,0,.64.65h.24c.16,0,.24-.17.24-.33v-.48Z"/><path class="cls-6" d="M187.34,67.86c0-.16.08-.24.08-.4.49-2.25,2.82-2.33,5.24-2.66,1.05-4.19,1.77-8.46,3-12.65.73-2.41,1.77-4.91,4-6a4.3,4.3,0,0,1,1.93-.48c2.1,0,3.47,1.37,4.6,2.58,3,3.46,4.35,8,5.64,12.48.4,1.54.88,3.07,1.28,4.68,2.34.24,5.24.8,5.24,3.62a2.48,2.48,0,0,1-2.66,2.58,8.23,8.23,0,0,1-1.29-.16,19.87,19.87,0,0,1,.33,3.14c0,2.18-1.05,4.35-3.23,4.35-2.41,0-3.86-2.09-4.67-3.78a37.63,37.63,0,0,1-2.34-5.89,29.82,29.82,0,0,0-4.67-.4,20.27,20.27,0,0,0-5,.57l-1,4.35c-.24,1-.56,2.49-1.93,2.49a1.55,1.55,0,0,1-1.37-1.69,7.48,7.48,0,0,1,.24-1.29,26.84,26.84,0,0,0,.64-2.74,5.48,5.48,0,0,1-1,.16C188.63,70.52,187.34,69.48,187.34,67.86Zm13.22-16.19c-.65,0-.89.65-1.13,1a105.51,105.51,0,0,0-3.71,11.76c1.37-.08,2.82-.16,4.27-.16,1,0,2,0,3.06.08A.87.87,0,0,1,203,64c-.64-3.79-.4-7.82-1.61-11.52C201.28,52.07,201,51.67,200.56,51.67Zm4.83-.8v-.25a3.1,3.1,0,0,0-2.34-2.82.6.6,0,0,0-.32-.08c-.4,0-.64.24-.64.73.16.64.8,1,1.29,1.45A3.35,3.35,0,0,0,204.83,51c.08,0,.16.08.24.08S205.39,51,205.39,50.87Zm11.52,17.88v-.24a2.59,2.59,0,0,0-1.93-2c-.32-.17-.73-.09-.73.32s.49.56.73.72a3.63,3.63,0,0,1,.88,1,.87.87,0,0,0,.65.32C216.75,69,216.91,68.91,216.91,68.75Z"/><path class="cls-6" d="M239.07,58.2a2.08,2.08,0,0,1,.88,1.69c0,1.61-1.77,2.34-3.14,2.66a27.48,27.48,0,0,1-5.15.64c-.17,1.94-.41,3.87-.57,5.72-.08.81-.32,1.94-1.13,1.94-1,0-1.37-1-1.53-1.7a29.87,29.87,0,0,1-1-6c-2.34-.08-4.68-.24-6.93-.32-.81,0-1.94-.32-1.94-1.13,0-1,.89-1.37,1.61-1.61,2.34-.89,4.76-1.77,7.09-2.42.08-1.61.08-3.3.17-5,.08-1.53.4-3.39,2.09-3.39s2.18,1.86,2.34,3.31a36.79,36.79,0,0,1,.24,4.19h.88C235.12,56.83,237.7,57.15,239.07,58.2Zm-10.23-6.05v.17c0,.24.24.32.48.32a1.56,1.56,0,0,0,.56.08c.08,0,.16.08.24.08a.38.38,0,0,0,.41-.4c0-.33-.65-.49-1-.49C229.32,51.75,228.84,51.83,228.84,52.15Zm6.36,7.09c0,.25.24.33.48.33a7.37,7.37,0,0,1,1.29.32.42.42,0,0,0,.32.16h.25a.36.36,0,0,0,.24-.24v-.24c-.24-.57-1.05-.65-1.69-.73S235.2,58.76,235.2,59.24Z"/></g></svg>