<svg id="Слой_1" data-name="Слой 1" xmlns="http://www.w3.org/2000/svg" viewBox="0 0 283 113"><defs><style>.cls-1{fill:#191b1b;}.cls-2{fill:#fff;}</style></defs><path class="cls-1" d="M196.2,6.41,161.87,16.55l2,7.52,18-5.2c-2.27,3-4.5,6-6.71,9h0l-3.32,4.44a17.56,17.56,0,0,0-1.19-1.53C159.33,19.55,145.78,15,130.22,17.93A44.58,44.58,0,0,0,99.44,83.51a2.11,2.11,0,0,1-.27,2.72c-.81.94-3.09,4.07-6.22,8.4l5.23,7,1,1.47q3.87-4.85,7.7-9.67C119.1,105.05,133.53,109.2,150,105,178,97.74,191.57,66,177.71,40.43a2.33,2.33,0,0,1,.27-3c.35-.44.58-.78.74-1a25.06,25.06,0,0,0,1.58-2.07L182.06,32c1.86-2.46,3.71-4.93,5.83-7.75.24,6.23.46,12,.69,18h8.15C196.56,30.29,196.39,18.42,196.2,6.41ZM120.39,31.72A34.89,34.89,0,0,1,166,40.05l-3.79,5.05c-.93-1.33-1.78-2.51-1.9-2.64-7.13-7.5-15.88-10.71-26.07-9.1a29,29,0,0,0-23.28,37.23l-4.32,5.72A35,35,0,0,1,120.39,31.72Zm22.39,52.66,18.56-24.72C162.36,71.78,154.72,82.1,142.78,84.38Zm-16-42.07a22.6,22.6,0,0,1,7.62-2.9L115.8,64.09A22.8,22.8,0,0,1,126.77,42.31ZM143.9,64.52c-2.61-8.44-5.18-16.79-7.83-25.36a22.75,22.75,0,0,1,20.42,8.57ZM121.27,75.93c4-5.47,8.14-10.92,12.34-16.52l7.51,25.25c-7.77,1-14.4-1.79-19.76-7.69A1.05,1.05,0,0,1,121.27,75.93ZM144,96.45c-12.19,2-22.6-1.87-31-10.68l3.67-4.61a2.31,2.31,0,0,1,.29.2c.15.16.29.32.44.47,7.79,8,17.2,11.08,28.09,8.61a29,29,0,0,0,21-37.5l4.13-5.49a29.12,29.12,0,0,1,2.83,9.8C175.49,76.65,163.22,93.29,144,96.45Z"/><path class="cls-2" d="M195.24,42.27h1.09q4.36,0,6,2.5l.64,1.15v.19a2,2,0,0,1-.26,1,7.43,7.43,0,0,1,.32,2l.13.12v.2l-.51.25v.07c.32.16.49.28.51.38v.13l-.06.06c-.3.14-.45.25-.45.32v.13l.13,1.41-.26.51a.75.75,0,0,0,.45.71l.06.25a1,1,0,0,1-.51.77l.06.07v.19l-.12.19a.89.89,0,0,1,.25.71l.07.06h.06l.32-.06.13.32-.19.06v.06c0,.07.15.15.44.26v.19l-.12.13c-.52-.51-.84-.77-1-.77l-.13.39v.25c.17,0,.25,0,.25.13l-.32.45h.64l.13.13c-.56.32-.86.53-.89.64V58a2.4,2.4,0,0,0,.44,1.28l-.06.07h-.06l-.52-.13-.06.06v.32l.32.39v.19a2.33,2.33,0,0,1-1.09,1.66,11.54,11.54,0,0,1-3.78.58l-1.73-.06c0-.1-.1-.16-.32-.2s-.71.37-1.28,1.09c.34,0,.51.11.51.2v.64c0,.08-.13.12-.38.12l-.07.2.32.51-.06.25.32.39-.06.06-.39-.12v.06l-.13,1a1.47,1.47,0,0,0,.26.64l.06.32V68a2.43,2.43,0,0,1-.19,1l.19.19-.12.77c0,.09.12.27.38.51v.32c0,.09-.06.13-.19.13l-4,.06-.06-.06-.13-27.48v-.83c0-.09.07-.13.19-.13Zm-.57,4.16c-.08.64-.27,1-.58,1l.19.26V48h-.13v-.19h-.06a.42.42,0,0,0-.26.45v.58c0,.42.07.64.19.64h.07l-.45,1c.09,0,.15.15.19.45,0,1.32-.13,2-.38,2a.88.88,0,0,0-.19.58v.06a.8.8,0,0,0,.32.71,6.36,6.36,0,0,0-.32,2.17v.2a2.6,2.6,0,0,0,.7,2.17v-.12h.13l.13.12-.39.39v.19a1.44,1.44,0,0,0,.51.45h.07c.13,0,.28-.26.45-.77.47-.47,1.47-.7,3-.7a2,2,0,0,0,1.15-.9q.45,0,.45-6.15c-.09-2.86-.36-4.29-.83-4.29a3.61,3.61,0,0,0-2.12-.58Zm-.26,19.22c.13,0,.19.23.19.7l-.13.13h-.13c-.08,0-.12-.06-.12-.19C194.24,65.86,194.3,65.65,194.41,65.65Zm.32-5.25-.13,1c.49-.22.77-.41.83-.58v-.06C195.43,60.57,195.2,60.46,194.73,60.4Zm.13,1.34.32.32.06-.06v-.13l-.13-.13Z"/><path class="cls-2" d="M204.18,43h1l3,.06.07.06v.07l-.2,1.22.13.38-.06.06-.07-.06h-.25v.06l.32,1.09-.26.13v.39l-.06.25.38.51v.13l-.13.13-.25-.06a3.77,3.77,0,0,0-.19,1.34l.06.19h.06c0-.17.09-.25.2-.25H208l.19.19c-.42.43-.64.73-.64.9l.51.25-.19.45.13.13c-.51.28-.77.53-.77.77l.45.19-.13,1.54a.69.69,0,0,0,.32.64h.58v.13l-1,.25v.13h.13v.06l-.13.52v.25h.13l.38-.38.13.13V55c0,.31-.3.74-.9,1.28l.39,1.09c-.16,0-.27.58-.32,1.73l-.07.06a1.28,1.28,0,0,0,.45,1l-.32.52v.13c0,.08.08.12.26.12l.06.07v.19c0,.07-.11.14-.32.19a3.59,3.59,0,0,1,.32,1.22l-.26.45.26.64c-.3.07-.45.16-.45.25v.07a3,3,0,0,0,1.28,2.3c0,.26.06.39.13.39l3-.07,4.16.13.13.19a1.56,1.56,0,0,0-.39.71v.32c.26,0,.39.06.39.19a9.21,9.21,0,0,0-.45,2v.13l.13.64h-.07l-8.26.06h-3.07l-.13-.12V43.16Zm3.9,8.39c.27.08.42.19.45.32v.06l-.19.19h-.06c-.09,0-.17-.17-.26-.51Zm.26,3.71h.13l.13.13v.19l-.13.13h-.13l-.13-.13v-.19Zm7.88,12.24h.06l.32.32-.13.13h-.12l-.26-.26V67.5Z"/><path class="cls-2" d="M226.55,43c.13,0,.19.28.19.84v.57l.06.07v.06c-.42.1-.64.22-.64.38s.3.45.71.45l.13.26-.07.7c.17.07.26.13.26.2v.06l-.77.7c0,.16.13.34.38.52l.2-.39c.17.07.25.13.25.19s-.19.46-.57.84a.58.58,0,0,1,.38.32l-.19,1.09c0,.06.17.15.51.25v.07c-.22.3-.42.45-.58.45v.06h.13l.39-.06.19.19c0-.17,0-.26.13-.26a1.11,1.11,0,0,1,.25.83l-.32.26-.51-.19L227,52a1.17,1.17,0,0,0,.38.9.45.45,0,0,0,.26.45h.06l.38-.13.07.07v.06a4.16,4.16,0,0,1-.58,1.09l-.13.7c.1,1.11.25,1.67.45,1.67v.06L227.57,58v.13l.39.06a1.43,1.43,0,0,1-.39.84c.17.08.26.19.26.32l-.19.76.44.26-.19.51V61l.39.45v.13c0,.22-.07.35-.2.38h-.32a2.47,2.47,0,0,0,.32.9l-.25,1.22v.12l.32.32-.19.77v.2l.12.12h.2a.4.4,0,0,1,.25-.38c.09,0,.17.13.26.32-.08.21-.18.32-.32.32l.19.26v.06c0,.56-.12.83-.26.83h-.12v-.45h-.07v1l.58-.12.06.06v.06a.75.75,0,0,1-.57.33v.06c.17,0,.25.08.25.19v.07l-.32,1c0,.16.13.29.39.38q0,1.35-1.41,1.35h-.51q-.24,0-.45-2.31l-.64-3.9c-1.75,0-2.63-.13-2.63-.39s-.15-.29-.45-.38c-.55.21-.83.53-.83,1h.06c.13,0,.2,0,.2.13-.6.37-.9.61-.9.7l-.64,3.14v1.28c0,.47-.11.71-.32.71l-2.63.12-.13-.25Q221.75,43.77,222,43Zm-4.93,27.35a.9.9,0,0,1,.25.52l-.06.06h-.26l-.19-.19v-.19Zm.25-1,.13.13v.45c0,.22-.06.35-.19.38h-.19V70.2C221.65,69.64,221.73,69.36,221.87,69.36Zm2.37-14.73q-.27,1.86-.9,1.86l-.06.38h.06l.26-.13.07.2c0,.09-.33.39-1,.89l-.44.77v.45c0,.47.38.7,1.15.7l.19.2H225l-.13-2.5v-.64a8.21,8.21,0,0,1-.51-2.18ZM228,52.45l.12.13v.13l-.25.38h-.26V53A.66.66,0,0,1,228,52.45Zm-.07,2.82H228c.12,0,.19.28.19.83l-.26.13a1.38,1.38,0,0,1-.25-.64v-.06Zm.51,3.2c.3.1.45.19.45.26v.06a.51.51,0,0,1-.51.32l-.06-.06h-.07Zm.26,5.06h.07l.12.13v.13l-.12.13h-.26v-.19Zm-.13,4.81h.26l.13.13v.38l-.13.13h-.13l-.13-.13Zm.13,2h.13l.13.13v.26l-.13.13h-.13l-.13-.13v-.26Zm.71-7.75h.19l.13.13v.07c-.39.23-.58.4-.58.51l-.32.06v-.19A1.45,1.45,0,0,1,229.37,62.57Zm0-1.21.12.12v.07l-.44.51H229l-.13-.13v-.19A.53.53,0,0,1,229.37,61.36Zm.32,5.38c.55,0,.83.06.83.19v.38l-.19.19h-.07c-.08,0-.13-.08-.13-.25-.3-.15-.44-.26-.44-.32Zm.51-1.54.13.51-.2.13h-.19l-.19-.19v-.13A.55.55,0,0,1,230.2,65.2Zm0,2.5h.19l.26.25v.2c0,.12-.2.23-.58.32L230,68.4h-.07l.19-.25-.06-.07v-.25Zm.25.83c.17,0,.32.28.45.83l-.19.07a4.43,4.43,0,0,1,.38,1.41l-.06.06h-.45l-.32-.38c0-.11.09-.18.26-.2a1.83,1.83,0,0,1-.39-.83v-.13c.09,0,.13-.31.13-.77l.07-.06Z"/><path class="cls-2" d="M232,42.91h2.82c1,0,1.54.15,1.54.38v.07c-.26,0-.39.08-.39.25l.45.84c-.26,0-.38.11-.38.19v.25a3.43,3.43,0,0,0,.44,1l-.19.19v.13a8.14,8.14,0,0,0,.64,2.11v.52c0,.13.32.22,1,.25l.13.32c-.47.06-.7.27-.7.64l.44,1.28.52-.64h.06c.21.08.36.57.45,1.48h-.06c-.28,0-.5-.2-.65-.58H238c-.13,0-.19.17-.19.38.3.22.45.39.45.52h.12l.39-.26h.06l.07.06h.06l-.13.58.07.07c-.22.08-.32.21-.32.38-.31,0-.48.06-.52.19v.07c0,.14.38.38,1,.7l.06.38h.32c.1,0,.19.15.26.45l-.06.07h-.07l-1-.13v.13c.05.32.14.49.25.51h.58v.19l.38-.19a6.86,6.86,0,0,0,.52,1.41h.06v-14l.13-.12L242.4,43c1.07.05,1.6.11,1.6.19a9.48,9.48,0,0,0-.45,3.14v.39l.07,1.41.7-.26h.07l.19.19v.07a5.09,5.09,0,0,1-1.28.45c.06.47.15.7.25.7s.11-.16.32-.19l.07.06c0,.6-.09.9-.26.9l-.45-.07V50c0,.55.24.83.71.83h.13l.44-.06.07.06v.07c-.32.47-.6.7-.83.7l-.07-.06v-.07l.13-.25h-.06c-.3,0-.45.25-.45.76l-.07.39h.07c.42.12.64.24.64.38v.13c-.47.43-.71.68-.71.77.39.16.58.29.58.38v.07a1.12,1.12,0,0,0-.32.89v1.48l-.13.83c.37.16.57.29.58.38s-.17.22-.51.33l.57,1.34v.13a1.29,1.29,0,0,0-.38,1v.2c.25,0,.38,0,.38.12a2.28,2.28,0,0,0-.25.84v.06l.12.13c0-.13,0-.19.13-.19h.13l.06.32v.25l-.06.07v.06c.3,0,.45.14.45.26s-.28.35-.83.38l-.2.32c0,.17.11.3.32.39s.26-.13.26-.39l.19-.13h.07l.12.13v.13l-.32.38v.07l.07-.07h.06c.13,0,.19.17.19.39v.13l-.19.19-.38-.32-.13.13.19.19v.06l-.45.26v.25l.32,1.22-.25.13a3.63,3.63,0,0,1,.7,1.47l-.38.32v.58c.3.29.45.48.45.58l-.26.38q.45.21.45,1l-.07.07h-3.65l-.77.06q-1.34-4-4-13.58h-.06v.77l-.13.13-.38-.13c0,.13.19.26.57.38,0,.14-.45.48-1.28,1a4.82,4.82,0,0,0-.57,1.73v.13l.19.06a7.59,7.59,0,0,0-.26,1.67l.32.89-.32.13v.06c.22,0,.32,0,.32.13l-.32.51v.07c0,.08.13.13.39.13v.12a4.91,4.91,0,0,0-.26,1.22,1,1,0,0,0,.45.71c0,.17-.13.25-.39.25,0,1.58.41,2.54,1.22,2.89a.52.52,0,0,1,.39.51,1.85,1.85,0,0,1-1.09.25h-2.82l-.26-.19-.06-20.3V43.1Zm4.8,6.53v.19l.13.45H237l.06-.32v-.38ZM239,53.29a.41.41,0,0,1,.25.44v.13l-.13.13h-.19l-.13-.13v-.19C238.85,53.41,238.91,53.29,239,53.29Zm.12,3.33v.32h.32v-.32Zm4.1-3.72.39.13h.06V52.9l-.19-.19h-.06Zm.39,15.25.45-.45v-.07h-.13v-.06C243.72,67.57,243.62,67.76,243.62,68.15Zm.77-16.47.06.07h.06c-.07.38-.16.57-.25.57h-.13c-.11,0-.19-.17-.26-.51Zm-.13,3.4h.06l.19.19q-.25.39-.51.39l-.06-.07v-.13Zm.13,3.71h.06l.13.13v.39l-.13.12h-.13l-.32-.51Zm-.2,6.41.26.19v.07a.68.68,0,0,1-.38.32l-.07-.07v-.38C244,65.24,244.07,65.2,244.19,65.2Zm.2-7.17h.06l.13.12v.26l-.13.13h-.06l-.13-.13v-.26Z"/><path class="cls-2" d="M245.52,43h.58l10.06.06c.38.3.57.58.57.83l-.06.32h.19c0-.17,0-.25.13-.25l.19.19v.06l-.32.32h-.19l-.19-.12-.07.06v.06l.07.32a.68.68,0,0,0-.52.52l.13.12v.13l-.32.52.07.06h.38v.06l-.64.9-4.55.06h-.58l-.12-.12v-.26c0-.6-.14-.9-.32-.9l-.71.07-.25-.13c0,.43-.13.64-.39.64a1.19,1.19,0,0,0-.38.7h.13c0-.17.08-.25.19-.25l.19.19-.26.32v.9c0,.13-.08.19-.25.19v.06l.06.32-.19.13.06.07v.06l-.06.51.32,1.54c-.06.17-.13.26-.19.26H248v.51H248l.39-.13c.08,0,.17.19.25.58h.13v-.13H249l.13.13v.06L248,53.8v.06l.45-.06v.06a.7.7,0,0,1-.71.39c0,.13.33.24,1,.32l.06.19c-.26.11-.38.23-.38.38l.12.32.64-.06.07.32.06-.06h.32a1.54,1.54,0,0,1,.58.7l-.07.06a1.32,1.32,0,0,1-.89-.38h-.13l-.64.06-.06-.32h-.07c-.12,0-.2.22-.25.64V57h.44l.2.19-.45.51.06.33a2.91,2.91,0,0,0-.32,1.34v.06a6.45,6.45,0,0,0,.26,1.48l-.07.06h-.06l.13.64c0,.14-.17.33-.45.58a1.07,1.07,0,0,1,.64.19l-.06.32v.19l.06-.06h.26l.19.26c-.33,0-.53.21-.58.64.12.55.25.83.39.83l.19-.13c.68.15,1,.49,1,1l.07.76v.39l4.93.13.06.06v.06l-.57.52v.06h.12c0-.13,0-.19.13-.19s.24.19.32.58v.32l-.25.25h-.07l-.06-.06h-.07l.07-.07V68h-.07l-.25.39v.06l.06.83a2.26,2.26,0,0,1-.32,1.16c.22,0,.32.13.32.38l-.06.07h-.07l-8.64.12-.2-.25V43.16Zm3.33,17.29h.07l.32.32v.07h-.32l-.19-.2v-.06Zm.2-2.43h.12l.2.13.32-.07.12.19v.07c0,.13-.19.19-.51.19l-.38-.38Zm.38-8.07h.06l.2.19v.06c0,.1-.17.16-.52.19v-.19Zm.13,2.62.19.19v.26c-.09.39-.19.58-.32.58s-.13-.07-.13-.19C249.33,52.73,249.42,52.45,249.56,52.45Zm.77,1.92h4.16l.13.13-.07,2.12.07,1.66-.07.07h-.12l-.26-.2a1.19,1.19,0,0,1-1.15.52h-1.09l-1.22-.2h-.58c-.1,0-.17-.19-.19-.57l.07-.07h.06l.19.13V57.9l-.06-.26.25-1c-.06-.56-.19-.84-.38-.84s-.23-.21-.32-.64l.06-.06h.07l.25.06c.22,0,.32-.11.32-.19h-.38v-.06C250.15,54.54,250.23,54.37,250.33,54.37Zm4.74,14.35a.66.66,0,0,1,.57.39l-.19.19c-.08,0-.13-.07-.13-.19l-.64.25V69.3A.66.66,0,0,1,255.07,68.72Zm2.82-2,.06.07.06,3v1l-.12.13h-1.41l-.39-.51c0-.13.17-.19.39-.19,0-.08-.13-.17-.39-.26v-.19h.19l-.06-.32H256l-.07.06h-.06l-.13-.19v-.07a1.14,1.14,0,0,0,.58-1.15l.32-.38H257v-.26C257,66.93,257.29,66.67,257.89,66.67Zm-1.8-19.85h.13l.13.12v.2l-.13.12h-.13l-.13-.12v-.2ZM257.5,44h.13l.26.25v.07l-.13.13h-.07C257.6,44.45,257.53,44.3,257.5,44Z"/><path class="cls-2" d="M258.93,42.91h8.77l3,.06.07.07v.06l.06,3.59-.06.06-2.57.07h-.7v.44l-.45.32c0,.39-.09.58-.19.58h-.07l-.06-.06-.19.06.13.39-.26,1v.13c0,.09.19.2.58.32v.19c-.35.21-.52.43-.52.64V51a1.38,1.38,0,0,0,.52.83,5.41,5.41,0,0,0-.39,1.35l.13.25.32-.06h.06v.13l-.44,1.28a.75.75,0,0,0,.51.13l.13.44-.07.07h-.06l-.39-.13v.13l.07.06v.07l-.19.06v.07L267,56c0,.09-.09.13-.26.13l.26.38v.13c0,.09-.11.13-.32.13v.13l.06-.07h.19c.1,0,.18.19.26.58l-.71.25v.07a1.21,1.21,0,0,1,.52.9c0,.17-.11.25-.32.25v.19l.32-.06.06.06v.32c-.26,0-.38.13-.38.39l.19.7h.06v-.06l-.06-.19.06-.07h.19c.12,0,.21.22.26.64a.88.88,0,0,1-.51.13V61a.84.84,0,0,0,.45.76v.52l-.13.12h-.45v.07a12.09,12.09,0,0,0,.64,3.39l-.38.26a19.66,19.66,0,0,1,.38,4.68l-.19.06L263,71l-.06-.06v-.06l-.13-24-2.5.12c-1,0-1.47-.12-1.47-.38l-.07-3.33C258.79,43,258.85,42.91,258.93,42.91Z"/><path class="cls-2" d="M20.39,39.56h.37q4,0,5.09,2.69l.15.38c-.2.07-.3.14-.3.22l.3,1.42.38-.07A6.22,6.22,0,0,1,27,45.84a.5.5,0,0,0-.3.53v.07l.45.82-.07.08L27,47.26h-.59v.08l.37.07-.3,1.05v.15a1.23,1.23,0,0,1,.45.75v.15l-.23-.08-2.54.08h-.82a8.78,8.78,0,0,1-.45-2.69c-.48-1.35-1-2-1.5-2A2.44,2.44,0,0,0,20,44.5h-.08c-1.35.13-2,.41-2,.82a3.17,3.17,0,0,0-.82,1.5h.22v.07l.08-.07h.07l.08.07h.07a10.33,10.33,0,0,0-.6,3.37l-.22.07.3.75H17l-.3-.15-.37,1.35a3.22,3.22,0,0,0,.75,1.19v.08c0,.1-.13.15-.38.15v.52l.15.15.45-.15.08.08v.07l-.15.6.45,1.35c.6,0,.89-.5.89-1.5v-.37l.15-.15H19a9.79,9.79,0,0,1,6.44,2l.82,2.84.08.52-.08.6.67.82v.08a.7.7,0,0,0-.3.67l-.29.45v.38l.67,1c-.35.11-.53.21-.53.3a6.68,6.68,0,0,0,.6,1.57c0,.09-.15.16-.45.22l-.15.53v.3h.75c.5,0,.75.15.75.37a7.14,7.14,0,0,1-2.24,4.86A8.48,8.48,0,0,1,22,73.67H18.37a7.77,7.77,0,0,1-4.71-3.21q-1.35-2.13-1.35-6.59l.07-.07h.08l4.94-.15.07.07v.08l-.67,2c0,.22.17.47.52.75v.67c0,1,.38,1.42,1.12,1.42l1.13.38a4.51,4.51,0,0,0,3-1.5A23.15,23.15,0,0,0,23,64.4c0-2.27-.53-3.82-1.57-4.64A13,13,0,0,0,18.22,59,8.88,8.88,0,0,1,13,54.9a11.38,11.38,0,0,1-.75-3.82l-.07-1.8v-.89c0-4.11,1.8-7,5.39-8.61A17.66,17.66,0,0,1,20.39,39.56Zm5.61,30-.07.07v.53h.15l.22-.23v-.07Zm0-1.12.75-.6v-.23l-.37-.07C26.19,67.54,26.06,67.84,26,68.44Zm.23-23.12.15.45.22-.23v-.37h-.22Zm1.64,3.22.23.3v.37l-.23.22h-.3l-.3-.52v-.15ZM28,46.59H28l.15.15v.45l-.15.15H28l-.15-.15v-.45Z"/><path class="cls-2" d="M36.31,39.93h.82c2.44,0,4.24.73,5.39,2.17A3.88,3.88,0,0,1,43.94,45v.3a2.46,2.46,0,0,1-.15,1l.07.45v.15c0,.1-.07.15-.22.15a.85.85,0,0,1,.22.52v.08l-.37.37.07.38v.07l-.15,1.42c0,.19.25.41.68.68l-.53,1.12v.07q0,.15.45.3v.08a3.78,3.78,0,0,0-.3,1.64,15.85,15.85,0,0,0,.53,3l-.23.15a1.79,1.79,0,0,1,.38.82l-.15.45c.15,0,.22.05.22.15v.15l-.45.3V59l.23,1.2h-.08l-.22-.08v.23a5.49,5.49,0,0,0,.37,1.72.4.4,0,0,0-.45.45v.82l-.07.07a2.87,2.87,0,0,1,.52,1l-.6,1.12A24.3,24.3,0,0,1,44.54,70v.52a1.22,1.22,0,0,1-.6,1.12l.37,1.2v.08a.48.48,0,0,1-.45.3l-.07-.3c-.11,0-.19.22-.23.67h-.15a3.7,3.7,0,0,1-1.94-1.12h-.08a11.81,11.81,0,0,1-5.76,1.19h-.45q-3.75-1.15-5-3.44a9.53,9.53,0,0,1-1.27-4V47.19q0-2.4,2.39-5.31A7.47,7.47,0,0,1,36.31,39.93Zm-3.52,8.68c0,.1.13.15.38.15v.15l-.3,1.27v.45c.24,0,.37.08.37.23l-.67,1.64.15.15v.23l-.15.52h.07l.67-.08.08.08v.07a1.56,1.56,0,0,0-.37.75l-.3.08.37,1.42-.22.45.22.82-.37.07v.08q0,.15.3.15l.07.07v.08l-.3.37v.08l.15.6v.15c0,.1-.07.15-.22.15l-.08.07v.08A14.75,14.75,0,0,1,33,61.4a1.75,1.75,0,0,0-.53,1.43v.07l.38.45v.07c0,.1-.08.15-.23.15l-.07.08v2.24c.12,1.25.67,1.87,1.64,1.87,0-.15,0-.22.15-.22a7.31,7.31,0,0,1,2,1.12l1.5-.22c-1.75-1.76-2.62-2.81-2.62-3.15v-.22q0-.61,3.14-3.52c.26,0,.61.23,1.05.68v-.15l.07-15c-.3-1-.57-1.57-.82-1.57a3,3,0,0,0-2.09-.74c-1.79,0-2.91.72-3.37,2.16Zm.52,15.79h.08l.52.67q0,.23-.45.45L33.39,65l-.22.15-.23-.23v-.15Z"/><path class="cls-2" d="M45.85,40.16l3.36.07h1.5l.15.15V41.5q0,.15-.3.15l-.08.08v.07l.23.75v.22a1.16,1.16,0,0,0-.3.75l.22,1-.52,1.12L50,46l.52,2.62v.08l-.37,1.12.44.37q-.74,1.95-.74,8.38l-.15,1c.08,0,.16.12.22.37a2.43,2.43,0,0,1-.37,1V61l.52,1.12c-.35,0-.52.21-.52.53v.22A2.39,2.39,0,0,0,50.26,64v.08c0,.1-.12.15-.37.15a1.29,1.29,0,0,0-.3.75c.17,1.39.45,2.09.82,2.09a7.36,7.36,0,0,0,3.52,1.35c1.24,0,2.07-1,2.46-2.92V41.35c0-.79.08-1.19.23-1.19h1.94a5,5,0,0,1,1.88.37c0-.2.09-.3.22-.3h.07l.3.3.08-.07h.22l.15.15v.22l-.22.22a.88.88,0,0,1-.53-.22c0,.26-.22.54-.67.82L60,42c.25,0,.37.1.37.3l.22-.15h.08c.1,0,.27.3.52.89l.23.23v.22l-.75.23-.15-.3h-.07l-.3.3v.37L60,45.62a1.09,1.09,0,0,0,.74.22l.23-.07.15.6v.22l-.67-.15q-.3,0-.3,1.65l.22.15H61v.52c0,.1-.23.15-.67.15l-.23.3v.3q.6.15.6.3V50q0,.12-.45.3v.07l.45.67v.08l-.6-.15v1.12a10.89,10.89,0,0,0,.23,2.47l-.38.15.3.82c.2,0,.3.33.3,1l-.52.15v.07l.52,1.05v.07l-.37.15.22.53a.61.61,0,0,0-.37.6v.14q.09.75.3.75l.07-.22c.25.06.37.14.37.22s-.22.33-.67.68l-.15.59c.25.1.38.38.38.83L60,63v.29h.15l.07-.07h.08l.07.07v.08l-.22.45h.07l.37-.15.08.07v.08c0,.26-.17.41-.52.45l.07,1.94-.75,2.47-.22,2.92C58,73,56,73.67,53.18,73.67h-1a8.26,8.26,0,0,1-4.94-3.06,10,10,0,0,1-1.42-3.44V40.31l.08-.08Zm4.63,19.75a.63.63,0,0,1,.38.52l-.23.15h-.07q-.2,0-.3-.6l.07-.07ZM61.33,41.28a1.2,1.2,0,0,1,.23.67l-.08.08H61l-.59-.3v-.15C60.44,41.47,60.73,41.37,61.33,41.28Zm-.89,2v.07l.44-.22v-.08h-.22Zm.82.37c.15,0,.22.1.22.3q0,.75-.3.75h-.45c-.1,0-.15-.07-.15-.22A1.83,1.83,0,0,1,61.26,43.67Zm-.45,2.92q.28,0,.6.45v.07l-.15.15L61,47.19v.07c0,.2-.12.3-.37.3l-.08-.22.15-.3-.15-.15v-.07Zm-.08,19.53a.63.63,0,0,1,.45.37v.23l-.15.15h-.22l-.15-.68Zm.3-12.8a.48.48,0,0,1,.3.45l-.07.08H61l-.15-.15v-.23Zm0,3.37h.15l.15.15v.3l-.15.15H61l-.15-.15v-.3Z"/><path class="cls-2" d="M73.29,41c.14,0,.22.32.22,1v.68l.07.07v.07c-.49.12-.74.27-.74.45.07.35.35.53.82.53l.15.3-.08.82c.2.07.3.15.3.22v.08l-.89.82c0,.19.15.39.44.6l.23-.45c.2.08.3.15.3.23s-.23.53-.68,1a.66.66,0,0,1,.45.37L73.66,49q0,.12.6.3v.08c-.26.35-.49.52-.68.52V50h.15l.45-.08.23.23q0-.3.15-.3a1.28,1.28,0,0,1,.3,1l-.38.3-.6-.22-.07.67a1.41,1.41,0,0,0,.45,1,.51.51,0,0,0,.3.52h.07l.45-.15.08.07v.08a5.22,5.22,0,0,1-.68,1.27l-.15.82c.11,1.3.29,2,.53,2v.07l-.38,1.28v.15l.45.07a1.6,1.6,0,0,1-.45,1c.2.1.3.23.3.38l-.22.9.52.29-.22.6V62l.45.53v.15c0,.26-.08.41-.23.45h-.37a2.68,2.68,0,0,0,.37,1l-.3,1.42v.15l.38.38-.23.9v.22l.15.15h.23a.47.47,0,0,1,.29-.45c.1,0,.2.15.3.37-.08.25-.21.38-.37.38l.22.3v.07c0,.65-.13,1-.3,1h-.14v-.53h-.08v1.12l.67-.15.08.08v.07a.9.9,0,0,1-.67.38v.07c.19,0,.29.1.29.23v.07l-.37,1.2q0,.28.45.45c0,1-.55,1.57-1.65,1.57h-.6c-.18,0-.36-.9-.52-2.69l-.75-4.57q-3.06,0-3.06-.45c0-.18-.18-.33-.53-.45-.65.25-1,.63-1,1.13h.07c.15,0,.23.05.23.15-.7.43-1.05.71-1.05.82l-.75,3.67V72.7c0,.55-.12.82-.37.82l-3.07.15-.15-.29Q67.67,41.91,68,41Zm-5.77,32a1,1,0,0,1,.3.59l-.07.08h-.3l-.22-.22v-.23Zm.3-1.13L68,72v.53c0,.26-.07.41-.22.45h-.23v-.15C67.56,72.13,67.66,71.8,67.82,71.8Zm2.77-17.2c-.21,1.44-.56,2.17-1,2.17l-.07.44h.07l.3-.15.08.23c0,.11-.38.46-1.12,1.05l-.53.89v.53c0,.55.45.82,1.35.82l.22.23h1.57l-.15-2.92v-.75a9.86,9.86,0,0,1-.59-2.54Zm4.34-2.55.15.15v.15l-.3.45h-.3v-.07A.78.78,0,0,1,74.93,52.05Zm-.07,3.29h.07c.15,0,.23.33.23,1l-.3.15a1.67,1.67,0,0,1-.3-.75v-.08Zm.59,3.75c.35.11.53.21.53.29v.08a.63.63,0,0,1-.6.37l-.07-.07h-.08Zm.3,5.91h.08l.15.15v.14l-.15.15h-.3v-.22Zm-.15,5.61h.3l.15.15v.45l-.15.14h-.15l-.15-.14Zm.15,2.32h.15l.15.15v.3l-.15.14h-.15l-.15-.14v-.3Zm.83-9.06h.22L77,64v.08c-.45.27-.67.47-.67.6l-.38.07v-.22A1.75,1.75,0,0,1,76.58,63.87Zm0-1.42.15.15v.08l-.53.59h-.07L76,63.13V62.9A.62.62,0,0,1,76.58,62.45ZM77,68.74c.65,0,1,.07,1,.22v.45l-.22.22h-.08q-.15,0-.15-.3C77.13,69.16,77,69,77,69Zm.6-1.8.15.6-.23.15h-.22L77,67.46v-.15A.64.64,0,0,1,77.55,66.94Zm0,2.92h.22l.3.3v.22c0,.15-.22.28-.67.38l-.07-.08h-.08l.22-.3-.07-.07V70Zm.3,1c.2,0,.37.33.52,1l-.22.08a5.5,5.5,0,0,1,.45,1.64l-.08.08H78l-.38-.45c0-.12.1-.2.3-.22a2.2,2.2,0,0,1-.45-1V71.8c.1-.06.15-.36.15-.89l.08-.08Z"/><path class="cls-2" d="M79.61,40.9H89.86l3.51.08.08.07v.08l.07,4.19-.07.07-3,.08h-.83V46l-.52.38c0,.45-.11.67-.23.67h-.07L88.74,47l-.23.08.15.45-.3,1.2v.15c0,.11.23.23.67.37v.22c-.4.25-.59.5-.59.75v.15a1.58,1.58,0,0,0,.59,1,6.19,6.19,0,0,0-.44,1.58l.15.29.37-.07h.07v.15l-.52,1.5a.87.87,0,0,0,.6.15l.15.52-.08.07h-.07l-.45-.15v.15l.07.08v.07l-.22.08v.07l.37.45c0,.1-.1.15-.29.15l.29.45V57c0,.1-.12.15-.37.15v.15l.08-.08H89c.11,0,.21.23.3.68l-.82.3v.07A1.38,1.38,0,0,1,89,59.31c0,.2-.12.3-.37.3v.22l.37-.07.08.07v.38a.4.4,0,0,0-.45.45l.22.82H89V61.4l-.08-.22L89,61.1h.22q.21,0,.3.75a1.07,1.07,0,0,1-.6.15v.08a1,1,0,0,0,.53.9v.59l-.15.15h-.52v.08a14.16,14.16,0,0,0,.74,4l-.45.3a22.48,22.48,0,0,1,.45,5.46l-.22.08-4.94.07-.07-.07v-.08l-.15-28-2.92.15c-1.15,0-1.72-.15-1.72-.45l-.08-3.89C79.45,41,79.52,40.9,79.61,40.9Z"/><path class="cls-2" d="M106.71,34.5h15.77l5.41.11.11.12v.12l.12,6.44-.12.12-4.6.11h-1.27v.81l-.8.57c-.06.69-.17,1-.35,1h-.11l-.12-.12-.34.12.23.69-.46,1.84v.23c0,.17.34.36,1,.58v.34c-.61.39-.92.77-.92,1.15V49a2.54,2.54,0,0,0,.92,1.5,10.69,10.69,0,0,0-.69,2.42l.23.46.58-.12h.11v.23l-.8,2.3a1.29,1.29,0,0,0,.92.23l.23.81-.12.11h-.11l-.69-.23v.23l.11.12v.11l-.34.12v.11l.57.69c0,.16-.15.24-.46.24l.46.69v.23c0,.15-.19.23-.57.23v.23l.11-.12h.35c.17,0,.32.35.46,1l-1.27.46v.11a2.14,2.14,0,0,1,.92,1.61c0,.31-.19.46-.57.46v.35l.57-.12.12.12v.58a.61.61,0,0,0-.69.69l.34,1.26h.12V66l-.12-.35.12-.11h.34c.21,0,.37.38.46,1.15A1.65,1.65,0,0,1,121,67v.11a1.52,1.52,0,0,0,.81,1.38v.92l-.23.23h-.81v.12a22.3,22.3,0,0,0,1.15,6.1l-.69.46a34.59,34.59,0,0,1,.69,8.4l-.34.12-7.6.11-.11-.11v-.12l-.23-43.16-4.49.23c-1.77,0-2.65-.23-2.65-.69l-.11-6C106.46,34.69,106.58,34.5,106.71,34.5Z"/><path class="cls-2" d="M129.5,34.73h7.94c.16,0,.23.12.23.35,0,1.68-.27,2.64-.8,2.87l-.46-.46c0,.44-.35.71-1,.81l-.23.34V39l.46,1.61a.51.51,0,0,0-.57.58l.46,1.61a1,1,0,0,0-.69.92c0,.38.46.92,1.38,1.61a1.89,1.89,0,0,1,.57,1.15l-.34.23h-.12c-.15,0-.27-.23-.34-.69l-.35-.12c-.46,0-.77.73-.92,2.19a10.08,10.08,0,0,0,.69,2.88v.34l-.11.69.46.47-.12.11h-1v.12l.23.8H135c.05-.38.17-.57.34-.57H136l.34.23a2.35,2.35,0,0,0-.57,1.15,6.4,6.4,0,0,0,3.79,1.61l4.26-.35V54.41l.12-19.56.11-.12h8.06c.15,0,.23.12.23.35L152.06,38V39.1h-.23a2.66,2.66,0,0,0-1.27-.57v1c0,.12-.15.23-.46.35L150,40v.7c.23,0,.34.07.34.23v.11L150,42.21v.23l.46.58c-.39.84-.65,1.26-.81,1.26a20.92,20.92,0,0,1,.23,3.46v1.84l-.23.92v.34l.69.23-.46,3a3.28,3.28,0,0,1,.58,2V57.4a1.82,1.82,0,0,0,.8,1.5v.23l-.23.23h-.23l-.69-.57V59a1.64,1.64,0,0,0,1.5,1.84c0,.46-.38.69-1.15.69v.11l.23,1-.23.23c.31,0,.46.15.46.34s-.15.35-.46.35l.23.34v.35l-.35,2.53c0,.21.19.41.58.58a5.74,5.74,0,0,0-.46,2q0,.34.57.81v.23c0,.23-.15.35-.46.35v.34l.35.58-.23.92c.31,0,.46.11.46.34l-.46,1.27.92.8.11,1.27a1.22,1.22,0,0,0-1,1.38v1.15l.8,5.76-.11.11-7.14.23-.23-.23-.11-10.93v-6l-.12-4a52.68,52.68,0,0,0-5.52-.46l-1,.23.12.12v.46a3.06,3.06,0,0,1-.69,1.73l.69,2c-.85.27-1.27,1.19-1.27,2.77a2.48,2.48,0,0,0,1,2.18v.35l-.92.57.46,1.38a5.23,5.23,0,0,1-.92,2.42l.69,2.65c-.23,0-.35.15-.35.46H136a2.41,2.41,0,0,0,1.38,2l-.12.34.46,1.84-.11.12-5.76.11h-2.3l-.23-.23V35Zm4.95,15.42v.92L135,51v-.12Zm1.38-1.72H136l.23.23V49l-.23.23h-.12L135.6,49v-.34Zm0-1.15a1,1,0,0,1,.69.57V48l-.34.34c-.16,0-.31-.3-.46-.92Zm.12,3.45h.23l.23.23v.34l-.23.23H136l-.23-.23V51Zm.8-.12h.12a.78.78,0,0,1,.46.81v.34c-.08.23-.31.35-.69.35l-.12-.12v-.11l.23-.69-.23-.23v-.12Zm.46,18.53.23.23V70c-.05.77-.29,1.15-.69,1.15l-.23-1.73ZM136.87,39h.23l.23.23v.57l-.23.23h-.23l-.23-.23v-.57Zm.11,1.26h.12c.23,0,.34.16.34.47a.68.68,0,0,1-.69.57l-.11-.11C136.71,40.56,136.83,40.25,137,40.25Zm0,2.54h.23l.23.23v.34l-.23.23H137l-.23-.23V43Z"/><path class="cls-2" d="M154.42,34.73h1l18.07.12c.69.53,1,1,1,1.49l-.11.58h.34c0-.31.08-.46.23-.46l.35.34v.12l-.58.57h-.34l-.35-.23-.11.12v.11l.11.58c-.42.06-.73.36-.92.92l.23.23v.23l-.57.92.11.11h.69v.12l-1.15,1.61-8.17.12h-1l-.23-.23v-.46Q163,40,162.48,40l-1.27.12-.46-.23c0,.77-.23,1.15-.69,1.15a2.09,2.09,0,0,0-.69,1.27h.23c0-.31.15-.46.34-.46l.35.34-.46.58V44.4c0,.23-.15.34-.46.34v.12l.11.57-.34.23.11.12v.11l-.11.93.57,2.76c-.11.3-.23.46-.34.46h-.58V51h.12l.69-.23c.15,0,.31.34.46,1h.23v-.23h.35l.23.23v.12l-2,2.19v.11l.8-.11v.11a1.24,1.24,0,0,1-1.26.69c0,.25.57.44,1.72.58l.12.34q-.69.3-.69.69l.23.58,1.15-.12.12.58.11-.12h.58a3,3,0,0,1,1,1.27l-.11.12a2.36,2.36,0,0,1-1.61-.7h-.23l-1.16.12-.11-.58h-.12c-.21,0-.36.39-.46,1.16v1h.81l.34.35-.8.92.11.57a5.29,5.29,0,0,0-.57,2.42v.12a11.31,11.31,0,0,0,.46,2.64l-.12.12h-.11l.23,1.15a2.25,2.25,0,0,1-.81,1,1.94,1.94,0,0,1,1.15.35l-.11.57v.35l.11-.11h.46l.35.46c-.6,0-.94.38-1,1.15.22,1,.44,1.49.69,1.49l.35-.23c1.23.27,1.84.89,1.84,1.84l.12,1.39v.69l8.86.23.11.11v.12l-1,.92v.11h.23c0-.23.08-.34.23-.34s.42.34.57,1v.58l-.46.46h-.11l-.12-.12h-.11l.11-.11V79.5h-.11l-.46.69v.12l.11,1.5a4.17,4.17,0,0,1-.57,2.07q.57,0,.57.69l-.11.11h-.12l-15.54.23-.34-.46V35Zm6,31.08h.12l.58.57v.12h-.58l-.35-.35V66Zm.35-4.38H161l.35.23.57-.11.23.34V62c0,.23-.34.34-.92.34l-.69-.69Zm.69-14.5h.12l.34.35v.11c0,.17-.31.29-.92.35v-.35Zm.23,4.72L162,52v.47c-.16.69-.35,1-.58,1s-.23-.11-.23-.34C161.27,52.15,161.42,51.65,161.67,51.65Zm1.38,3.45h7.48l.23.23-.11,3.8.11,3-.11.12h-.23l-.46-.35a2.16,2.16,0,0,1-2.07.92h-2l-2.19-.34h-1c-.2,0-.31-.35-.35-1l.12-.11h.11l.35.23v-.12l-.12-.46.46-1.84q-.17-1.5-.69-1.5c-.23,0-.42-.38-.57-1.15l.11-.11h.12l.46.11c.38-.09.57-.21.57-.34h-.69V56C162.73,55.41,162.88,55.1,163.05,55.1Zm10.36-13.58h.23l.23.23v.35l-.23.23h-.23l-.23-.23v-.35Zm2.53-5.06h.23l.46.46V37l-.23.23h-.11C176.12,37.26,176,37,175.94,36.46Z"/></svg>